<?xml version="1.0" standalone="no"?>
<!DOCTYPE svg PUBLIC "-//W3C//DTD SVG 20010904//EN"
 "http://www.w3.org/TR/2001/REC-SVG-20010904/DTD/svg10.dtd">
<svg version="1.0" xmlns="http://www.w3.org/2000/svg"
 width="499.000000pt" height="292.000000pt" viewBox="0 0 499.000000 292.000000"
 preserveAspectRatio="xMidYMid meet">

<g transform="translate(0.000000,292.000000) scale(0.100000,-0.100000)"
fill="#000000" stroke="none">
<path d="M2198 2670 c-11 -35 -10 -968 0 -974 12 -7 22 340 12 394 -13 63 -13
179 0 160 7 -10 9 24 9 105 -2 184 -13 344 -21 315z"/>
<path d="M2150 2618 c0 -35 -3 -136 -6 -224 -8 -199 5 -716 17 -708 5 3 9 106
9 230 0 148 -3 223 -10 219 -6 -4 -10 17 -10 55 0 38 4 59 10 55 7 -4 10 70
10 214 0 141 -4 221 -10 221 -6 0 -10 -28 -10 -62z"/>
<path d="M2237 2645 c-8 -50 -9 -918 -1 -939 17 -44 24 14 24 197 0 134 -4
197 -10 187 -7 -10 -10 20 -10 93 0 70 4 106 10 102 7 -4 10 57 9 177 0 187
-9 260 -22 183z"/>
<path d="M2107 2638 c-8 -52 -7 -849 2 -893 7 -36 8 -31 16 49 8 89 1 863 -8
872 -2 3 -7 -10 -10 -28z m10 -485 c-2 -21 -4 -4 -4 37 0 41 2 58 4 38 2 -21
2 -55 0 -75z"/>
<path d="M2276 2638 c-8 -42 -6 -837 3 -898 5 -33 9 -41 15 -30 13 19 8 412
-5 447 -13 34 -2 83 18 83 11 0 13 -5 8 -17 -4 -10 -6 -22 -5 -28 1 -5 4 -99
7 -207 2 -109 8 -198 13 -198 15 0 23 86 16 173 -16 204 -19 340 -7 333 8 -5
11 26 11 116 0 126 -6 168 -21 168 -5 0 -9 -69 -10 -152 0 -93 -4 -145 -9
-132 -4 11 -7 95 -7 187 1 108 -2 170 -9 177 -8 8 -13 2 -18 -22z"/>
<path d="M1978 2612 c-10 -69 -9 -870 0 -876 13 -8 22 404 15 679 -3 127 -6
231 -8 233 -1 1 -5 -15 -7 -36z m9 -434 c-3 -7 -5 -2 -5 12 0 14 2 19 5 13 2
-7 2 -19 0 -25z"/>
<path d="M2067 2633 c-8 -13 -11 -883 -2 -891 3 -3 7 -3 9 -1 2 2 6 119 9 259
6 279 -3 652 -16 633z m10 -455 c-2 -13 -4 -5 -4 17 -1 22 1 32 4 23 2 -10 2
-28 0 -40z"/>
<path d="M2019 2550 c-9 -128 -11 -774 -3 -795 8 -19 9 -18 15 5 10 35 9 411
-1 380 -5 -17 -8 -1 -8 50 0 54 2 67 8 45 10 -38 10 319 1 360 -6 23 -8 13
-12 -45z"/>
<path d="M1938 2565 c-12 -62 -9 -325 3 -296 5 13 8 94 7 180 -2 104 -5 143
-10 116z"/>
<path d="M1322 2210 c1 -248 4 -343 8 -280 12 145 11 623 0 640 -6 10 -9 -115
-8 -360z"/>
<path d="M1366 2524 c-9 -67 -6 -624 4 -654 4 -14 8 138 9 338 1 199 -1 362
-3 362 -2 0 -6 -21 -10 -46z"/>
<path d="M2851 2213 c0 -181 -2 -337 -3 -347 -2 -10 3 -21 10 -23 9 -4 12 70
12 346 0 207 -4 351 -9 351 -6 0 -10 -135 -10 -327z"/>
<path d="M3421 2188 c0 -205 4 -345 9 -333 12 29 12 672 0 680 -6 4 -9 -119
-9 -347z"/>
<path d="M2805 2518 c-3 -7 -4 -159 -3 -337 2 -249 6 -325 16 -329 16 -5 18
663 2 673 -6 3 -12 0 -15 -7z m12 -370 c-2 -24 -4 -5 -4 42 0 47 2 66 4 43 2
-24 2 -62 0 -85z"/>
<path d="M2542 2499 c-6 -15 -16 -29 -22 -31 -23 -7 -38 -127 -24 -197 12 -57
24 -32 24 49 0 48 4 80 10 80 7 0 10 -91 10 -266 -1 -146 2 -269 5 -272 3 -4
10 0 15 8 13 20 13 220 0 220 -6 0 -9 38 -8 98 l2 97 5 -90 c5 -78 6 -67 11
90 5 172 6 167 8 -102 2 -256 8 -315 26 -267 3 9 6 132 6 274 0 142 -3 265 -6
274 -3 9 -12 16 -19 16 -6 0 -17 10 -22 23 l-11 22 -10 -26z m55 -346 c-2 -21
-4 -4 -4 37 0 41 2 58 4 38 2 -21 2 -55 0 -75z"/>
<path d="M3468 2514 c-11 -10 -10 -642 0 -648 10 -6 23 243 21 413 -2 139 -11
246 -21 235z"/>
<path d="M1279 2380 c-2 -69 -2 -208 1 -310 l6 -185 3 130 c7 252 7 381 1 435
-6 45 -8 32 -11 -70z"/>
<path d="M2891 2355 c1 -83 3 -141 6 -130 2 11 9 30 15 42 13 27 4 211 -11
226 -8 8 -11 -32 -10 -138z"/>
<path d="M2767 2473 c-4 -3 -6 -67 -5 -142 1 -78 4 -115 7 -86 5 49 5 49 11
-25 5 -56 7 -34 8 93 2 152 -2 180 -21 160z"/>
<path d="M2360 2190 c0 -254 5 -313 24 -264 10 27 7 194 -4 194 -6 0 -10 30
-10 69 0 39 5 73 10 76 11 7 14 146 4 183 -18 64 -24 -4 -24 -258z"/>
<path d="M3378 2430 c-10 -32 -8 -457 1 -490 13 -42 24 283 15 404 -6 75 -11
103 -16 86z"/>
<path d="M1897 2432 c-5 -7 -7 -45 -6 -85 4 -111 3 -224 -2 -309 -4 -69 2
-100 16 -86 3 3 4 115 3 249 -2 134 -7 238 -11 231z"/>
<path d="M3680 2196 c0 -153 4 -247 10 -251 7 -4 10 80 10 244 0 161 -4 251
-10 251 -6 0 -10 -88 -10 -244z"/>
<path d="M1149 2353 c-3 -127 2 -377 7 -382 2 -2 4 100 4 227 0 128 -2 232 -5
232 -3 0 -6 -35 -6 -77z"/>
<path d="M2714 2405 c-3 -13 -3 -46 0 -72 3 -27 7 -79 10 -118 3 -57 2 -61 -4
-20 -5 37 -7 16 -8 -82 -1 -72 1 -138 4 -147 18 -47 24 7 24 224 0 150 -4 240
-10 240 -5 0 -12 -11 -16 -25z"/>
<path d="M3508 2224 c-1 -115 -1 -227 2 -249 l6 -40 7 40 c10 58 8 427 -2 444
-6 9 -11 -67 -13 -195z"/>
<path d="M1410 2190 c0 -128 2 -231 5 -229 7 7 7 450 1 457 -3 3 -6 -100 -6
-228z"/>
<path d="M1756 2413 c-3 -3 -6 -109 -6 -235 0 -179 3 -229 13 -226 9 4 13 60
14 231 2 206 -2 249 -21 230z"/>
<path d="M1717 2403 c-11 -11 -8 -421 3 -428 7 -4 10 70 10 214 0 122 -1 221
-3 221 -2 0 -7 -3 -10 -7z"/>
<path d="M2629 2406 c-2 -3 -2 -46 0 -98 4 -108 19 -95 20 19 1 62 -7 92 -20
79z"/>
<path d="M1800 2191 c0 -134 4 -211 10 -211 6 0 10 75 10 204 0 126 -4 207
-10 211 -7 4 -10 -67 -10 -204z"/>
<path d="M2675 2389 c-10 -26 -1 -399 10 -399 11 0 11 14 0 155 -5 55 -3 119
4 164 8 50 8 78 2 84 -7 7 -12 6 -16 -4z"/>
<path d="M1580 2196 c0 -119 4 -197 10 -201 7 -4 10 61 10 189 0 119 -4 197
-10 201 -7 4 -10 -61 -10 -189z"/>
<path d="M1537 2342 c-3 -20 -3 -95 -1 -167 1 -71 3 -140 4 -153 0 -13 4 -20
10 -17 12 8 14 362 1 369 -5 3 -11 -11 -14 -32z"/>
<path d="M3025 2369 c-10 -26 -1 -359 10 -359 14 0 19 350 6 363 -7 7 -12 5
-16 -4z m12 -196 c-3 -10 -5 -2 -5 17 0 19 2 27 5 18 2 -10 2 -26 0 -35z"/>
<path d="M1627 2364 c-10 -11 -9 -354 2 -354 15 0 18 22 20 165 1 135 -7 204
-22 189z"/>
<path d="M1670 2190 c0 -118 3 -179 10 -175 6 4 10 73 10 175 0 102 -4 171
-10 175 -7 4 -10 -57 -10 -175z"/>
<path d="M4036 2339 c-9 -46 -6 -271 4 -294 5 -12 9 47 9 153 1 94 -1 172 -3
172 -2 0 -6 -14 -10 -31z"/>
<path d="M1840 2190 c0 -97 4 -170 9 -170 5 0 10 73 10 170 0 100 -4 170 -10
170 -5 0 -9 -70 -9 -170z"/>
<path d="M2410 2299 c0 -73 7 -74 15 -2 4 31 2 54 -4 58 -7 4 -11 -15 -11 -56z"/>
<path d="M2988 2337 c-13 -30 -10 -123 3 -110 5 5 9 37 7 69 -2 38 -6 53 -10
41z"/>
<path d="M1107 2333 c-11 -11 -8 -283 3 -283 6 0 10 55 10 145 0 80 -1 145 -3
145 -2 0 -7 -3 -10 -7z"/>
<path d="M3073 2213 c0 -71 -3 -138 -7 -150 -5 -17 -3 -23 8 -23 14 0 16 20
16 150 0 84 -4 150 -9 150 -5 0 -9 -57 -8 -127z"/>
<path d="M3202 2195 c0 -80 4 -145 9 -145 5 0 9 65 9 145 0 82 -4 145 -9 145
-5 0 -9 -63 -9 -145z"/>
<path d="M4077 2253 c-3 -49 -2 -110 2 -138 7 -39 9 -19 10 88 0 75 -1 137 -3
137 -2 0 -6 -39 -9 -87z"/>
<path d="M1497 2323 c-10 -9 -9 -261 1 -266 4 -3 7 57 7 134 0 76 0 139 -1
139 0 0 -4 -3 -7 -7z"/>
<path d="M1237 2313 c-11 -10 -8 -241 3 -248 6 -4 10 40 10 124 0 72 -1 131
-3 131 -2 0 -7 -3 -10 -7z"/>
<path d="M1450 2184 c0 -87 4 -133 10 -129 6 4 10 60 10 136 0 79 -4 129 -10
129 -6 0 -10 -52 -10 -136z"/>
<path d="M3154 2307 c-2 -7 -3 -64 -2 -127 2 -80 7 -115 16 -118 9 -3 12 27
12 127 0 83 -4 131 -10 131 -6 0 -13 -6 -16 -13z m13 -134 c-2 -16 -4 -5 -4
22 0 28 2 40 4 28 2 -13 2 -35 0 -50z"/>
<path d="M3550 2189 c0 -84 4 -128 10 -124 6 4 10 58 10 131 0 76 -4 124 -10
124 -6 0 -10 -50 -10 -131z"/>
<path d="M3726 2284 c-4 -20 -5 -38 -3 -40 3 -3 8 11 11 32 4 20 5 38 3 40 -3
3 -8 -11 -11 -32z"/>
<path d="M2454 2296 c-3 -8 -4 -27 -2 -43 3 -23 5 -20 9 15 5 43 2 53 -7 28z"/>
<path d="M3110 2190 c0 -73 4 -120 10 -120 6 0 10 47 10 120 0 73 -4 120 -10
120 -6 0 -10 -47 -10 -120z"/>
<path d="M3860 2189 c0 -77 4 -118 10 -114 6 4 10 55 10 121 0 69 -4 114 -10
114 -6 0 -10 -47 -10 -121z"/>
<path d="M3990 2188 c0 -83 3 -118 10 -108 13 20 13 230 0 230 -6 0 -10 -47
-10 -122z"/>
<path d="M1192 2190 c0 -72 3 -106 8 -90 11 34 11 160 0 185 -5 13 -8 -22 -8
-95z"/>
<path d="M1017 2283 c-11 -10 -8 -181 3 -188 6 -4 10 30 10 94 0 101 -1 107
-13 94z"/>
<path d="M2930 2186 c0 -100 11 -142 24 -93 11 42 7 155 -6 160 -10 4 -10 6
-1 6 14 1 6 31 -8 31 -5 0 -9 -47 -9 -104z m17 -38 c-2 -18 -4 -4 -4 32 0 36
2 50 4 33 2 -18 2 -48 0 -65z"/>
<path d="M3337 2277 c-9 -25 -7 -176 3 -182 6 -4 10 31 10 94 0 98 -2 115 -13
88z"/>
<path d="M3900 2201 c0 -49 5 -93 10 -96 6 -4 10 26 10 84 0 49 -4 93 -10 96
-6 4 -10 -26 -10 -84z"/>
<path d="M972 2200 c0 -65 1 -70 9 -37 5 21 5 53 0 75 -8 32 -9 27 -9 -38z"/>
<path d="M3240 2183 c0 -65 3 -84 11 -76 14 14 24 103 15 137 -13 54 -26 24
-26 -61z"/>
<path d="M3640 2193 c0 -49 4 -83 10 -83 13 0 13 130 0 150 -7 10 -10 -11 -10
-67z"/>
<path d="M1063 2190 c0 -41 2 -58 4 -37 2 20 2 54 0 75 -2 20 -4 3 -4 -38z"/>
<path d="M927 2208 c-2 -18 -1 -40 4 -48 5 -10 8 1 9 33 0 55 -6 61 -13 15z"/>
<path d="M1883 2195 c0 -27 2 -38 4 -22 2 15 2 37 0 50 -2 12 -4 0 -4 -28z"/>
<path d="M3590 2191 c0 -28 4 -52 9 -55 11 -7 24 59 16 84 -12 37 -25 20 -25
-29z"/>
<path d="M3823 2185 c0 -33 2 -45 4 -27 2 18 2 45 0 60 -2 15 -4 0 -4 -33z"/>
<path d="M3947 2233 c-11 -10 -8 -81 3 -88 6 -4 10 13 10 44 0 52 -1 56 -13
44z"/>
<path d="M880 2196 c0 -14 5 -26 10 -26 6 0 10 9 10 19 0 11 -4 23 -10 26 -6
4 -10 -5 -10 -19z"/>
<path d="M3720 2187 c0 -20 5 -39 11 -42 7 -5 8 5 3 32 -9 51 -14 54 -14 10z"/>
<path d="M4120 2195 c0 -14 5 -25 10 -25 6 0 10 11 10 25 0 14 -4 25 -10 25
-5 0 -10 -11 -10 -25z"/>
<path d="M2491 2194 c0 -11 3 -14 6 -6 3 7 2 16 -1 19 -3 4 -6 -2 -5 -13z"/>
<path d="M3294 2185 c-1 -14 2 -22 7 -19 11 6 12 44 2 44 -5 0 -9 -11 -9 -25z"/>
<path d="M3770 2190 c0 -11 5 -20 10 -20 6 0 10 9 10 20 0 11 -4 20 -10 20 -5
0 -10 -9 -10 -20z"/>
<path d="M2892 2048 c-2 -158 10 -210 23 -100 8 68 3 182 -7 176 -4 -2 -9 15
-11 38 -2 24 -4 -28 -5 -114z"/>
<path d="M2761 2048 c0 -81 3 -149 8 -152 20 -13 22 98 3 234 -8 58 -9 50 -11
-82z"/>
<path d="M1932 2145 c0 -16 2 -22 5 -12 2 9 2 23 0 30 -3 6 -5 -1 -5 -18z"/>
<path d="M2981 2120 c0 -30 4 -64 9 -75 6 -14 9 -5 9 35 0 30 -4 64 -9 75 -6
14 -9 5 -9 -35z"/>
<path d="M2454 2121 c1 -26 6 -46 14 -49 8 -2 12 6 11 25 0 24 -1 25 -9 8 -6
-16 -9 -13 -13 20 l-4 40 1 -44z"/>
<path d="M2631 2068 c-1 -59 3 -98 9 -98 12 0 12 147 0 175 -6 13 -9 -14 -9
-77z"/>
<path d="M2490 2059 c0 -84 11 -139 27 -139 5 0 7 51 5 113 -3 91 -6 114 -18
114 -11 0 -14 -18 -14 -88z"/>
<path d="M2411 2075 c0 -49 2 -65 9 -55 11 18 11 65 0 100 -6 18 -8 5 -9 -45z"/>
<path d="M1930 1926 c0 -106 4 -177 10 -181 7 -4 10 55 10 169 0 106 -4 177
-10 181 -7 4 -10 -55 -10 -169z"/>
</g>
</svg>
