<?xml version="1.0" standalone="no"?>
<!DOCTYPE svg PUBLIC "-//W3C//DTD SVG 20010904//EN"
 "http://www.w3.org/TR/2001/REC-SVG-20010904/DTD/svg10.dtd">
<svg version="1.0" xmlns="http://www.w3.org/2000/svg"
 width="389.000000pt" height="176.000000pt" viewBox="0 0 389.000000 176.000000"
 preserveAspectRatio="xMidYMid meet">

<g transform="translate(0.000000,176.000000) scale(0.100000,-0.100000)"
fill="#000000" stroke="none">
<path d="M0 880 l0 -880 1945 0 1945 0 0 880 0 880 -1945 0 -1945 0 0 -880z
m1014 280 c155 -58 233 -250 164 -402 -114 -248 -460 -231 -558 28 l-10 25 57
-7 c51 -6 62 -11 92 -47 19 -22 50 -46 68 -53 62 -27 167 -12 200 28 10 12 9
19 -10 36 -22 21 -24 21 -68 5 -41 -15 -50 -15 -84 -2 -53 20 -53 33 -3 48 24
7 65 24 91 37 49 25 127 89 127 105 0 17 -66 83 -97 95 -41 18 -115 18 -156 0
-45 -18 -95 -79 -109 -132 -13 -47 -19 -49 -78 -38 -32 7 -32 8 -26 51 8 63
38 114 97 167 83 75 196 96 303 56z m1806 -149 c0 -26 -25 -44 -50 -36 -25 8
-27 50 -3 64 23 12 53 -4 53 -28z m-930 -131 l0 -160 -30 0 c-16 0 -30 4 -30
9 0 5 -17 3 -39 -6 -36 -14 -42 -14 -83 5 -72 32 -99 113 -58 179 36 60 96 78
163 49 15 -7 17 -2 17 38 0 44 1 46 30 46 l30 0 0 -160z m-922 96 c12 -12 11
-16 -12 -31 -30 -20 -136 -64 -153 -65 -36 0 3 80 49 104 37 19 93 15 116 -8z
m599 -25 c41 -25 51 -56 26 -83 -19 -22 -82 -57 -123 -68 l-25 -7 28 -13 c21
-11 32 -11 54 -1 23 10 29 9 46 -7 19 -20 19 -20 -5 -36 -22 -14 -59 -21 -100
-17 -10 0 -35 17 -57 36 -23 21 -49 35 -65 35 -14 0 -26 3 -26 8 0 4 -3 18 -7
31 -6 22 -4 23 25 19 23 -3 32 -1 32 9 0 28 32 74 63 93 41 25 93 25 134 1z
m813 6 c68 -34 91 -131 43 -188 -59 -69 -143 -73 -197 -8 -89 106 30 259 154
196z m289 -13 c31 -26 31 -26 31 -126 l0 -99 -27 3 c-28 3 -28 3 -30 87 -1 88
-8 101 -50 101 -32 0 -43 -29 -43 -115 l0 -76 -27 3 -28 3 -3 117 -3 117 43 4
c98 8 106 7 137 -19z m-669 -69 c0 -80 2 -86 23 -94 14 -6 29 -5 42 4 17 10
20 25 23 94 l3 81 29 0 30 0 0 -120 0 -120 -47 0 c-27 0 -61 -1 -78 -1 -21 -1
-37 8 -57 30 -26 29 -28 37 -28 121 l0 90 30 0 30 0 0 -85z m810 -36 l0 -120
-27 3 -28 3 -3 118 -3 117 31 0 30 0 0 -121z m127 91 c9 -16 20 -30 23 -30 3
0 14 14 25 30 16 24 27 30 58 30 l38 0 -41 -55 c-22 -30 -40 -57 -40 -61 0 -4
16 -29 35 -55 19 -27 35 -54 35 -59 0 -6 -13 -10 -30 -10 -23 0 -35 8 -52 35
-13 19 -25 35 -28 35 -3 0 -15 -16 -28 -35 -18 -29 -28 -35 -58 -35 -39 0 -40
-2 14 73 l34 48 -36 54 c-20 30 -36 57 -36 60 0 3 15 5 34 5 28 0 38 -6 53
-30z"/>
<path d="M1710 888 c-25 -27 -26 -59 -2 -89 43 -52 131 -11 118 56 -11 56 -77
75 -116 33z"/>
<path d="M1480 913 c-39 -14 -68 -63 -37 -63 6 0 32 10 57 21 43 19 44 21 26
35 -21 15 -23 15 -46 7z"/>
<path d="M2276 894 c-38 -37 -27 -96 20 -114 67 -26 125 59 74 110 -24 24 -72
26 -94 4z"/>
</g>
</svg>
