<?xml version="1.0" standalone="no"?>
<!DOCTYPE svg PUBLIC "-//W3C//DTD SVG 20010904//EN"
 "http://www.w3.org/TR/2001/REC-SVG-20010904/DTD/svg10.dtd">
<svg version="1.0" xmlns="http://www.w3.org/2000/svg"
 width="9000.000000pt" height="9000.000000pt" viewBox="0 0 9000.000000 9000.000000"
 preserveAspectRatio="xMidYMid meet">

<g transform="translate(0.000000,9000.000000) scale(0.100000,-0.100000)"
fill="#000000" stroke="none">
<path d="M29135 59489 c-1879 -129 -3841 -982 -5379 -2338 -173 -152 -594
-573 -737 -736 -983 -1120 -1539 -2329 -1630 -3545 -15 -199 -6 -679 15 -855
128 -1040 575 -1984 1358 -2872 59 -67 108 -125 108 -127 0 -2 -21 -7 -47 -11
-27 -3 -118 -20 -203 -36 -1356 -263 -2754 -999 -3970 -2092 -392 -353 -859
-854 -1173 -1260 -824 -1064 -1313 -2123 -1449 -3137 -29 -219 -32 -638 -5
-830 124 -885 616 -1537 1460 -1935 393 -185 897 -321 1447 -391 170 -21 671
-30 881 -15 1216 87 2636 617 4236 1583 1688 1018 3562 2514 5618 4482 121
116 253 242 293 281 l73 69 -29 -79 c-17 -44 -50 -134 -75 -200 -84 -226 -156
-450 -168 -522 -40 -243 142 -553 400 -681 132 -65 255 -55 338 27 23 23 80
116 142 232 524 972 1169 1983 1685 2638 357 453 733 836 1030 1049 43 31 45
31 37 10 -5 -13 -77 -192 -161 -398 -457 -1128 -824 -2107 -906 -2419 -40
-153 -28 -257 48 -410 105 -212 305 -341 532 -342 106 -1 132 4 206 41 72 36
91 59 185 215 43 72 144 229 224 350 503 755 1028 1368 1518 1771 55 46 103
84 106 84 2 0 -22 -75 -55 -167 -156 -446 -345 -1081 -368 -1243 -32 -220 116
-575 336 -809 219 -233 447 -317 661 -246 168 57 487 230 765 415 366 245 828
609 1216 958 50 46 92 81 92 78 0 -3 -36 -88 -81 -188 -941 -2121 -2036 -5239
-2353 -6698 -60 -278 -70 -343 -64 -457 9 -177 85 -342 212 -461 82 -76 155
-112 231 -112 51 0 60 3 90 33 20 20 38 51 44 78 67 270 151 512 318 909 573
1363 1554 3319 2396 4775 379 655 860 1427 878 1408 4 -4 33 -53 65 -108 308
-537 620 -848 915 -911 200 -43 598 29 864 156 47 22 129 74 182 114 215 162
598 554 960 982 l103 120 107 23 c676 140 1442 406 2074 721 89 44 164 78 166
76 3 -2 -4 -64 -14 -138 -13 -95 -18 -194 -18 -348 1 -206 2 -219 29 -305 97
-315 321 -597 641 -808 50 -32 187 -107 305 -166 353 -176 472 -203 740 -166
381 51 736 221 1094 524 318 269 656 685 942 1161 l81 134 159 24 c300 43 766
145 1029 225 44 14 81 24 82 23 1 -1 -36 -98 -82 -215 -94 -235 -208 -546
-251 -686 -64 -204 -18 -448 133 -703 121 -205 294 -369 461 -433 87 -34 220
-38 314 -9 342 103 807 544 1384 1315 66 88 149 201 184 250 35 50 66 94 70
98 4 5 -12 -70 -35 -166 -55 -223 -95 -443 -95 -516 0 -230 147 -553 349 -764
131 -137 257 -216 401 -253 78 -20 236 -15 290 9 75 33 790 743 1230 1222
1251 1363 2029 2527 2244 3359 62 237 78 503 42 671 -37 170 -117 322 -229
438 -89 92 -142 127 -189 127 -103 0 -222 -108 -243 -221 -8 -43 6 -79 50
-133 402 -491 -177 -1703 -1591 -3332 -476 -548 -1106 -1192 -1481 -1514 l-73
-62 0 75 c0 226 143 708 400 1352 168 419 384 900 525 1170 159 303 184 495
90 694 -89 186 -317 323 -540 324 -87 0 -153 -21 -189 -61 -10 -12 -92 -176
-180 -364 -179 -380 -255 -515 -454 -818 -469 -713 -1117 -1520 -1598 -1990
-204 -199 -339 -300 -402 -300 -53 0 -60 95 -16 225 93 280 543 1156 1148
2235 145 258 169 307 191 402 74 314 -118 580 -500 694 -73 21 -112 27 -205
28 -104 1 -120 -1 -164 -24 -28 -14 -58 -36 -68 -50 -30 -42 -373 -796 -617
-1361 l-72 -166 -182 -61 c-100 -34 -231 -75 -290 -92 -218 -62 -802 -198
-811 -189 -3 2 6 41 19 86 142 490 72 923 -194 1193 -150 152 -330 234 -543
247 -378 23 -724 -206 -926 -612 -92 -185 -126 -344 -120 -550 5 -122 9 -152
36 -235 42 -127 91 -207 187 -308 166 -174 369 -266 672 -306 57 -7 106 -15
108 -18 13 -13 -251 -339 -464 -572 -568 -622 -1045 -923 -1297 -821 -86 35
-158 141 -195 283 -109 429 122 1452 490 2167 232 452 493 751 766 881 91 44
194 74 251 74 42 0 91 18 98 36 8 20 -15 62 -51 96 -90 84 -363 231 -548 295
l-110 38 -170 -1 c-137 0 -189 -4 -267 -22 -585 -130 -1065 -543 -1397 -1202
-71 -140 -149 -326 -196 -467 l-28 -82 -167 -90 c-537 -292 -1152 -544 -1737
-715 -84 -24 -150 -39 -146 -32 4 6 59 81 123 166 382 509 690 996 813 1285
124 291 76 589 -144 886 -69 93 -230 245 -330 311 -279 185 -556 245 -815 179
-466 -119 -969 -419 -1499 -893 -498 -446 -1057 -1096 -1604 -1863 -122 -171
-148 -202 -179 -213 -41 -14 -96 -63 -118 -104 -8 -15 -14 -51 -14 -80 0 -48
-6 -61 -57 -138 -317 -474 -749 -1178 -1084 -1767 -85 -149 -155 -270 -157
-269 -3 4 219 497 408 901 553 1188 1178 2428 1888 3750 220 410 299 554 584
1065 90 162 170 310 176 329 65 188 -114 417 -451 576 -138 65 -253 96 -377
102 -58 3 -116 1 -129 -4 -17 -7 -68 -92 -198 -329 -295 -539 -872 -1462
-1097 -1754 -106 -137 -286 -322 -384 -395 -44 -32 -117 -79 -163 -104 -96
-53 -119 -85 -119 -166 1 -88 50 -164 135 -208 55 -28 161 -27 233 2 28 11 52
18 52 16 0 -3 -47 -101 -105 -218 -103 -209 -106 -213 -178 -277 -40 -36 -151
-135 -247 -221 -1106 -985 -1940 -1590 -2229 -1616 -150 -14 -177 87 -91 339
79 230 196 476 435 913 273 500 293 542 315 688 30 203 -59 391 -244 515 -158
106 -340 156 -536 150 -100 -4 -125 -8 -193 -35 -385 -153 -1064 -783 -1734
-1608 l-33 -40 16 40 c21 52 214 471 354 770 172 366 378 784 464 940 106 193
128 257 129 370 2 181 -86 338 -258 460 -149 105 -283 150 -455 149 -103 0
-126 -3 -215 -33 -536 -177 -1167 -748 -1880 -1701 -59 -80 -112 -149 -117
-155 -29 -31 309 643 437 870 74 132 100 193 120 277 54 230 -39 444 -252 582
-139 90 -299 139 -458 140 -115 1 -180 -18 -218 -64 -25 -30 -313 -695 -641
-1485 l-196 -469 -77 -79 c-406 -412 -1170 -1115 -1783 -1641 -2263 -1942
-4629 -3561 -6460 -4421 -965 -454 -1745 -707 -2485 -807 -148 -20 -211 -23
-485 -22 -271 0 -335 3 -457 22 -518 78 -886 233 -1150 485 -149 142 -241 276
-317 458 -366 887 141 2379 1372 4039 1108 1493 2590 2823 3842 3449 255 127
436 203 651 272 l157 51 88 -70 c352 -277 716 -469 1064 -561 227 -60 434 -80
629 -62 442 43 831 275 831 496 0 257 -449 466 -1240 579 -328 47 -486 58
-865 62 l-360 3 -98 143 c-520 759 -820 1592 -898 2493 -17 201 -15 644 5 850
71 737 268 1404 622 2105 329 655 753 1241 1299 1799 1339 1366 3130 2236
4995 2425 296 30 521 39 890 33 554 -9 899 -51 1196 -148 477 -155 714 -411
731 -790 20 -430 -251 -990 -818 -1689 -746 -920 -2052 -2092 -3431 -3077
-501 -358 -1066 -714 -1275 -803 -66 -28 -74 -48 -80 -210 -15 -360 100 -641
303 -741 152 -75 384 -39 634 99 162 89 585 379 915 627 1144 861 2308 1968
3082 2931 400 497 690 939 908 1379 171 346 262 603 316 892 29 160 37 429 15
568 -85 558 -471 963 -1161 1221 -410 152 -970 264 -1530 304 -163 12 -735 11
-910 -1z m-4710 -10880 c512 -53 845 -120 845 -169 0 -16 -55 -39 -132 -57
-103 -23 -344 -23 -463 0 -131 26 -256 63 -377 112 -104 43 -248 113 -278 135
-20 15 147 6 405 -21z m18435 -81 c0 -39 -98 -313 -183 -512 -97 -228 -412
-862 -566 -1138 -145 -262 -282 -497 -408 -699 l-103 -167 -42 -6 c-197 -27
-921 -31 -1208 -6 -223 19 -420 44 -420 52 0 10 148 213 294 403 745 970 1419
1604 2021 1900 184 91 326 143 475 174 128 26 140 26 140 -1z m5473 -529 c125
-34 191 -190 191 -449 -1 -198 -44 -416 -126 -635 l-33 -90 -105 1 c-218 4
-360 91 -411 255 -65 210 40 600 216 800 66 75 152 127 210 129 11 0 37 -5 58
-11z m-8128 -2414 c242 -23 675 -36 893 -28 105 5 192 6 192 4 0 -2 -23 -35
-52 -75 -187 -258 -389 -459 -489 -486 -31 -9 -53 -7 -102 5 -215 55 -441 236
-638 513 -32 45 -59 85 -59 88 0 4 21 4 48 0 26 -3 119 -13 207 -21z"/>
<path d="M78024 56449 c-17 -5 -38 -17 -46 -26 -8 -10 -309 -511 -668 -1113
-1913 -3209 -2961 -4932 -3781 -6215 -294 -459 -292 -456 -309 -451 -8 3 -73
25 -145 50 -155 53 -291 88 -452 117 -148 26 -475 37 -619 20 -399 -47 -793
-211 -1123 -469 -108 -84 -300 -270 -400 -387 -189 -220 -351 -467 -489 -741
-41 -81 -42 -83 -269 -274 -1307 -1103 -2364 -1802 -2970 -1966 -79 -22 -122
-27 -218 -28 -117 -1 -122 0 -189 33 -105 51 -156 136 -175 289 -18 139 25
406 110 697 23 77 46 157 51 178 9 31 15 37 37 37 14 0 100 5 191 10 1056 66
1772 549 2093 1411 101 269 127 429 92 572 -83 346 -470 692 -930 833 -80 25
-105 28 -235 28 -159 0 -279 -19 -473 -74 -551 -158 -1086 -596 -1512 -1235
-304 -458 -521 -946 -657 -1484 -39 -152 -43 -176 -42 -291 0 -104 4 -141 26
-220 143 -515 612 -1007 1125 -1178 173 -58 236 -67 483 -67 164 1 255 5 334
18 419 67 854 233 1277 487 426 257 909 634 1385 1082 52 49 97 88 99 86 1 -1
-6 -49 -16 -106 -29 -161 -49 -374 -52 -542 -2 -146 -1 -158 23 -215 130 -307
592 -656 950 -717 203 -35 391 71 736 416 409 410 807 934 1654 2176 349 511
469 684 553 792 l59 78 27 -20 c20 -16 149 -104 169 -116 7 -4 -103 -274 -384
-946 -503 -1202 -724 -1772 -943 -2428 -312 -931 -480 -1663 -553 -2395 -18
-190 -15 -662 6 -835 67 -556 242 -964 541 -1265 86 -87 113 -107 195 -148
145 -72 274 -95 359 -66 27 10 51 34 51 53 0 3 -44 49 -98 103 -108 108 -158
189 -207 338 -55 168 -69 284 -69 585 0 337 25 575 105 990 479 2496 2545
7274 5875 13582 140 265 194 376 194 401 0 60 -48 136 -149 237 -208 207 -502
357 -627 319z m-3710 -7156 c-78 -174 -291 -662 -355 -815 -70 -169 -74 -177
-94 -164 -11 7 -53 32 -92 55 l-73 43 217 322 c294 436 417 616 420 616 1 0
-9 -26 -23 -57z m-6132 -824 c109 -58 18 -433 -185 -758 -118 -189 -319 -418
-487 -554 -242 -196 -549 -347 -844 -417 -48 -12 -90 -20 -92 -18 -6 7 173
353 261 503 402 686 848 1134 1230 1235 84 23 91 23 117 9z m4826 -115 l30 -6
-36 -57 c-101 -159 -653 -988 -747 -1122 -383 -547 -748 -984 -1143 -1370
-201 -197 -257 -239 -313 -239 -59 0 -74 30 -74 150 2 371 341 1149 741 1697
414 566 842 877 1304 947 43 6 206 6 238 0z"/>
<path d="M58333 49044 c-365 -53 -737 -223 -1073 -491 -125 -100 -374 -350
-486 -488 -407 -503 -731 -1157 -889 -1801 -20 -81 -40 -178 -44 -218 -34
-317 165 -737 510 -1071 197 -190 402 -321 624 -398 184 -64 243 -72 505 -72
253 1 375 15 594 71 676 171 1406 615 2210 1345 221 200 251 226 244 209 -113
-277 -370 -959 -439 -1165 -39 -114 -44 -141 -44 -215 2 -232 167 -456 396
-537 91 -32 266 -43 339 -21 43 13 47 18 98 113 618 1163 1279 2205 1846 2910
354 440 690 772 981 967 167 112 369 199 499 214 67 8 92 -5 107 -57 28 -92
-26 -276 -205 -697 -100 -233 -121 -305 -112 -376 22 -188 205 -308 491 -323
159 -7 288 23 348 82 25 26 130 331 177 520 54 212 58 430 11 554 -100 264
-617 681 -876 708 -142 15 -430 -97 -675 -262 -409 -275 -898 -794 -1395
-1480 -76 -104 -142 -194 -147 -200 -37 -41 431 926 587 1215 92 168 109 224
103 339 -3 67 -10 99 -32 144 -95 199 -376 351 -672 364 -136 6 -215 -9 -254
-50 -22 -23 -168 -368 -535 -1263 -162 -396 -170 -413 -210 -445 -24 -19 -141
-118 -261 -220 -121 -102 -322 -269 -449 -371 -1130 -909 -1979 -1444 -2515
-1585 -123 -33 -289 -37 -367 -10 -105 37 -178 135 -204 274 -28 148 25 473
136 830 l35 111 118 6 c197 10 410 35 564 66 340 69 677 213 925 396 358 265
619 652 757 1119 66 227 70 320 16 475 -47 135 -110 230 -245 366 -212 213
-478 365 -738 420 -83 17 -230 17 -354 -2z m811 -590 c24 -24 29 -57 24 -157
-15 -276 -270 -727 -574 -1017 -222 -211 -494 -380 -764 -475 -116 -40 -299
-89 -307 -81 -3 2 32 78 77 168 369 735 829 1295 1230 1498 139 71 279 99 314
64z"/>
<path d="M50080 36585 c-371 -19 -676 -34 -677 -34 -2 -1 -3 -23 -3 -50 l0
-48 69 -5 c142 -10 298 -123 369 -266 66 -134 63 -28 60 -1902 l-3 -1695 -26
-67 c-36 -92 -80 -158 -149 -222 -75 -69 -150 -106 -245 -119 l-75 -11 0 -42
0 -41 193 -5 c340 -8 1467 -10 1625 -3 l152 8 0 43 c0 42 -1 44 -30 44 -193 0
-382 157 -457 380 -17 53 -18 142 -21 2063 l-2 2007 -53 -1 c-28 -1 -356 -16
-727 -34z"/>
<path d="M52115 36585 c-368 -19 -671 -34 -673 -34 -2 -1 -2 -22 0 -48 l3 -48
73 -7 c194 -17 372 -191 418 -407 21 -103 20 -3367 -1 -3460 -26 -107 -70
-186 -149 -265 -84 -85 -159 -125 -263 -140 l-73 -10 0 -41 0 -42 227 -6 c291
-9 1449 -9 1616 0 l127 6 0 44 c0 41 -1 43 -30 43 -160 0 -339 121 -415 281
-69 145 -65 5 -65 2192 l0 1977 -62 -1 c-35 -1 -364 -16 -733 -34z"/>
<path d="M43833 36584 c-562 -68 -1075 -337 -1415 -743 -276 -331 -439 -720
-499 -1196 -19 -149 -17 -542 5 -695 57 -421 192 -763 423 -1075 86 -116 293
-323 406 -407 396 -293 853 -438 1382 -438 344 0 538 50 955 245 266 125 350
147 402 105 34 -26 69 -111 76 -182 l5 -58 58 0 59 0 0 558 c0 306 -3 601 -7
655 l-6 98 -49 -3 -49 -3 -35 -105 c-95 -286 -261 -555 -484 -783 -215 -222
-443 -362 -673 -414 -100 -22 -291 -22 -382 1 -92 23 -254 103 -336 165 -300
228 -543 687 -639 1206 -57 311 -80 687 -62 1027 27 523 109 883 276 1223 150
303 305 486 527 620 378 228 834 130 1247 -269 230 -222 432 -540 528 -831
l38 -116 50 3 51 3 3 510 c2 281 0 579 -3 663 l-7 152 -53 0 -52 0 -5 -58 c-7
-71 -42 -156 -76 -182 -15 -12 -40 -20 -64 -20 -44 0 -178 48 -324 116 -249
116 -506 202 -689 229 -125 19 -426 18 -582 -1z"/>
<path d="M21690 36501 l0 -48 66 -6 c81 -6 180 -53 271 -127 170 -138 383
-446 530 -764 38 -83 563 -1420 1175 -2991 67 -170 137 -350 157 -400 l36 -90
136 -3 c101 -2 139 1 146 10 10 12 121 295 618 1568 119 305 249 638 290 740
40 102 150 383 245 625 95 242 196 494 226 560 140 311 344 611 506 746 83 69
192 121 272 128 l61 6 3 48 3 47 -585 0 -586 0 0 -50 0 -50 40 0 c57 0 99 -20
141 -67 126 -140 131 -480 12 -848 -31 -97 -267 -705 -642 -1660 -65 -165
-151 -385 -192 -488 l-73 -188 -92 233 c-371 941 -801 2061 -829 2157 -47 164
-65 285 -65 430 0 146 16 228 62 314 39 72 88 108 158 115 l50 5 0 48 0 49
-1070 0 -1070 0 0 -49z"/>
<path d="M29810 36527 c-41 -13 -100 -36 -130 -52 -70 -38 -187 -155 -222
-221 -145 -273 -6 -602 305 -719 232 -87 499 -33 667 134 174 174 205 422 76
616 -79 119 -215 214 -357 249 -96 24 -245 20 -339 -7z"/>
<path d="M62620 36527 c-41 -13 -100 -36 -130 -52 -70 -38 -187 -155 -222
-221 -145 -273 -6 -602 305 -719 232 -87 499 -33 667 134 196 196 208 470 30
677 -75 87 -214 169 -328 193 -89 19 -237 13 -322 -12z"/>
<path d="M60936 35760 c-183 -309 -483 -558 -795 -659 -98 -32 -236 -57 -363
-67 l-88 -6 0 -44 0 -44 215 0 215 0 0 -943 c0 -992 3 -1080 45 -1270 43 -194
118 -338 236 -456 108 -109 209 -164 387 -213 107 -30 441 -33 542 -5 200 54
376 192 468 365 l31 57 -33 23 c-18 12 -36 22 -42 22 -5 0 -20 -19 -34 -41
-39 -64 -124 -147 -172 -169 -30 -14 -65 -20 -119 -20 -160 0 -252 92 -308
311 -37 147 -41 260 -41 1316 l0 1023 255 0 255 0 0 45 0 45 -255 0 -255 0 0
415 0 415 -42 0 -43 0 -59 -100z"/>
<path d="M29750 35064 c-360 -18 -656 -33 -657 -33 -2 -1 -3 -20 -3 -44 l0
-43 78 -12 c194 -30 335 -163 404 -382 l23 -75 0 -915 c0 -1011 3 -962 -66
-1107 -44 -93 -125 -181 -206 -225 -56 -31 -150 -58 -200 -58 -32 0 -33 -1
-33 -43 l0 -44 227 -6 c291 -9 1449 -9 1616 0 l127 6 0 42 0 42 -57 6 c-226
21 -414 225 -443 480 -6 47 -10 589 -10 1265 l0 1182 -72 -1 c-40 -1 -368 -16
-728 -35z"/>
<path d="M62560 35064 c-360 -18 -656 -33 -657 -33 -2 -1 -3 -20 -3 -44 l0
-43 78 -12 c194 -30 335 -163 404 -382 l23 -75 0 -915 c0 -1011 3 -962 -66
-1107 -73 -152 -205 -253 -363 -276 l-76 -11 0 -41 0 -42 227 -6 c291 -9 1449
-9 1616 0 l127 6 0 42 0 41 -76 11 c-191 27 -332 159 -405 378 l-24 70 -3
1238 -3 1237 -72 -1 c-40 -1 -367 -16 -727 -35z"/>
<path d="M27200 35079 c-627 -52 -1120 -427 -1310 -998 -63 -188 -75 -272 -75
-531 1 -196 4 -239 23 -330 64 -293 182 -517 381 -724 214 -221 479 -367 798
-438 135 -30 519 -33 658 -5 316 64 569 199 790 421 218 219 343 445 406 734
26 122 37 442 20 577 -25 196 -93 405 -182 560 -62 109 -134 201 -239 305
-255 254 -573 395 -966 429 -131 12 -165 12 -304 0z m240 -99 c286 -45 431
-304 497 -890 25 -220 25 -848 0 -1070 -31 -278 -88 -507 -160 -645 -42 -79
-137 -174 -209 -208 -125 -59 -295 -58 -424 2 -210 98 -329 392 -375 926 -15
178 -15 751 0 915 52 562 164 835 384 935 87 40 181 51 287 35z"/>
<path d="M32710 35080 c-685 -50 -1199 -415 -1385 -984 -59 -184 -69 -260 -69
-536 -1 -277 9 -350 70 -536 159 -489 575 -846 1127 -966 90 -20 131 -22 347
-23 196 0 262 4 332 18 314 64 588 233 750 462 42 59 108 175 108 189 0 4 -75
36 -85 36 -2 0 -23 -37 -47 -82 -61 -120 -190 -247 -313 -310 -233 -119 -483
-148 -680 -79 -129 45 -260 147 -359 278 -82 108 -184 311 -225 449 -124 421
-117 1057 15 1454 91 274 236 441 438 506 142 46 345 35 527 -27 140 -48 286
-139 348 -218 l31 -39 -93 -4 c-122 -7 -189 -33 -268 -106 -84 -77 -111 -134
-117 -242 -6 -121 19 -183 107 -271 77 -77 145 -108 256 -116 171 -13 333 74
402 215 25 51 28 67 28 162 0 91 -4 113 -26 168 -47 110 -92 175 -190 272
-193 192 -436 302 -727 330 -117 11 -145 11 -302 0z"/>
<path d="M35608 35079 c-676 -52 -1170 -468 -1306 -1100 -68 -313 -50 -718 44
-981 151 -423 487 -742 932 -888 195 -63 283 -75 552 -75 206 1 248 4 340 24
359 77 661 297 809 588 28 56 27 60 -15 78 -49 20 -50 20 -65 -17 -23 -55
-104 -171 -160 -227 -221 -224 -638 -314 -904 -196 -358 158 -598 639 -622
1248 l-6 157 943 0 943 0 -6 133 c-15 354 -130 652 -342 884 -201 220 -471
342 -825 373 -128 11 -157 11 -312 -1z m247 -100 c215 -40 339 -234 394 -617
20 -137 41 -403 41 -517 l0 -60 -478 -3 c-262 -2 -505 0 -539 3 l-63 7 0 96
c0 224 41 512 96 680 79 243 193 369 367 407 78 17 109 18 182 4z"/>
<path d="M38681 35079 c-505 -41 -926 -259 -1071 -554 -61 -123 -73 -186 -67
-345 7 -199 45 -297 178 -458 118 -143 272 -256 697 -511 543 -326 664 -421
734 -577 30 -68 37 -207 14 -269 -56 -146 -174 -217 -361 -216 -173 0 -347 62
-532 190 -285 195 -501 461 -603 741 l-28 75 -56 3 -55 3 2 -543 2 -543 55 0
55 0 7 68 c12 121 68 197 146 197 48 0 129 -30 292 -108 163 -78 355 -151 475
-178 66 -16 121 -19 320 -19 211 1 253 4 345 24 542 117 850 448 827 888 -11
210 -83 362 -246 523 -105 104 -218 182 -576 395 -494 295 -649 406 -745 533
-66 89 -92 157 -92 249 1 125 60 216 181 277 253 129 718 41 991 -187 l75 -62
-90 -6 c-121 -8 -190 -36 -266 -107 -84 -77 -111 -134 -117 -242 -5 -109 18
-177 89 -254 91 -100 201 -143 341 -133 145 10 269 90 331 216 29 60 32 74 32
161 0 117 -25 197 -94 302 -85 129 -220 244 -388 329 -233 119 -494 163 -802
138z"/>
<path d="M47494 35079 c-264 -23 -522 -113 -738 -256 -121 -80 -286 -241 -370
-361 -233 -334 -320 -761 -246 -1207 101 -602 574 -1074 1205 -1202 128 -26
511 -26 638 0 545 111 983 489 1151 993 83 251 99 597 40 881 -100 488 -457
892 -939 1066 -106 38 -285 75 -420 86 -134 12 -189 12 -321 0z m256 -99 c321
-51 468 -380 511 -1145 12 -214 7 -545 -12 -745 -38 -416 -125 -703 -253 -835
-137 -140 -364 -173 -553 -80 -224 110 -337 423 -373 1030 -19 323 -8 723 26
985 56 426 162 654 347 745 102 50 192 63 307 45z"/>
<path d="M54985 35080 c-498 -28 -907 -251 -1147 -625 -281 -436 -317 -1132
-83 -1610 70 -144 141 -241 265 -366 216 -216 468 -351 785 -419 127 -28 447
-39 590 -21 404 51 749 274 915 592 l40 76 -46 18 c-25 9 -46 16 -48 14 -1 -2
-8 -17 -15 -34 -27 -63 -124 -196 -179 -245 -216 -195 -576 -279 -827 -195
-106 35 -184 84 -278 174 -238 228 -380 618 -403 1109 l-7 142 944 0 944 0 -7
147 c-16 376 -152 693 -394 923 -258 245 -588 346 -1049 320z m223 -100 c127
-30 217 -109 288 -255 73 -151 118 -414 131 -767 l6 -178 -489 0 c-269 0 -513
3 -541 6 l-53 7 0 66 c0 109 19 328 40 456 65 406 211 626 440 664 75 12 127
12 178 1z"/>
<path d="M58248 35080 c-544 -46 -990 -298 -1231 -698 -103 -170 -172 -380
-197 -594 -16 -135 -8 -438 15 -563 19 -108 81 -298 126 -386 195 -389 570
-673 1019 -773 197 -43 555 -47 735 -8 309 68 592 248 739 471 44 67 100 171
94 176 -10 8 -69 35 -77 35 -6 0 -18 -16 -26 -36 -29 -70 -106 -173 -182 -244
-181 -169 -506 -264 -742 -216 -144 29 -262 96 -377 213 -191 193 -321 500
-370 873 -20 151 -23 543 -5 700 83 721 383 1034 901 939 87 -16 208 -58 291
-101 81 -41 194 -128 221 -170 l17 -26 -92 -4 c-122 -7 -190 -33 -268 -106
-84 -77 -111 -134 -117 -242 -3 -70 0 -95 18 -142 25 -67 99 -154 164 -192
124 -73 308 -73 432 0 65 38 139 125 164 192 30 79 25 210 -12 300 -119 289
-438 525 -797 587 -109 19 -308 26 -443 15z"/>
<path d="M68588 35080 c-285 -24 -541 -110 -758 -255 -85 -57 -248 -213 -307
-295 -146 -201 -233 -429 -269 -704 -22 -166 -14 -479 15 -620 123 -595 546
-1009 1171 -1147 137 -30 460 -38 620 -15 335 49 639 225 812 471 42 59 108
175 108 189 0 5 -82 38 -84 34 -1 -2 -22 -39 -47 -83 -30 -55 -72 -108 -134
-171 -82 -82 -102 -97 -205 -148 -135 -65 -244 -94 -390 -102 -132 -8 -224 10
-335 65 -286 142 -495 493 -569 961 -13 77 -35 339 -36 413 0 16 52 17 945 17
l945 0 0 78 c0 376 -147 746 -393 985 -254 248 -640 364 -1089 327z m319 -122
c84 -31 168 -118 221 -228 51 -105 76 -201 102 -386 21 -149 45 -526 36 -551
-5 -12 -84 -14 -540 -11 -294 2 -537 5 -540 8 -3 3 -1 86 4 183 36 651 189
964 495 1011 56 8 164 -4 222 -26z"/>
<path d="M63610 34986 l0 -43 52 -7 c230 -31 480 -264 728 -681 105 -177 165
-305 530 -1125 183 -410 364 -816 402 -903 l71 -158 106 3 106 3 29 59 c16 33
195 433 398 890 397 894 480 1069 585 1243 248 410 481 631 701 665 l72 12 0
43 0 43 -585 0 -585 0 0 -44 0 -43 45 -6 c63 -9 100 -31 135 -79 115 -158 93
-498 -58 -884 -52 -134 -363 -824 -371 -824 -11 0 -351 773 -393 892 -141 400
-144 711 -8 847 22 22 47 34 90 43 l60 12 0 43 0 43 -1055 0 -1055 0 0 -44z"/>
</g>
</svg>
