<?xml version="1.0" standalone="no"?>
<!DOCTYPE svg PUBLIC "-//W3C//DTD SVG 20010904//EN"
 "http://www.w3.org/TR/2001/REC-SVG-20010904/DTD/svg10.dtd">
<svg version="1.0" xmlns="http://www.w3.org/2000/svg"
 width="558.000000pt" height="447.000000pt" viewBox="0 0 558.000000 447.000000"
 preserveAspectRatio="xMidYMid meet">

<g transform="translate(0.000000,447.000000) scale(0.100000,-0.100000)"
fill="#000000" stroke="none">
<path d="M412 4333 c3 -27 5 -28 80 -35 153 -14 199 -43 215 -136 4 -26 8
-562 8 -1192 0 -1125 0 -1146 -20 -1184 -29 -58 -61 -77 -151 -88 -151 -19
-144 -17 -144 -43 l0 -25 505 0 505 0 0 25 c0 26 10 23 -145 44 -88 12 -119
29 -150 82 -19 33 -20 55 -23 612 l-3 577 260 0 c225 0 260 -2 255 -15 -5 -12
14 -15 123 -17 l128 -3 3 -418 2 -418 53 3 52 3 -3 522 -3 522 103 98 c426
406 583 556 650 621 l76 75 391 -384 391 -383 0 -538 0 -538 55 0 55 0 0 420
0 420 115 0 116 0 -3 -557 c-3 -535 -4 -560 -23 -598 -26 -52 -86 -82 -180
-90 -127 -11 -135 -13 -135 -40 l0 -25 530 0 530 0 0 25 c0 26 -6 28 -125 40
-131 13 -184 50 -204 145 -8 35 -11 413 -11 1240 l0 1190 33 0 c62 0 313 -21
372 -31 126 -21 218 -86 281 -198 32 -58 79 -192 95 -270 11 -58 13 -61 40
-61 l29 0 0 325 0 325 -1045 0 -1045 0 0 -267 0 -268 -129 129 -129 129 -94
-90 c-51 -49 -212 -204 -358 -344 -146 -140 -336 -320 -423 -402 l-158 -147
-332 2 -332 3 0 525 c0 521 0 525 22 573 29 63 77 85 202 94 l91 6 0 28 0 29
-501 0 -500 0 3 -27z m3498 -699 l0 -635 -27 19 c-16 11 -189 179 -385 372
-265 260 -358 358 -358 375 0 12 12 63 26 111 64 221 146 319 300 359 59 15
234 31 372 34 l72 1 0 -636z"/>
<path d="M2240 2280 l0 -650 525 0 525 0 0 650 0 650 -525 0 -525 0 0 -650z
m938 -8 l2 -542 -412 2 -413 3 -3 530 c-1 292 0 536 3 543 3 10 91 12 412 10
l408 -3 3 -543z"/>
<path d="M378 1043 c-2 -70 -2 -179 0 -240 l3 -113 64 0 65 0 -2 238 -3 237
-62 3 -62 3 -3 -128z"/>
<path d="M772 1149 c-88 -44 -138 -143 -130 -253 6 -66 32 -128 70 -163 27
-25 117 -67 125 -59 4 3 1 6 -5 6 -6 0 -19 15 -29 33 -15 26 -18 59 -18 187 0
173 7 222 36 251 25 25 5 25 -49 -2z"/>
<path d="M947 1148 c31 -36 34 -51 34 -222 0 -162 -6 -203 -38 -238 -20 -22
-15 -22 30 -3 91 38 147 120 155 225 5 81 -22 154 -76 201 -57 51 -145 81
-105 37z"/>
<path d="M1260 990 c0 -200 6 -228 59 -273 32 -26 88 -47 126 -47 17 1 17 3
-6 15 -48 26 -53 54 -57 278 l-3 207 -60 0 -59 0 0 -180z"/>
<path d="M1893 1150 c-41 -25 -60 -55 -69 -106 -8 -54 9 -107 46 -137 16 -14
65 -34 112 -47 46 -12 93 -31 106 -43 31 -28 30 -80 -3 -112 -29 -30 -21 -32
22 -5 61 37 92 146 60 210 -19 37 -69 66 -148 85 -120 30 -163 92 -104 150 29
30 21 32 -22 5z"/>
<path d="M2304 1156 c-3 -7 -3 -116 -1 -242 l4 -229 61 -3 61 -3 3 123 c2 68
1 177 -2 243 l-5 120 -58 2 c-41 2 -59 -1 -63 -11z"/>
<path d="M2550 1167 c0 -3 17 -22 38 -43 21 -22 45 -50 55 -64 16 -25 17 -24
14 40 l-2 65 -52 3 c-29 2 -53 1 -53 -1z"/>
<path d="M3033 1162 l-43 -3 0 -60 c0 -33 4 -59 10 -59 6 0 10 4 10 9 0 5 16
33 35 61 20 29 34 53 33 54 -2 1 -22 0 -45 -2z"/>
<path d="M3160 928 l0 -238 60 0 60 0 0 234 0 234 -60 4 -60 3 0 -237z"/>
<path d="M3383 1109 l42 -61 3 47 c4 67 -1 75 -47 75 l-40 0 42 -61z"/>
<path d="M3630 1138 c-74 -46 -112 -114 -114 -206 -1 -86 23 -150 75 -197 38
-34 54 -43 107 -60 l24 -7 -20 20 c-36 36 -44 87 -40 259 3 150 5 164 26 192
30 41 11 40 -58 -1z"/>
<path d="M3813 1158 c36 -28 47 -81 47 -235 0 -162 -9 -215 -43 -238 -31 -22
-4 -18 48 6 86 40 134 124 135 232 0 79 -18 128 -63 175 -35 37 -96 72 -124
72 -16 0 -16 -1 0 -12z"/>
<path d="M4137 1163 c-4 -3 -7 -111 -7 -240 l0 -233 65 0 65 0 0 240 0 240
-58 0 c-32 0 -62 -3 -65 -7z"/>
<path d="M4637 1164 c-4 -4 -7 -112 -7 -241 l0 -233 65 0 65 0 -2 238 -3 237
-55 3 c-31 2 -59 0 -63 -4z"/>
<path d="M5018 1145 c-88 -46 -128 -119 -128 -234 0 -124 72 -213 190 -235
l35 -7 -26 15 c-51 29 -64 76 -64 226 0 147 16 216 58 245 20 14 21 15 2 15
-11 -1 -41 -12 -67 -25z"/>
<path d="M5260 1161 c-31 -4 -40 -8 -28 -13 9 -4 31 -31 47 -60 l31 -53 0 68
c0 37 -1 66 -2 65 -2 0 -23 -4 -48 -7z"/>
<path d="M80 925 l0 -235 65 0 64 0 3 113 c2 61 2 167 0 235 l-3 122 -65 0
-64 0 0 -235z"/>
<path d="M2097 1108 c19 -29 37 -55 39 -57 2 -2 4 21 4 52 l0 57 -39 0 -40 0
36 -52z"/>
<path d="M4359 1141 c30 -56 24 -208 -10 -242 -19 -19 -19 -19 9 -19 46 0 115
41 135 80 24 46 18 112 -14 147 -26 28 -77 53 -109 53 -17 0 -19 -3 -11 -19z"/>
<path d="M2538 983 c-7 -15 -27 -34 -43 -42 -21 -10 -25 -16 -15 -19 22 -7 60
-44 60 -59 0 -7 5 -13 10 -13 6 0 10 33 10 80 0 44 -2 80 -4 80 -3 0 -11 -12
-18 -27z"/>
<path d="M2652 811 c-7 -21 -30 -59 -53 -85 l-41 -46 56 0 56 0 0 85 c0 47 -2
85 -3 85 -2 0 -9 -17 -15 -39z"/>
<path d="M1820 755 c0 -62 5 -67 90 -79 l45 -7 -31 15 c-35 16 -69 59 -79 99
-12 45 -25 30 -25 -28z"/>
<path d="M5415 785 c-14 -13 -25 -36 -25 -50 0 -30 32 -65 60 -65 27 0 70 43
70 70 0 25 -42 70 -65 70 -9 0 -27 -11 -40 -25z"/>
<path d="M820 210 l0 -100 58 0 c66 0 102 19 102 55 0 13 -9 30 -20 38 -18 13
-19 16 -5 27 21 18 19 57 -4 70 -11 5 -45 10 -75 10 l-56 0 0 -100z m124 57
c15 -25 -18 -49 -64 -45 -32 3 -35 6 -38 36 l-3 33 47 -3 c32 -2 50 -9 58 -21z
m-10 -70 c11 -8 17 -23 14 -38 -3 -21 -8 -24 -55 -27 l-53 -3 0 34 c0 18 3 37
7 40 11 12 68 8 87 -6z"/>
<path d="M1090 210 l0 -100 70 0 c40 0 70 4 70 10 0 6 -27 10 -60 10 l-60 0 0
39 0 40 53 4 52 3 -52 2 -53 2 0 35 0 35 54 0 c30 0 58 5 61 10 4 6 -20 10
-64 10 l-71 0 0 -100z"/>
<path d="M1340 210 l0 -100 65 0 c37 0 65 4 65 10 0 6 -25 10 -55 10 l-55 0 0
90 c0 53 -4 90 -10 90 -6 0 -10 -40 -10 -100z"/>
<path d="M1587 299 c-28 -16 -49 -74 -41 -115 9 -46 45 -74 99 -74 36 0 48 5
69 31 57 68 15 169 -71 169 -21 0 -46 -5 -56 -11z m106 -27 c22 -19 23 -89 1
-120 -18 -26 -84 -31 -104 -7 -18 21 -24 89 -10 114 22 41 74 47 113 13z"/>
<path d="M1850 210 c0 -60 4 -100 10 -100 6 0 10 35 10 85 0 47 3 85 8 85 4 0
30 -39 57 -85 70 -119 85 -116 85 15 0 124 -18 134 -22 13 l-3 -88 -53 88
c-38 61 -59 87 -73 87 -17 0 -19 -8 -19 -100z"/>
<path d="M2165 286 c-20 -20 -25 -35 -25 -76 0 -69 29 -100 95 -100 69 0 85
12 85 65 l0 45 -47 -2 c-37 -1 -40 -2 -15 -5 30 -4 32 -7 32 -43 0 -34 -3 -39
-30 -45 -72 -16 -122 57 -87 129 18 39 57 53 101 36 21 -8 27 -7 24 2 -3 8
-26 14 -56 16 -44 3 -56 -1 -77 -22z"/>
<path d="M2615 298 c-3 -7 -16 -44 -29 -83 -13 -38 -27 -78 -31 -87 -12 -29
13 -20 27 10 12 24 19 27 62 27 45 0 50 -2 60 -27 6 -16 17 -28 24 -28 8 0 12
4 10 8 -1 4 -19 49 -38 100 -30 79 -38 92 -58 92 -12 0 -25 -6 -27 -12z m52
-60 l20 -53 -39 -3 c-22 -2 -42 -1 -45 1 -6 7 30 107 38 107 3 0 15 -24 26
-52z"/>
<path d="M2840 210 c0 -77 3 -101 13 -97 9 3 11 26 8 85 -2 51 1 82 7 82 6 0
31 -36 58 -81 67 -115 91 -119 87 -12 -1 32 -2 73 -2 91 -1 17 -5 32 -11 32
-5 0 -11 -38 -12 -85 l-3 -84 -51 82 c-35 56 -57 83 -72 85 -21 3 -22 0 -22
-98z"/>
<path d="M3138 278 c11 -18 29 -49 41 -68 11 -19 21 -50 21 -67 0 -18 5 -33
10 -33 6 0 10 14 10 32 0 17 16 60 35 96 20 35 34 67 31 69 -10 10 -28 -11
-46 -53 -11 -24 -23 -44 -27 -44 -4 0 -21 23 -36 50 -16 28 -35 50 -43 50 -13
0 -12 -5 4 -32z"/>
<path d="M3383 294 c3 -11 15 -56 27 -101 20 -73 25 -83 45 -83 21 0 25 8 40
78 29 128 33 127 65 -25 10 -46 15 -53 35 -53 26 0 29 7 56 133 11 51 8 80 -6
65 -3 -2 -12 -40 -21 -84 -25 -123 -29 -120 -64 34 -10 44 -15 52 -35 52 -20
0 -25 -8 -39 -71 -9 -39 -16 -80 -16 -90 0 -11 -4 -19 -10 -19 -8 0 -19 32
-47 139 -4 19 -14 36 -22 39 -9 3 -11 -2 -8 -14z"/>
<path d="M3774 297 c-10 -28 1 -180 14 -185 8 -2 12 11 12 47 l0 51 65 0 65 0
0 -50 c0 -27 5 -50 10 -50 6 0 10 40 10 100 0 60 -4 100 -10 100 -5 0 -10 -18
-10 -40 l0 -40 -65 0 -65 0 0 40 c0 39 -15 54 -26 27z"/>
<path d="M4070 210 l0 -100 70 0 c40 0 70 4 70 10 0 6 -25 10 -55 10 l-55 0 0
39 0 40 53 4 52 3 -52 2 -53 2 0 35 0 35 55 0 c30 0 55 5 55 10 0 6 -30 10
-70 10 l-70 0 0 -100z"/>
<path d="M4320 210 c0 -60 4 -100 10 -100 6 0 10 18 10 40 0 39 1 40 33 40 28
0 37 -6 56 -40 12 -22 29 -40 37 -40 11 0 9 10 -10 43 -25 42 -25 43 -6 55 27
17 28 77 1 92 -11 5 -45 10 -75 10 l-56 0 0 -100z m120 65 c10 -12 10 -21 2
-40 -10 -21 -18 -25 -57 -25 l-45 0 0 40 0 40 44 0 c27 0 48 -6 56 -15z"/>
<path d="M4580 210 l0 -100 71 0 c44 0 68 4 64 10 -3 5 -31 10 -61 10 l-54 0
0 40 0 40 53 2 52 1 -50 6 c-48 6 -50 8 -53 39 l-3 32 55 0 c31 0 56 5 56 10
0 6 -28 10 -65 10 l-65 0 0 -100z"/>
<path d="M347 213 c51 -2 135 -2 185 0 51 1 10 3 -92 3 -102 0 -143 -2 -93 -3z"/>
<path d="M5013 213 c54 -2 139 -2 190 0 51 1 7 3 -98 3 -104 0 -146 -2 -92 -3z"/>
</g>
</svg>
