<?xml version="1.0" encoding="UTF-8"?>
<svg version="1.1" xmlns="http://www.w3.org/2000/svg" width="32" height="32">
<path d="M0 0 C0.90315837 12.35988949 0.90315837 12.35988949 -1.125 16.04296875 C-3.64316209 18.27914915 -5.81601217 18.98160122 -9.125 19.3125 C-10.07375 19.209375 -11.0225 19.10625 -12 19 C-13.32 19 -14.64 19 -16 19 C-16.99 19 -17.98 19 -19 19 C-19.75679172 6.57179819 -19.75679172 6.57179819 -17.375 1.625 C-11.82037415 -1.04944948 -6.0524991 -0.36855543 0 0 Z M-12 6 C-10.515 6.99 -10.515 6.99 -9 8 C-9.66 8.45375 -10.32 8.9075 -11 9.375 C-11.66 9.91125 -12.32 10.4475 -13 11 C-13 11.66 -13 12.32 -13 13 C-11.00045254 13.04254356 -8.99958364 13.04080783 -7 13 C-5.64381501 11.87465895 -5.64381501 11.87465895 -5.9375 8.9375 C-5.958125 7.968125 -5.97875 6.99875 -6 6 C-7.98 6 -9.96 6 -12 6 Z " fill="#166B2E" transform="translate(25,7)"/>
</svg>
