<?xml version="1.0" standalone="no"?>
<!DOCTYPE svg PUBLIC "-//W3C//DTD SVG 20010904//EN"
 "http://www.w3.org/TR/2001/REC-SVG-20010904/DTD/svg10.dtd">
<svg version="1.0" xmlns="http://www.w3.org/2000/svg"
 width="408.000000pt" height="184.000000pt" viewBox="0 0 408.000000 184.000000"
 preserveAspectRatio="xMidYMid meet">

<g transform="translate(0.000000,184.000000) scale(0.100000,-0.100000)"
fill="#000000" stroke="none">
<path d="M762 1526 c-34 -32 -37 -38 -36 -90 0 -62 18 -90 71 -112 45 -19 83
-17 117 5 38 26 55 57 56 104 0 78 -50 127 -130 127 -32 0 -48 -7 -78 -34z
m90 -18 c-9 -9 -12 -7 -12 12 0 19 3 21 12 12 9 -9 9 -15 0 -24z m74 -25 c-10
-10 -19 5 -10 18 6 11 8 11 12 0 2 -7 1 -15 -2 -18z m-136 7 c0 -5 -4 -10 -10
-10 -5 0 -10 5 -10 10 0 6 5 10 10 10 6 0 10 -4 10 -10z m90 -15 c7 -8 10 -26
6 -40 -3 -14 -9 -37 -12 -52 -14 -60 -46 -63 -57 -5 -3 15 -9 40 -13 56 -5 22
-3 32 11 43 25 17 50 17 65 -2z m-102 -37 c-6 -18 -28 -21 -28 -4 0 9 7 16 16
16 9 0 14 -5 12 -12z m170 -6 c2 -7 -3 -12 -12 -12 -9 0 -16 7 -16 16 0 17 22
14 28 -4z m-158 -41 c0 -6 -4 -13 -10 -16 -5 -3 -10 1 -10 9 0 9 5 16 10 16 6
0 10 -4 10 -9z m138 -10 c3 -8 -1 -12 -9 -9 -7 2 -15 10 -17 17 -3 8 1 12 9 9
7 -2 15 -10 17 -17z"/>
<path d="M2686 1520 c-39 -12 -73 -46 -87 -87 -46 -139 131 -242 236 -138 104
105 -5 271 -149 225z m105 -69 c20 -20 29 -39 29 -61 0 -37 -47 -90 -80 -90
-82 0 -119 92 -61 151 18 17 40 29 56 29 16 0 38 -12 56 -29z"/>
<path d="M2919 1526 c-2 -2 -3 -52 -1 -109 3 -97 5 -108 28 -130 33 -33 91
-43 138 -23 51 21 66 62 66 176 l0 91 -27 -3 -28 -3 -3 -95 c-2 -82 -5 -97
-23 -112 -28 -23 -54 -23 -79 2 -17 17 -20 33 -20 115 0 93 -1 95 -23 95 -13
0 -26 -2 -28 -4z"/>
<path d="M3182 1503 c3 -26 6 -28 41 -25 l37 4 0 -111 0 -111 30 0 30 0 0 110
0 110 40 0 c36 0 40 3 40 25 l0 25 -111 0 -110 0 3 -27z"/>
<path d="M3440 1395 l0 -135 24 0 c23 0 25 4 28 53 l3 52 58 3 57 3 0 -56 c0
-55 0 -56 27 -53 l27 3 -1 130 -2 130 -26 3 c-24 3 -25 1 -25 -52 l0 -56 -60
0 -60 0 0 55 c0 52 -1 55 -25 55 l-25 0 0 -135z"/>
<path d="M1845 1508 c-2 -7 -3 -67 -2 -133 l2 -120 28 -3 c26 -3 27 -1 27 41
0 30 6 49 18 60 17 16 21 13 60 -43 36 -50 47 -60 72 -60 17 0 30 3 30 6 0 4
-22 37 -50 74 -27 37 -50 71 -50 76 0 5 23 32 52 61 l52 53 -36 0 c-32 0 -42
-7 -83 -55 -26 -30 -51 -55 -56 -55 -5 0 -9 25 -9 55 0 52 -1 55 -25 55 -14 0
-28 -6 -30 -12z"/>
<path d="M2110 1385 l0 -135 30 0 c28 0 30 2 30 39 0 38 0 38 48 45 85 11 123
57 101 123 -15 46 -52 63 -139 63 l-70 0 0 -135z m148 73 c30 -30 -3 -78 -55
-78 -33 0 -33 1 -33 45 l0 45 38 0 c21 0 43 -5 50 -12z"/>
<path d="M2372 1468 c17 -29 40 -64 50 -77 13 -17 18 -41 18 -83 0 -59 0 -59
28 -56 26 3 27 6 32 64 4 52 12 72 53 132 l47 72 -33 0 c-29 0 -36 -6 -62 -50
-16 -27 -32 -50 -37 -50 -4 0 -19 22 -35 50 -25 44 -32 50 -60 50 l-33 0 32
-52z"/>
<path d="M600 1395 c0 -29 34 -36 44 -9 8 21 -1 34 -25 34 -14 0 -19 -7 -19
-25z"/>
<path d="M1481 1326 c-9 -10 -8 -16 4 -26 19 -16 41 1 32 24 -8 20 -21 20 -36
2z"/>
<path d="M470 1284 c0 -10 84 -84 94 -84 6 0 -6 16 -25 36 l-34 37 35 -7 c50
-9 80 -47 80 -101 0 -93 -99 -139 -169 -78 -32 28 -47 69 -16 43 8 -7 15 -9
15 -4 -1 10 -46 64 -55 64 -13 0 -3 -58 15 -87 50 -82 160 -82 210 0 51 84 -9
187 -108 187 -23 0 -42 -3 -42 -6z"/>
<path d="M440 1265 c0 -6 18 -29 40 -50 74 -72 36 -93 -40 -22 l-45 42 43 -45
c23 -25 42 -54 42 -65 0 -15 3 -16 12 -7 7 7 20 12 30 12 10 0 18 5 18 10 0 6
7 10 15 10 21 0 19 -37 -2 -50 -16 -9 -15 -10 7 -8 18 2 25 8 23 23 -1 11 4
23 10 27 8 5 7 8 -4 8 -9 0 -19 7 -23 15 -3 8 -12 15 -21 15 -9 0 -36 21 -60
48 -25 26 -45 42 -45 37z"/>
<path d="M1510 1180 c-35 -38 -45 -79 -30 -125 21 -64 99 -100 160 -75 40 16
33 23 -9 9 -60 -21 -117 14 -138 83 -10 36 -9 44 10 73 12 18 33 40 47 49 21
13 22 16 7 16 -11 0 -32 -14 -47 -30z"/>
<path d="M1630 1200 c8 -5 20 -10 25 -10 6 0 3 5 -5 10 -8 5 -19 10 -25 10 -5
0 -3 -5 5 -10z"/>
<path d="M1704 1112 c0 -20 -3 -50 -8 -67 -6 -23 -5 -27 4 -19 16 15 25 88 13
108 -6 11 -9 5 -9 -22z"/>
<path d="M2590 1112 c-60 -61 -26 -152 57 -152 62 1 100 46 89 105 -8 41 -34
64 -79 72 -31 5 -40 1 -67 -25z m110 -12 c28 -28 26 -75 -5 -105 -30 -30 -54
-31 -89 -4 -52 41 -23 129 44 129 17 0 39 -9 50 -20z"/>
<path d="M2760 1128 c0 -7 14 -31 30 -52 21 -28 30 -51 30 -78 0 -21 5 -38 10
-38 6 0 10 16 10 35 0 24 11 50 35 84 36 49 41 61 28 61 -5 0 -21 -20 -36 -45
-16 -25 -32 -45 -35 -45 -4 0 -20 20 -35 45 -30 47 -37 53 -37 33z"/>
<path d="M2950 1050 c0 -58 4 -90 11 -90 7 0 10 23 9 63 -3 87 -3 87 32 34
l31 -48 31 48 31 47 3 -72 c4 -104 22 -89 22 18 0 56 -4 90 -10 90 -6 0 -25
-22 -42 -50 -17 -27 -34 -47 -38 -45 -5 3 -21 25 -37 50 -15 25 -31 45 -35 45
-5 0 -8 -40 -8 -90z"/>
<path d="M3170 1050 l0 -90 65 0 c37 0 65 4 65 10 0 6 -25 10 -55 10 -54 0
-55 0 -55 30 0 29 2 30 45 30 25 0 45 5 45 10 0 6 -20 10 -45 10 -43 0 -45 1
-45 30 0 29 1 30 49 30 28 0 53 5 56 10 4 6 -18 10 -59 10 l-66 0 0 -90z"/>
<path d="M3340 1050 c0 -107 18 -122 22 -19 l3 71 55 -71 c30 -39 58 -71 63
-71 4 0 7 41 7 90 0 106 -18 122 -22 20 l-3 -71 -55 71 c-30 38 -58 70 -62 70
-5 0 -8 -40 -8 -90z"/>
<path d="M3530 1130 c0 -5 14 -10 30 -10 l30 0 0 -80 c0 -47 4 -80 10 -80 6 0
10 33 10 80 0 78 1 80 24 80 14 0 28 5 31 10 4 6 -20 10 -64 10 -41 0 -71 -4
-71 -10z"/>
<path d="M754 1074 c-19 -157 40 -369 151 -539 33 -50 116 -145 127 -145 3 0
6 17 6 38 0 33 -1 34 -9 13 -8 -20 -12 -21 -25 -10 -21 17 -144 204 -144 219
0 6 -9 27 -19 48 -10 20 -30 84 -45 142 -32 133 -33 227 -1 183 10 -13 10 -21
2 -31 -8 -10 -7 -12 3 -10 8 2 20 -10 28 -25 18 -36 100 -117 120 -117 14 0
103 44 130 65 7 6 23 20 34 33 12 12 26 22 31 22 4 0 31 19 58 42 27 22 52 39
55 35 3 -3 -6 -23 -20 -44 -14 -20 -26 -42 -26 -47 0 -5 -7 -14 -17 -21 -10
-8 -12 -14 -5 -18 8 -6 142 199 142 218 0 3 -64 -43 -142 -103 -195 -148 -222
-166 -252 -158 -13 3 -40 27 -59 53 -37 51 -97 168 -97 189 0 7 -4 15 -9 19
-5 3 -13 -20 -17 -51z"/>
<path d="M915 1105 c-35 -34 -33 -78 5 -117 26 -25 36 -29 63 -24 41 8 77 48
77 87 0 43 -39 79 -85 79 -25 0 -44 -8 -60 -25z m107 -12 c20 -18 23 -40 8
-79 -10 -25 -12 -26 -24 -9 -8 11 -18 15 -26 10 -10 -6 -9 -11 6 -23 18 -13
17 -14 -11 -8 -35 8 -68 43 -60 63 3 8 5 20 5 27 0 15 36 34 64 35 11 1 28 -6
38 -16z"/>
<path d="M1860 1045 l0 -85 68 2 67 2 -57 3 -58 4 0 34 c0 34 0 34 53 38 l52
3 -53 2 -53 2 3 33 c3 31 5 32 58 38 l55 6 -67 1 -68 2 0 -85z"/>
<path d="M2030 1045 c0 -101 18 -115 22 -17 l3 67 29 -43 c28 -41 31 -43 44
-25 7 10 22 29 32 43 l19 25 1 -67 c0 -39 4 -68 10 -68 6 0 10 35 10 85 0 47
-4 85 -10 85 -5 0 -23 -21 -41 -46 -17 -25 -34 -42 -38 -37 -4 4 -19 25 -35
46 -15 20 -31 37 -37 37 -5 0 -9 -38 -9 -85z"/>
<path d="M2250 1045 c0 -50 4 -85 10 -85 6 0 10 14 10 30 0 27 3 30 33 30 45
0 77 25 77 59 0 39 -17 51 -77 51 l-53 0 0 -85z m100 61 c6 -8 10 -25 8 -38
-2 -19 -10 -23 -45 -26 l-43 -3 0 40 c0 40 1 41 34 41 18 0 39 -7 46 -14z"/>
<path d="M2420 1045 l0 -85 61 0 c33 0 58 4 55 9 -3 5 -26 6 -51 3 l-45 -5 0
82 c0 47 -4 81 -10 81 -6 0 -10 -35 -10 -85z"/>
<path d="M1550 1075 c0 -8 5 -15 10 -15 6 0 10 7 10 15 0 8 -4 15 -10 15 -5 0
-10 -7 -10 -15z"/>
<path d="M1626 1075 c-3 -8 -1 -15 4 -15 6 0 10 7 10 15 0 8 -2 15 -4 15 -2 0
-6 -7 -10 -15z"/>
<path d="M661 952 c-14 -95 -26 -329 -17 -321 4 4 12 69 17 145 6 77 15 143
20 148 12 13 12 93 0 100 -5 3 -14 -29 -20 -72z"/>
<path d="M692 895 c0 -16 2 -22 5 -12 2 9 2 23 0 30 -3 6 -5 -1 -5 -18z"/>
<path d="M1284 877 c-89 -101 -190 -330 -201 -457 l-6 -57 50 7 c218 35 395
162 496 357 26 50 47 95 47 99 0 4 -22 -16 -49 -44 -82 -86 -243 -179 -353
-206 -23 -5 -28 -3 -28 11 0 31 37 175 65 251 15 41 25 76 22 78 -2 3 -22 -15
-43 -39z"/>
<path d="M1161 859 c-23 -37 -27 -54 -11 -44 6 3 10 11 10 17 0 6 7 20 17 30
9 10 13 21 10 24 -3 4 -15 -9 -26 -27z"/>
<path d="M701 844 c0 -11 3 -14 6 -6 3 7 2 16 -1 19 -3 4 -6 -2 -5 -13z"/>
<path d="M2725 850 c-46 -10 -73 -31 -89 -70 -46 -116 82 -213 192 -144 18 12
22 24 22 64 l0 50 -50 0 c-43 0 -50 -3 -50 -20 0 -15 7 -20 26 -20 21 0 25 -4
22 -22 -2 -19 -10 -24 -41 -26 -51 -4 -77 19 -77 67 0 69 52 102 111 70 17 -8
23 -7 34 8 8 10 10 22 6 26 -14 14 -74 24 -106 17z"/>
<path d="M3255 853 c-15 -3 -32 -31 -65 -111 -25 -58 -46 -110 -48 -114 -2 -5
7 -8 21 -8 16 0 28 8 35 25 10 22 18 25 66 25 49 0 54 -2 60 -25 5 -18 13 -25
31 -25 14 0 25 2 25 5 0 9 -92 220 -98 226 -4 3 -16 3 -27 2z m24 -94 c16 -46
14 -49 -19 -49 -34 0 -34 1 -18 47 15 41 23 42 37 2z"/>
<path d="M3608 843 c-8 -10 -23 -33 -34 -50 -10 -18 -22 -33 -26 -33 -4 0 -19
20 -34 45 -21 37 -31 45 -55 45 l-29 0 0 -115 0 -115 25 0 c23 0 24 3 27 78
l3 77 28 -47 c15 -27 31 -48 35 -48 4 0 21 22 37 48 l30 47 3 -77 c3 -76 4
-78 28 -78 l25 0 -3 118 c-3 109 -4 117 -24 120 -11 2 -27 -5 -36 -15z"/>
<path d="M1860 729 c0 -119 0 -120 23 -117 18 2 23 10 25 41 3 36 4 37 45 37
63 1 104 43 91 95 -11 45 -49 65 -120 65 l-64 0 0 -121z m124 65 c32 -32 11
-64 -41 -64 -32 0 -33 1 -33 40 0 38 2 40 29 40 16 0 37 -7 45 -16z"/>
<path d="M2090 737 c0 -63 3 -116 6 -119 3 -3 14 -4 25 -1 14 4 19 14 19 39 0
29 3 34 24 34 16 0 31 -12 48 -37 18 -27 33 -38 52 -39 32 -2 32 1 1 42 -14
18 -25 35 -25 38 0 3 12 17 26 31 21 21 25 32 20 58 -10 52 -37 67 -122 67
l-74 0 0 -113z m131 63 c41 -22 9 -70 -47 -70 -32 0 -34 2 -34 33 0 19 3 37 7
40 10 10 52 8 74 -3z"/>
<path d="M2384 831 c-90 -55 -57 -196 51 -217 102 -19 181 96 126 184 -34 54
-117 70 -177 33z m125 -47 c24 -30 26 -55 10 -87 -16 -30 -28 -37 -66 -37 -43
0 -77 42 -69 85 13 64 87 87 125 39z"/>
<path d="M2910 735 l0 -115 25 0 c22 0 24 4 22 37 -2 32 1 38 19 41 15 2 28
-8 47 -38 20 -29 34 -40 52 -40 31 0 31 3 0 44 l-25 33 25 23 c32 30 34 81 3
110 -18 16 -35 20 -95 20 l-73 0 0 -115z m128 66 c8 -4 12 -19 10 -32 -2 -17
-12 -25 -38 -31 -19 -4 -41 -5 -47 -3 -14 5 -18 57 -6 68 9 10 65 8 81 -2z"/>
<path d="M502 824 c-45 -31 -19 -104 37 -104 54 0 82 68 43 103 -23 21 -51 22
-80 1z m78 -19 c31 -38 -27 -96 -65 -65 -18 15 -20 51 -3 68 17 17 53 15 68
-3z"/>
<path d="M380 811 c0 -7 18 -48 41 -91 39 -76 149 -210 172 -210 6 0 -12 24
-40 53 -53 55 -106 128 -98 136 3 2 16 -6 30 -19 14 -13 27 -21 30 -18 3 3
-13 21 -36 39 -23 18 -55 53 -71 78 -15 25 -28 39 -28 32z"/>
<path d="M1126 785 c-9 -26 -7 -32 5 -12 6 10 9 21 6 23 -2 3 -7 -2 -11 -11z"/>
<path d="M1326 759 c-14 -11 -26 -31 -26 -43 0 -28 39 -66 68 -66 29 0 62 34
62 65 0 29 -32 65 -59 65 -10 0 -30 -9 -45 -21z"/>
<path d="M1082 688 c-13 -28 -21 -59 -20 -67 2 -9 14 12 27 47 28 78 24 89 -7
20z"/>
<path d="M549 640 c13 -11 31 -20 40 -20 9 0 3 8 -17 20 -41 25 -54 25 -23 0z"/>
<path d="M1042 552 c-17 -74 -14 -99 4 -32 8 30 13 61 12 70 -2 8 -9 -9 -16
-38z"/>
<path d="M3100 478 c-11 -12 -20 -31 -20 -42 0 -12 -3 -31 -6 -43 -4 -14 -2
-23 5 -23 6 0 13 12 17 28 4 15 14 33 23 40 14 11 14 14 1 22 -12 8 -12 10 3
16 9 3 17 10 17 15 0 16 -19 10 -40 -13z"/>
<path d="M3546 491 c-13 -21 -37 -113 -32 -119 11 -10 22 11 35 66 12 50 11
76 -3 53z"/>
<path d="M3597 493 c-13 -22 -34 -124 -25 -121 14 5 48 117 38 123 -5 3 -11 2
-13 -2z"/>
<path d="M1927 430 l-15 -60 40 0 c41 0 88 34 88 65 0 25 -38 55 -69 55 -27 0
-30 -4 -44 -60z m67 34 c19 -7 21 -45 4 -62 -7 -7 -23 -12 -36 -12 -19 0 -22
4 -17 23 4 12 9 30 11 40 6 18 13 21 38 11z"/>
<path d="M2080 480 c0 -5 5 -10 10 -10 6 0 10 5 10 10 0 6 -4 10 -10 10 -5 0
-10 -4 -10 -10z"/>
<path d="M2250 480 c0 -5 5 -10 10 -10 6 0 10 5 10 10 0 6 -4 10 -10 10 -5 0
-10 -4 -10 -10z"/>
<path d="M2470 466 c-16 -42 -23 -96 -12 -96 5 0 16 27 25 60 14 58 6 84 -13
36z"/>
<path d="M2582 478 c-19 -19 -15 -36 13 -54 34 -22 32 -36 -5 -32 -16 1 -30
-2 -30 -7 0 -6 17 -10 38 -10 32 0 37 3 40 26 2 19 -3 28 -23 37 -32 15 -23
36 12 27 18 -4 24 -2 21 7 -6 18 -50 22 -66 6z"/>
<path d="M2677 433 c-18 -65 -14 -79 12 -44 l19 24 6 -21 c10 -31 28 -27 20 3
-4 18 -1 32 11 45 15 17 16 20 3 20 -9 0 -23 -10 -32 -22 -17 -23 -17 -22 -11
15 9 57 -10 44 -28 -20z"/>
<path d="M2800 479 c0 -5 5 -7 10 -4 6 3 10 8 10 11 0 2 -4 4 -10 4 -5 0 -10
-5 -10 -11z"/>
<path d="M2836 436 c-19 -63 -19 -66 -7 -66 5 0 17 24 25 54 19 63 19 66 7 66
-5 0 -17 -24 -25 -54z"/>
<path d="M2891 446 c-6 -24 -14 -51 -17 -61 -5 -12 -3 -16 6 -13 12 4 39 76
40 106 0 29 -19 8 -29 -32z"/>
<path d="M3407 433 c-38 -56 -43 -80 -9 -50 23 21 61 22 68 2 11 -27 26 -16
20 15 -3 17 -9 44 -12 60 -3 17 -11 30 -17 30 -7 -1 -29 -26 -50 -57z m53 7
c0 -11 -7 -20 -15 -20 -18 0 -19 12 -3 28 16 16 18 15 18 -8z"/>
<path d="M2295 463 c-4 -10 -10 -35 -12 -55 -3 -33 -1 -38 16 -38 12 0 21 5
21 10 0 6 -5 10 -11 10 -14 0 0 43 17 53 12 7 12 10 0 23 -19 18 -22 18 -31
-3z"/>
<path d="M2061 423 c-13 -47 -13 -53 -1 -53 5 0 14 17 19 38 13 46 13 52 1 52
-5 0 -14 -17 -19 -37z"/>
<path d="M2120 445 c-21 -25 -8 -59 25 -66 25 -5 27 -7 12 -14 -9 -4 -26 -5
-37 -2 -23 6 -27 -11 -5 -19 37 -15 64 5 80 58 8 28 15 52 15 53 0 0 -18 1
-39 2 -23 1 -44 -4 -51 -12z m56 -16 c10 -17 -23 -46 -37 -32 -7 7 -9 19 -6
27 7 18 33 21 43 5z"/>
<path d="M2231 423 c-13 -47 -13 -53 -1 -53 5 0 14 17 19 38 13 46 13 52 1 52
-5 0 -14 -17 -19 -37z"/>
<path d="M2365 450 c-4 -6 5 -10 19 -10 14 0 26 -4 26 -10 0 -5 -13 -10 -29
-10 -17 0 -31 -6 -35 -16 -9 -24 2 -34 38 -34 31 0 34 3 40 35 4 20 4 40 1 45
-8 13 -52 13 -60 0z m35 -49 c0 -14 -18 -23 -30 -16 -6 4 -8 11 -5 16 8 12 35
12 35 0z"/>
<path d="M2781 429 c-13 -39 -14 -59 -2 -59 5 0 12 12 15 28 4 15 9 35 12 45
9 31 -14 18 -25 -14z"/>
<path d="M2947 453 c-12 -12 -7 -41 8 -47 26 -10 17 -27 -11 -20 -19 5 -25 4
-20 -5 11 -17 56 -13 63 5 4 10 -1 22 -11 30 -20 14 -13 36 9 27 8 -3 15 0 15
6 0 12 -42 15 -53 4z"/>
<path d="M3157 442 c-30 -33 -15 -72 29 -72 29 0 46 23 42 57 -4 35 -45 44
-71 15z m53 -22 c0 -23 -26 -38 -41 -23 -14 14 0 43 22 43 12 0 19 -7 19 -20z"/>
<path d="M3260 421 c-12 -44 -12 -51 -1 -51 5 0 14 14 20 30 5 17 17 33 26 36
23 9 18 19 -10 20 -20 2 -26 -4 -35 -35z"/>
</g>
</svg>
