<?xml version="1.0" standalone="no"?>
<!DOCTYPE svg PUBLIC "-//W3C//DTD SVG 20010904//EN"
 "http://www.w3.org/TR/2001/REC-SVG-20010904/DTD/svg10.dtd">
<svg version="1.0" xmlns="http://www.w3.org/2000/svg"
 width="1375.000000pt" height="1375.000000pt" viewBox="0 0 1375.000000 1375.000000"
 preserveAspectRatio="xMidYMid meet">

<g transform="translate(0.000000,1375.000000) scale(0.100000,-0.100000)"
fill="#000000" stroke="none">
<path d="M6520 13739 c-1429 -73 -2830 -607 -3945 -1503 -298 -239 -726 -657
-954 -931 -532 -639 -931 -1329 -1207 -2087 -466 -1284 -538 -2690 -204 -4018
239 -952 692 -1864 1304 -2625 163 -203 265 -316 505 -556 307 -306 506 -478
816 -704 502 -366 1102 -685 1697 -901 1284 -466 2690 -538 4018 -204 953 240
1864 692 2625 1304 376 302 759 685 1061 1061 462 575 845 1256 1100 1957 466
1284 538 2690 204 4018 -240 953 -692 1863 -1304 2625 -163 203 -265 316 -505
556 -297 297 -474 451 -771 671 -511 379 -1132 712 -1739 933 -860 312 -1789
451 -2701 404z m930 -74 c879 -78 1664 -296 2439 -678 1572 -774 2798 -2145
3396 -3797 538 -1487 538 -3143 0 -4630 -681 -1881 -2163 -3377 -4036 -4073
-592 -220 -1137 -342 -1809 -404 -258 -23 -862 -23 -1120 0 -1155 107 -2157
446 -3105 1050 -1255 800 -2228 2018 -2740 3426 -717 1976 -471 4195 663 5976
848 1332 2149 2340 3643 2823 580 188 1142 289 1809 326 142 8 695 -4 860 -19z"/>
<path d="M6550 13374 c-661 -38 -1290 -165 -1880 -379 -2138 -776 -3719 -2612
-4164 -4835 -90 -453 -120 -764 -121 -1275 0 -396 6 -508 46 -830 135 -1101
574 -2189 1244 -3080 605 -805 1380 -1455 2270 -1905 753 -380 1495 -593 2360
-677 137 -13 274 -17 575 -17 423 0 584 10 930 60 1694 241 3232 1153 4267
2529 654 868 1083 1902 1237 2975 49 342 60 507 61 925 0 397 -6 514 -46 830
-152 1227 -661 2396 -1459 3350 -585 700 -1307 1268 -2115 1665 -736 361
-1469 568 -2290 645 -161 15 -761 28 -915 19z m384 -1169 c16 -3 657 -383
1425 -844 768 -461 1689 -1013 2046 -1226 358 -214 664 -403 682 -421 20 -22
35 -51 42 -84 15 -72 15 -5369 0 -5424 -6 -21 -27 -56 -47 -77 -23 -23 -416
-267 -1042 -647 -879 -533 -1562 -948 -2849 -1732 -429 -262 -378 -253 -626
-103 -1091 663 -2448 1484 -3497 2117 -208 125 -389 241 -402 257 -14 16 -30
46 -36 67 -14 52 -14 5462 1 5515 15 55 60 100 157 159 359 215 2170 1315
3292 1998 748 455 722 440 765 451 30 7 35 6 89 -6z"/>
<path d="M6770 11502 c-36 -21 -229 -139 -430 -262 -539 -329 -1721 -1048
-2315 -1408 -846 -512 -786 -473 -820 -527 l-30 -48 3 -1281 c2 -705 5 -1282
7 -1284 9 -10 118 56 2800 1688 446 271 826 499 845 507 19 9 50 13 71 10 26
-3 235 -126 690 -404 360 -220 1000 -610 1422 -868 547 -333 776 -478 795
-502 l25 -34 5 -384 c3 -211 2 -391 -2 -400 -5 -14 -12 -12 -53 12 -67 38
-1588 962 -2242 1362 -299 183 -561 341 -582 351 -49 25 -109 25 -158 0 -21
-10 -128 -74 -237 -141 -383 -235 -2035 -1239 -2654 -1614 -344 -208 -640
-389 -658 -402 -18 -13 -42 -43 -53 -65 -21 -41 -21 -51 -21 -708 0 -729 -3
-694 59 -752 15 -14 352 -222 748 -461 756 -456 1446 -873 2230 -1349 259
-157 484 -293 502 -302 18 -9 54 -16 81 -16 45 0 64 9 203 93 85 52 453 276
819 499 366 223 886 539 1155 703 648 394 650 395 633 410 -7 7 -314 197 -683
422 -1608 983 -1925 1179 -1925 1188 1 6 136 93 301 194 165 101 302 187 304
191 2 3 -71 51 -163 106 -91 54 -234 141 -317 192 -170 104 -209 120 -259 105
-18 -6 -217 -123 -442 -260 -225 -137 -634 -386 -909 -553 -467 -284 -584
-357 -585 -370 0 -3 80 -52 178 -110 97 -57 220 -133 272 -169 130 -87 182
-111 251 -111 69 0 144 35 244 116 98 79 177 132 242 161 47 22 65 25 127 21
85 -6 128 -26 277 -131 59 -41 309 -198 555 -349 1096 -671 1065 -651 1052
-664 -7 -7 -240 -150 -518 -319 -278 -170 -563 -344 -635 -387 -194 -119 -146
-133 -651 187 -911 576 -1514 953 -1987 1239 -231 140 -314 204 -368 282 -62
91 -85 207 -69 343 13 98 35 155 76 192 16 15 292 185 614 380 505 304 1471
891 2024 1229 147 90 176 104 222 108 29 2 67 0 83 -6 17 -6 214 -123 439
-260 513 -314 822 -502 1747 -1065 1502 -913 1458 -887 1472 -874 4 5 9 582
11 1283 3 1430 9 1317 -71 1375 -22 16 -320 199 -661 406 -887 538 -1738 1055
-2355 1431 -294 179 -553 332 -576 340 -32 10 -52 11 -81 3 -22 -6 -176 -94
-344 -197 -1330 -814 -2537 -1545 -2561 -1551 -16 -5 -17 19 -17 364 0 202 4
385 9 406 6 20 23 53 40 71 17 20 159 112 332 217 477 288 1497 908 2017 1226
261 160 494 296 518 303 34 11 50 11 85 1 23 -7 395 -228 827 -491 2083 -1267
2817 -1710 2835 -1710 10 0 5 826 -5 862 -6 21 -22 51 -37 68 -15 18 -231 153
-522 327 -273 162 -1078 645 -1789 1071 -1474 884 -1341 817 -1462 744z"/>
</g>
</svg>
