<?xml version="1.0" encoding="UTF-8"?>
<svg version="1.1" xmlns="http://www.w3.org/2000/svg" width="327" height="326">
<path d="M0 0 C5.77777778 3.33333333 5.77777778 3.33333333 7 7 C7.45890625 6.59007813 7.9178125 6.18015625 8.390625 5.7578125 C9.00421875 5.21898438 9.6178125 4.68015625 10.25 4.125 C10.85328125 3.59132813 11.4565625 3.05765625 12.078125 2.5078125 C15.1575948 0.0918057 17.10333425 -1.0182993 21.0625 -0.9375 C24 0 24 0 26 2.1875 C27 5 27 5 26.6875 8 C23.90143299 12.95300802 19.2913577 15.2362141 14 17 C14.79921875 16.78859375 15.5984375 16.5771875 16.421875 16.359375 C20.22354124 15.66329527 23.16372939 15.42600472 27 16 C29.81475673 18.20076249 31.94078183 20.41717661 34.24462891 23.11376953 C38.21550545 27.62227379 42.12710289 29.80088057 47.625 32.125 C54.51996906 35.1092474 54.51996906 35.1092474 56.4609375 38.7109375 C56.9494219 41.23831331 57.16808639 43.4366825 57 46 C57.08636719 45.40832031 57.17273438 44.81664062 57.26171875 44.20703125 C58.01111362 39.99254448 58.72239765 37.37513831 61.3125 33.875 C64 32 64 32 66.5625 31.875 C69.91078243 33.42036112 71.20787583 34.76039092 73 38 C72.91267358 43.50156469 71.76910283 47.18416899 69 52 C70.051875 52.0309375 70.051875 52.0309375 71.125 52.0625 C75.39854601 53.45604761 77.61453755 56.26726641 80 60 C80.625 62.6875 80.625 62.6875 80 65 C78.5 67.375 78.5 67.375 76 69 C71.72225544 69.20698764 69.38668342 69.22870683 66.1484375 66.359375 C64.66277994 64.62728135 63.294604 62.87815656 62 61 C62.515625 62.010625 63.03125 63.02125 63.5625 64.0625 C65.77098637 69.18452941 64.45821877 73.79207584 63 79 C64.11375 77.824375 64.11375 77.824375 65.25 76.625 C69.16814159 72.88495575 69.16814159 72.88495575 72 72 C75.13221997 72.15279122 76.53574077 72.58216669 78.875 74.6875 C80.46262137 77.95094393 80.11937714 79.57190752 79 83 C76.07284052 86.49632938 72.99465772 88.83147152 69 91 C69.495 91.639375 69.99 92.27875 70.5 92.9375 C72.49997904 97.02079055 72.89073357 100.5296829 72 105 C69.8125 107.625 69.8125 107.625 67 109 C64.4375 109.0625 64.4375 109.0625 62 108 C58.87182342 104.87182342 57.50213335 102.39366678 57 98 C56.443125 99.60875 56.443125 99.60875 55.875 101.25 C54.13122757 105.40304256 51.87741907 106.8458783 48 109 C48.60328125 108.97679687 49.2065625 108.95359375 49.828125 108.9296875 C50.62734375 108.91164063 51.4265625 108.89359375 52.25 108.875 C53.43335938 108.84019531 53.43335938 108.84019531 54.640625 108.8046875 C57.24614317 109.02037609 58.79986977 109.6078822 61 111 C62.43735246 113.87470493 62.38172649 115.81894588 62 119 C59.82555064 121.66545406 58.22172229 122.84808707 54.76953125 123.27734375 C51.19772745 123.32978459 48.40989404 123.13663135 45 122 C44.98582031 122.59167969 44.97164063 123.18335938 44.95703125 123.79296875 C44.69709683 128.09944984 44.37489196 130.47515126 41.8125 134.0625 C38.49997732 136.34446007 36.94084166 136.5996933 33 136 C30 134 30 134 29.125 130.8125 C28.97402387 126.20772788 29.93412641 124.04911224 32 120 C31.34 120 30.68 120 30 120 C30 120.66 30 121.32 30 122 C28.08245277 124.16766209 26.61740995 124.94792928 23.73046875 125.19140625 C21.47969468 125.18786172 19.24682724 125.12962465 17 125 C18.7578125 125.94401042 20.515625 126.88802083 22.2734375 127.83203125 C24 129 24 129 26 132 C26.4375 134.9375 26.4375 134.9375 26 138 C23.875 140.4375 23.875 140.4375 21 142 C16.99773267 142.08515462 14.68436893 140.98120109 11.625 138.5625 C10.75875 137.716875 9.8925 136.87125 9 136 C9 135.34 9 134.68 9 134 C8.01 134 7.02 134 6 134 C5.773125 134.598125 5.54625 135.19625 5.3125 135.8125 C3.59193332 138.68011113 2.03468112 139.62059949 -1 141 C-4.66558266 141.52365467 -6.30570836 141.44505874 -9.4375 139.4375 C-11 137 -11 137 -11.0625 133.5 C-9.82742309 129.43151134 -8.47090899 128.31393932 -5 126 C-5 125.67 -5 125.34 -5 125 C-5.86882812 125.11085938 -6.73765625 125.22171875 -7.6328125 125.3359375 C-12.081236 124.89212727 -13.9861411 122.76506402 -16.875 119.625 C-17.37257812 119.11710937 -17.87015625 118.60921875 -18.3828125 118.0859375 C-22 114.30975275 -22 114.30975275 -22 112 C-22.804375 111.773125 -23.60875 111.54625 -24.4375 111.3125 C-29.66333431 109.38719262 -35.02651676 106.97348324 -39 103 C-39.6328125 100.8359375 -39.6328125 100.8359375 -40.125 98.375 C-40.29257813 97.55773437 -40.46015625 96.74046875 -40.6328125 95.8984375 C-40.75398438 95.27195312 -40.87515625 94.64546875 -41 94 C-41.09796875 94.67546875 -41.1959375 95.3509375 -41.296875 96.046875 C-41.96356251 100.02401084 -42.52606226 103.24521027 -44.6875 106.6875 C-48.07997168 108.6129569 -50.31166921 107.95623391 -54 107 C-56.66248083 104.33751917 -56.71832705 102.73216655 -57 99 C-55.61702128 92.61702128 -55.61702128 92.61702128 -53 90 C-53.54269531 89.62488281 -54.08539063 89.24976563 -54.64453125 88.86328125 C-62.31739962 83.37476099 -62.31739962 83.37476099 -64 79 C-63.92488332 75.84509951 -63.43957645 74.50720359 -61.375 72.125 C-57.75801637 70.41169196 -55.79972605 70.82077467 -52 72 C-49.68693598 74.12073047 -47.81858936 76.4486457 -46 79 C-46.515625 77.96875 -47.03125 76.9375 -47.5625 75.875 C-49.34464477 72.31071045 -48.95273593 69.83028862 -48 66 C-47.10209199 64.17730051 -46.13905763 62.38572693 -45.125 60.625 C-42.14274527 54.95871602 -40.90766345 49.71650412 -40.11376953 43.43212891 C-39.47974822 38.95163734 -38.62115374 36.74477367 -35 34 C-32.85123763 32.70430434 -30.65962072 31.47791257 -28.4375 30.3125 C-26.73400391 29.40951172 -26.73400391 29.40951172 -24.99609375 28.48828125 C-22 27 -22 27 -19 26 C-19 25.34 -19 24.68 -19 24 C-17.28515625 22.30859375 -17.28515625 22.30859375 -15.0625 20.4375 C-14.33160156 19.81746094 -13.60070312 19.19742188 -12.84765625 18.55859375 C-12.23792969 18.04425781 -11.62820312 17.52992187 -11 17 C-10.505 16.505 -10.505 16.505 -10 16 C-8.48071962 15.92820036 -6.95832518 15.91607993 -5.4375 15.9375 C-4.61121094 15.94652344 -3.78492188 15.95554687 -2.93359375 15.96484375 C-1.97646484 15.98224609 -1.97646484 15.98224609 -1 16 C-1.56589844 15.65066406 -2.13179687 15.30132812 -2.71484375 14.94140625 C-3.44832031 14.48636719 -4.18179688 14.03132813 -4.9375 13.5625 C-5.66839844 13.11003906 -6.39929688 12.65757813 -7.15234375 12.19140625 C-9 11 -9 11 -10 10 C-10.5018797 4.81390977 -10.5018797 4.81390977 -10 2 C-6.66441397 -1.14498111 -4.24948839 -1.55469087 0 0 Z M-3 6 C-3 6.66 -3 7.32 -3 8 C-1.68 8.33 -0.36 8.66 1 9 C0.34 8.01 -0.32 7.02 -1 6 C-1.66 6 -2.32 6 -3 6 Z M18 6 C17.01 6.495 17.01 6.495 16 7 C16.33 7.66 16.66 8.32 17 9 C17.66 8.67 18.32 8.34 19 8 C18.67 7.34 18.34 6.68 18 6 Z M-14 30 C-14 30.66 -14 31.32 -14 32 C-8.555 33.485 -8.555 33.485 -3 35 C-2.01 33.72125 -1.02 32.4425 0 31.125 C0.556875 30.40570313 1.11375 29.68640625 1.6875 28.9453125 C3.18643377 27.1147915 3.18643377 27.1147915 3 25 C-4.5817456 22.47275147 -9.45939017 23.36107806 -14 30 Z M14 25 C14.61454696 28.99455527 16.70646737 31.74466336 19 35 C23.12751449 34.39301257 26.3321148 32.96189209 30 31 C28.17363052 28.46121689 26.31837666 26.10761515 24 24 C20.39332011 23.42293122 17.47016918 23.93225564 14 25 Z M7 32 C5.40651139 33.94614527 5.40651139 33.94614527 3.875 36.375 C3.33617187 37.18710938 2.79734375 37.99921875 2.2421875 38.8359375 C0.8340587 40.87322026 0.8340587 40.87322026 1 43 C-4.2584002 42.32584613 -9.02638346 40.75734451 -14 39 C-15.09506492 42.28519475 -15.09960608 44.73663415 -15.0625 48.1875 C-15.041875 50.105625 -15.02125 52.02375 -15 54 C-21.435 55.98 -21.435 55.98 -28 58 C-26.19659574 62.64223737 -26.19659574 62.64223737 -23.3125 66.0625 C-21 69 -21 69 -21.1640625 70.92578125 C-22.14333232 73.35565169 -23.42232967 75.08545014 -25.0625 77.125 C-27.39093004 79.74762068 -27.39093004 79.74762068 -28 83 C-23.71 84.32 -19.42 85.64 -15 87 C-15 91.62 -15 96.24 -15 101 C-13.63875 100.690625 -12.2775 100.38125 -10.875 100.0625 C-7.24989732 99.23861303 -3.68229369 98.61371562 0 98 C2.64 101.63 5.28 105.26 8 109 C11.28226466 104.92247838 11.28226466 104.92247838 14.25 100.6875 C14.8275 99.800625 15.405 98.91375 16 98 C21.05903908 98.7783137 26.01112439 99.86616463 31 101 C31 96.05 31 91.1 31 86 C32.588125 85.690625 34.17625 85.38125 35.8125 85.0625 C38.64475482 84.51076205 41.25778934 83.91407022 44 83 C42.9313255 79.69682428 41.62835158 77.46563798 39.3125 74.9375 C37 72 37 72 37.1640625 70.07421875 C38.14333232 67.64434831 39.42232967 65.91454986 41.0625 63.875 C43.39093004 61.25237932 43.39093004 61.25237932 44 58 C42.58603098 57.49242138 41.16868271 56.99425075 39.75 56.5 C38.56664062 56.08234375 38.56664062 56.08234375 37.359375 55.65625 C34.76587262 54.82135139 34.76587262 54.82135139 31 55 C31 50.05 31 45.1 31 40 C27.31770631 40.61371562 23.75010268 41.23861303 20.125 42.0625 C19.34382813 42.23910156 18.56265625 42.41570312 17.7578125 42.59765625 C17.17773438 42.73042969 16.59765625 42.86320312 16 43 C15.27683594 41.80890625 15.27683594 41.80890625 14.5390625 40.59375 C13.90742188 39.5728125 13.27578125 38.551875 12.625 37.5 C11.99851563 36.4790625 11.37203125 35.458125 10.7265625 34.40625 C10.15679687 33.6121875 9.58703125 32.818125 9 32 C8.34 32 7.68 32 7 32 Z M-31 40 C-32.75710518 44.12537738 -33.06835978 47.57940104 -33 52 C-31.35303396 51.5247412 -29.70745272 51.04468109 -28.0625 50.5625 C-27.14597656 50.29566406 -26.22945312 50.02882813 -25.28515625 49.75390625 C-23.0597507 49.20973949 -23.0597507 49.20973949 -22 48 C-21.92773498 46.14712498 -21.9161878 44.29166122 -21.9375 42.4375 C-21.94652344 41.42558594 -21.95554687 40.41367188 -21.96484375 39.37109375 C-21.97644531 38.58863281 -21.98804688 37.80617187 -22 37 C-25.36632455 37 -28.2614391 38.11930155 -31 40 Z M39 37 C37.71387324 38.05978933 37.71387324 38.05978933 37.90234375 40.50390625 C37.91394531 41.51324219 37.92554688 42.52257812 37.9375 43.5625 C37.958125 45.356875 37.97875 47.15125 38 49 C43.445 50.485 43.445 50.485 49 52 C50.30381691 49.39236617 49.84136742 48.39942714 49.0625 45.625 C47.74391547 41.76254248 46.4785419 40.23802058 42.8125 38.4375 C41.55383315 37.92722966 40.28600593 37.43681437 39 37 Z M65 40 C64.67 41.65 64.34 43.3 64 45 C64.66 44.34 65.32 43.68 66 43 C65.67 42.01 65.34 41.02 65 40 Z M57 49 C58 52 58 52 58 52 Z M60 58 C61 60 61 60 61 60 Z M68 58 C68.99 59.32 69.98 60.64 71 62 C71.66 61.67 72.32 61.34 73 61 C71.62514468 59.45833358 71.62514468 59.45833358 70 58 C69.34 58 68.68 58 68 58 Z M-37 61 C-40.0329207 66.03427282 -40.0329207 66.03427282 -40.9375 71.6875 C-39.87074676 74.31882465 -38.55809884 76.62898003 -37 79 C-33.65001479 77.88333826 -33.20659778 77.25305075 -31.3125 74.4375 C-30.87550781 73.79683594 -30.43851563 73.15617187 -29.98828125 72.49609375 C-29.66214844 72.00238281 -29.33601563 71.50867188 -29 71 C-30.67028292 67.05205855 -33.1795565 64.18203882 -36 61 C-36.33 61 -36.66 61 -37 61 Z M52 61 C50.78041468 62.47403117 49.59886137 63.97967239 48.4375 65.5 C47.79683594 66.3353125 47.15617187 67.170625 46.49609375 68.03125 C46.00238281 68.6809375 45.50867188 69.330625 45 70 C47.31537955 73.72114571 49.28579473 76.61229661 53 79 C56.08594896 74.55443918 56.08594896 74.55443918 56.9375 69.4375 C55.81250791 66.51252057 54.47760779 63.76248412 53 61 C52.67 61 52.34 61 52 61 Z M-56 78 C-55.34 79.32 -54.68 80.64 -54 82 C-53.34 81.67 -52.68 81.34 -52 81 C-53.32 80.01 -54.64 79.02 -56 78 Z M-45 80 C-44 82 -44 82 -44 82 Z M70 80 C70 80.99 70 81.98 70 83 C70.99 82.01 71.98 81.02 73 80 C72.01 80 71.02 80 70 80 Z M60 81 C61 83 61 83 61 83 Z M-44 82 C-43 84 -43 84 -43 84 Z M58 85 C59 87 59 87 59 87 Z M-42 87 C-41 91 -41 91 -41 91 Z M-33 89 C-33.23432598 92.54934939 -33.17139789 95.61997525 -32 99 C-28.79225488 101.48641232 -25.85404707 102.53643782 -22 104 C-22 100.04 -22 96.08 -22 92 C-23.44375 91.505 -24.8875 91.01 -26.375 90.5 C-27.18710938 90.2215625 -27.99921875 89.943125 -28.8359375 89.65625 C-30.94209242 88.90326695 -30.94209242 88.90326695 -33 89 Z M38 92 C38 95.63 38 99.26 38 103 C39.92552085 104.21998817 39.92552085 104.21998817 41.91015625 103.609375 C44.3620955 102.63037929 46.05852248 101.80920103 48 100 C49.01043652 96.3179905 49.104911 92.80302358 49 89 C45.54497766 89 41.18126921 91.03353847 38 92 Z M-49 95 C-49.33 96.65 -49.66 98.3 -50 100 C-49.34 99.67 -48.68 99.34 -48 99 C-48.33 97.68 -48.66 96.36 -49 95 Z M64 96 C64.33 97.65 64.66 99.3 65 101 C65.33 100.34 65.66 99.68 66 99 C65.34 98.01 64.68 97.02 64 96 Z M-10.1875 108 C-10.90292969 108.37125 -11.61835938 108.7425 -12.35546875 109.125 C-13.16951172 109.558125 -13.16951172 109.558125 -14 110 C-12.30113087 112.76929481 -10.61710386 115.04739517 -8 117 C-4.51452962 117.32157614 -1.39365554 116.79811267 2 116 C1.14781196 111.99993371 -0.4879358 109.25090661 -3 106 C-6.19610552 106 -7.41717626 106.54671542 -10.1875 108 Z M17.515625 107.42578125 C17.09796875 108.04839844 16.6803125 108.67101562 16.25 109.3125 C15.60804688 110.23482422 15.60804688 110.23482422 14.953125 111.17578125 C13.76845759 113.10012227 13.76845759 113.10012227 14 116 C20.17117912 117.48352603 20.17117912 117.48352603 26 115.80078125 C27.86713141 114.02676641 27.86713141 114.02676641 30 111 C30 110.34 30 109.68 30 109 C28.9275 108.505 27.855 108.01 26.75 107.5 C26.14671875 107.2215625 25.5434375 106.943125 24.921875 106.65625 C22.04019431 105.67226147 19.82154007 105.21088914 17.515625 107.42578125 Z M10 123 C14 124 14 124 14 124 Z M37 125 C36.67 126.32 36.34 127.64 36 129 C36.66 128.67 37.32 128.34 38 128 C37.67 127.01 37.34 126.02 37 125 Z M-4 133 C-3.67 133.66 -3.34 134.32 -3 135 C-2.01 134.01 -1.02 133.02 0 132 C-2.0745356 131.8509288 -2.0745356 131.8509288 -4 133 Z M15 132 C15.99 132.99 16.98 133.98 18 135 C18 134.01 18 133.02 18 132 C17.01 132 16.02 132 15 132 Z " fill="#B2A721" transform="translate(157,85)"/>
<path d="M0 0 C3.86873064 2.80365056 7.57892891 5.77552244 11.28076172 8.79492188 C12.04646484 9.37113281 12.81216797 9.94734375 13.60107422 10.54101562 C31.31370149 24.69150937 42.80952642 47.92525284 47.28076172 69.79492188 C47.45518799 70.61065674 47.62961426 71.4263916 47.80932617 72.2668457 C49.17219775 79.04972012 49.63151517 85.57148541 49.59326172 92.48242188 C49.58907227 93.52825439 49.58488281 94.57408691 49.58056641 95.65161133 C49.45465662 104.36014816 48.44454835 112.35521732 46.28076172 120.79492188 C46.01392578 121.88417969 45.74708984 122.9734375 45.47216797 124.09570312 C43.13247581 132.61218259 39.30456556 140.22973761 35.21386719 148.00927734 C33.86702616 150.58667015 32.5731933 153.18992738 31.28076172 155.79492188 C30.62076172 155.79492188 29.96076172 155.79492188 29.28076172 155.79492188 C29.01263672 156.59929687 28.74451172 157.40367187 28.46826172 158.23242188 C28.07638672 159.07804688 27.68451172 159.92367187 27.28076172 160.79492188 C26.29076172 161.12492188 25.30076172 161.45492187 24.28076172 161.79492188 C23.92666016 163.12289062 23.59613715 164.45722713 23.28076172 165.79492188 C21.90136719 167.54663086 21.90136719 167.54663086 20.14794922 169.29101562 C19.50599609 169.93232422 18.86404297 170.57363281 18.20263672 171.234375 C17.18943359 172.2234082 17.18943359 172.2234082 16.15576172 173.23242188 C15.50349609 173.88791016 14.85123047 174.54339844 14.17919922 175.21875 C3.48633939 185.79492188 3.48633939 185.79492188 -1.71923828 185.79492188 C-2.04923828 186.78492188 -2.37923828 187.77492187 -2.71923828 188.79492188 C-5.18412085 190.23944391 -7.58509453 191.50923481 -10.15673828 192.73242188 C-10.89029541 193.08723633 -11.62385254 193.44205078 -12.37963867 193.80761719 C-14.48651913 194.81750764 -16.60088984 195.80936026 -18.71923828 196.79492188 C-20.04955078 197.42333984 -20.04955078 197.42333984 -21.40673828 198.06445312 C-23.81467788 199.11374625 -26.22319387 199.97630702 -28.71923828 200.79492188 C-29.79560547 201.16617188 -30.87197266 201.53742188 -31.98095703 201.91992188 C-59.82016584 210.46448492 -91.33413192 204.99610558 -116.63867188 191.79345703 C-143.22023123 177.17177624 -162.29097133 152.62783666 -170.96923828 123.73242188 C-178.69609709 94.59572513 -175.44317259 63.66516125 -160.34814453 37.37695312 C-157.37665278 32.66674677 -154.08410011 28.22862217 -150.71923828 23.79492188 C-149.88779297 22.61929688 -149.88779297 22.61929688 -149.03955078 21.41992188 C-144.45400155 15.10107891 -138.87380959 10.54247467 -132.71923828 5.79492188 C-131.93162109 5.1478125 -131.14400391 4.50070313 -130.33251953 3.83398438 C-114.575306 -8.46088179 -97.36154349 -15.23243589 -77.71923828 -18.20507812 C-76.93291016 -18.38683594 -76.14658203 -18.56859375 -75.33642578 -18.75585938 C-49.91962529 -23.11844453 -20.84090135 -14.60816374 0 0 Z M-145.40673828 23.04492188 C-163.46105353 44.6253638 -172.95628169 72.67122437 -170.71923828 100.79492188 C-168.52667919 124.61476447 -160.32119032 145.58087832 -144.71923828 163.79492188 C-143.92646484 164.91640625 -143.92646484 164.91640625 -143.11767578 166.06054688 C-142.65619141 166.63289062 -142.19470703 167.20523438 -141.71923828 167.79492188 C-141.05923828 167.79492188 -140.39923828 167.79492188 -139.71923828 167.79492188 C-139.49751953 168.35695312 -139.27580078 168.91898438 -139.04736328 169.49804688 C-130.42323382 184.41271783 -105.56194157 194.15981628 -89.65673828 198.66992188 C-61.97285871 205.75914874 -31.90911593 200.62016363 -7.25439453 186.86132812 C-2.14517071 183.6723495 2.82130461 180.25437899 7.09326172 175.98242188 C8.98465726 174.09102634 10.91359829 172.43787373 12.96826172 170.73242188 C31.982563 154.08167938 43.71944044 126.92591455 45.48779297 101.86035156 C46.03539328 89.55107891 45.64425583 77.70277603 42.28076172 65.79492188 C41.94044922 64.580625 41.60013672 63.36632812 41.24951172 62.11523438 C32.56086688 33.87713865 14.11315174 11.20174403 -11.96923828 -2.95507812 C-56.99566304 -26.46480576 -112.24406096 -15.325118 -145.40673828 23.04492188 Z " fill="#B2AB20" transform="translate(227.71923828125,62.205078125)"/>
<path d="M0 0 C8.27935283 1.12262411 14.39072006 4.84551482 19.53515625 11.34375 C22.68333719 15.86926011 22.74511883 19.10953793 22.15234375 24.390625 C21.53515625 26.34375 21.53515625 26.34375 18.53515625 28.34375 C14.4686756 28.26981399 12.29388885 28.02045746 9.22265625 25.28125 C7.12848538 21.63584144 6.37181807 18.4573373 5.53515625 14.34375 C4.43107422 14.43076172 4.43107422 14.43076172 3.3046875 14.51953125 C-4.63459482 14.88660507 -4.63459482 14.88660507 -8.71484375 12.21875 C-10.46484375 9.34375 -10.46484375 9.34375 -10.46484375 6.21875 C-8.4617067 0.45973098 -5.71709178 -0.22310602 0 0 Z M-2.46484375 7.34375 C1.53515625 8.34375 1.53515625 8.34375 1.53515625 8.34375 Z M13.53515625 16.34375 C13.86515625 17.99375 14.19515625 19.64375 14.53515625 21.34375 C14.86515625 20.02375 15.19515625 18.70375 15.53515625 17.34375 C14.87515625 17.01375 14.21515625 16.68375 13.53515625 16.34375 Z " fill="#B3A821" transform="translate(120.46484375,192.65625)"/>
<path d="M0 0 C6.36482641 1.20091064 6.36482641 1.20091064 8.9375 4.4375 C11.22949065 12.12240982 10.6815127 19.38235422 7.40234375 26.69921875 C4.57331687 31.34071411 0.71190792 35.21519028 -4.578125 36.74609375 C-7 37 -7 37 -9.8125 36 C-12 34 -12 34 -12.5625 30.625 C-11.91068735 26.42442961 -11.06487886 24.90356945 -8 22 C-4.75 20.1875 -4.75 20.1875 -2 19 C-2.309375 18.360625 -2.61875 17.72125 -2.9375 17.0625 C-4.32372858 13.06689997 -5.35398466 9.25551123 -5 5 C-2.5625 1.9375 -2.5625 1.9375 0 0 Z M2 8 C2.33 9.65 2.66 11.3 3 13 C3.33 11.68 3.66 10.36 4 9 C3.34 8.67 2.68 8.34 2 8 Z M-4 27 C-4.33 27.66 -4.66 28.32 -5 29 C-4.01 28.67 -3.02 28.34 -2 28 C-2.66 27.67 -3.32 27.34 -4 27 Z " fill="#B2A821" transform="translate(106,116)"/>
<path d="M0 0 C3.04609368 2.09842009 4.696887 3.66719432 5.53125 7.3359375 C5.78436751 9.56477778 5.94627299 11.75811834 6 14 C6.99 13.67 7.98 13.34 9 13 C14.4179817 12.65045279 17.52629521 12.61082971 22 16 C23 17 23 17 23.3125 19.8125 C23 23 23 23 21.625 25.375 C17.47234161 27.94569329 13.7457345 27.77509131 9 27 C1.23891526 24.42814494 -4.05939676 20.07279321 -8.13671875 13.0390625 C-9.61463841 9.54822964 -9.2994901 6.77357522 -9 3 C-6.89535441 -0.74159216 -4.00213365 -0.64034138 0 0 Z M-3 7 C-2.34 8.65 -1.68 10.3 -1 12 C-0.67 11.34 -0.34 10.68 0 10 C-0.33 9.01 -0.66 8.02 -1 7 C-1.66 7 -2.32 7 -3 7 Z M13 19 C12.67 19.66 12.34 20.32 12 21 C13.32 20.67 14.64 20.34 16 20 C15.01 19.67 14.02 19.34 13 19 Z " fill="#B2A721" transform="translate(196,90)"/>
<path d="M0 0 C2.36812182 2.67368592 2.98323163 4.24542313 3.0625 7.8125 C0.77926544 14.66220368 -4.18750202 19.88281393 -10 24 C-14.96910759 26.37161953 -20.57130374 26.83311675 -26 26 C-28.2734375 24.6640625 -28.2734375 24.6640625 -30 23 C-30.61678704 19.37637615 -30.50181843 17.71412623 -28.375 14.6875 C-25.41987638 12.5878069 -23.622797 12.14207047 -20 12 C-16.125 12.9375 -16.125 12.9375 -13 14 C-12.97421875 13.40832031 -12.9484375 12.81664063 -12.921875 12.20703125 C-12.54454807 6.95018101 -11.94197007 3.82251643 -8 0 C-5.00422405 -1.49788797 -3.16806651 -0.90516186 0 0 Z M-5 6 C-5.33 7.65 -5.66 9.3 -6 11 C-5.34 10.34 -4.68 9.68 -4 9 C-4.33 8.01 -4.66 7.02 -5 6 Z M-22 18 C-22.33 18.66 -22.66 19.32 -23 20 C-21.35 20 -19.7 20 -18 20 C-19.32 19.34 -20.64 18.68 -22 18 Z " fill="#B2A821" transform="translate(142,90)"/>
<path d="M0 0 C1.65 0.33 3.3 0.66 5 1 C5.65234375 2.74609375 5.65234375 2.74609375 6 5 C5.00390625 7.03515625 5.00390625 7.03515625 3.5625 9.0625 C1.31828949 12.17885278 1.31828949 12.17885278 1 16 C2.9375006 18.18777466 2.9375006 18.18777466 5 20 C5.53109375 19.2059375 6.0621875 18.411875 6.609375 17.59375 C7.31578125 16.5728125 8.0221875 15.551875 8.75 14.5 C9.44609375 13.4790625 10.1421875 12.458125 10.859375 11.40625 C11.56578125 10.6121875 12.2721875 9.818125 13 9 C17.37451315 9 18.00472003 9.40377603 21.25 12 C21.95640625 12.556875 22.6628125 13.11375 23.390625 13.6875 C23.92171875 14.120625 24.4528125 14.55375 25 15 C24.67 16.32 24.34 17.64 24 19 C22.68 19.33 21.36 19.66 20 20 C19.67 21.65 19.34 23.3 19 25 C17.35 24.67 15.7 24.34 14 24 C14.33 24.33 14.66 24.66 15 25 C15.36442233 26.66014616 15.69972883 28.32706064 16 30 C14.02 30.99 14.02 30.99 12 32 C10.49428343 30.88266271 8.99555708 29.75589965 7.5 28.625 C6.6646875 27.99851562 5.829375 27.37203125 4.96875 26.7265625 C4.3190625 26.15679687 3.669375 25.58703125 3 25 C3 24.34 3 23.68 3 23 C2.13375 22.9175 1.2675 22.835 0.375 22.75 C-3.47734858 21.89392254 -5.848219 20.32631454 -9 18 C-8.45207105 13.3817417 -6.41035512 10.01850353 -3.9375 6.1875 C-3.56044922 5.59001953 -3.18339844 4.99253906 -2.79492188 4.37695312 C-1.87010434 2.91363423 -0.93597935 1.45620477 0 0 Z " fill="#B2A821" transform="translate(230,31)"/>
<path d="M0 0 C1.2684375 0.12375 1.2684375 0.12375 2.5625 0.25 C4.77164 3.56371 4.78731553 4.5946021 4.6875 8.4375 C4.66945312 9.33855469 4.65140625 10.23960938 4.6328125 11.16796875 C4.59800781 12.19857422 4.59800781 12.19857422 4.5625 13.25 C6.5425 13.91 8.5225 14.57 10.5625 15.25 C10.69527344 14.25097656 10.82804688 13.25195312 10.96484375 12.22265625 C11.14144531 10.93230469 11.31804687 9.64195313 11.5 8.3125 C11.67402344 7.02472656 11.84804687 5.73695312 12.02734375 4.41015625 C12.5625 1.25 12.5625 1.25 13.5625 0.25 C15.58214199 0.17755947 17.60417124 0.16622812 19.625 0.1875 C20.72972656 0.19652344 21.83445313 0.20554687 22.97265625 0.21484375 C23.82730469 0.22644531 24.68195313 0.23804688 25.5625 0.25 C26.36203138 3.53696233 26.65908936 4.96023192 25.5625 8.25 C24.58036103 12.72418865 24.61941678 15.77035473 25.5625 20.25 C21.8205627 21.16847552 18.75862477 21.22963087 14.9375 20.8125 C9.12469018 20.24997002 3.39810403 20.14661331 -2.4375 20.25 C-3.68341555 16.40348294 -3.58531806 12.55946388 -3.5625 8.5625 C-3.56636719 7.87349609 -3.57023438 7.18449219 -3.57421875 6.47460938 C-3.56220448 0.36535431 -3.56220448 0.36535431 0 0 Z " fill="#B2A820" transform="translate(157.4375,14.75)"/>
<path d="M0 0 C1 1 1 1 1.25 4.375 C1 8 1 8 -0.5 9.9375 C-0.995 10.288125 -1.49 10.63875 -2 11 C-1.195625 11.226875 -0.39125 11.45375 0.4375 11.6875 C1.283125 12.120625 2.12875 12.55375 3 13 C3.8125 15.625 3.8125 15.625 4 18 C-2.1399567 21.06997835 -8.23238872 22.05542371 -15 23 C-18.0078125 19.25 -18.0078125 19.25 -17.9375 17 C-16.73895537 14.44310478 -15.0814699 12.88003733 -13 11 C-13.78375 11.04125 -14.5675 11.0825 -15.375 11.125 C-18 11 -18 11 -20 9 C-20.125 6.375 -20.125 6.375 -20 4 C-13.42927581 1.70024653 -7.03913809 -0.51505888 0 0 Z " fill="#B2A821" transform="translate(301,117)"/>
<path d="M0 0 C3.26185668 1.46718051 3.76989612 4.13815194 5.0625 7.30859375 C6.36728203 11.10169903 7.2366779 14.93088901 7.9453125 18.875 C4.1875 20.8984375 4.1875 20.8984375 2.0078125 20.6875 C-0.53797749 19.68461303 -2.75245509 18.34587071 -5.0546875 16.875 C-4.7246875 18.855 -4.3946875 20.835 -4.0546875 22.875 C-7.0546875 24.875 -7.0546875 24.875 -9.0703125 24.890625 C-12.21239703 23.2824715 -12.6274955 20.86591131 -13.8046875 17.625 C-14.44664063 15.91570313 -14.44664063 15.91570313 -15.1015625 14.171875 C-15.97711584 11.14332165 -16.51791734 8.98525748 -16.0546875 5.875 C-13.0546875 3.875 -13.0546875 3.875 -10.6171875 4.0625 C-7.90388853 4.92281431 -6.20855421 6.04022465 -4.0546875 7.875 C-4.3846875 5.895 -4.7146875 3.915 -5.0546875 1.875 C-2.0546875 -0.125 -2.0546875 -0.125 0 0 Z " fill="#B3A820" transform="translate(125.0546875,20.125)"/>
<path d="M0 0 C2.58297781 2.18991597 4.48415844 3.96831688 6 7 C6.37340899 11.94766914 6.22237243 15.11092983 3 19 C-0.65669358 21.07542068 -3.84235546 21.50909933 -8 21 C-11.01333109 19.37743711 -13.26132782 17.89925309 -15.4375 15.25 C-16.33036647 11.67853414 -16.19686215 8.446963 -15 5 C-10.54745838 -0.29631773 -6.63214188 -1.57372858 0 0 Z M-6 7 C-6.66 7.66 -7.32 8.32 -8 9 C-7.6814823 11.10820797 -7.6814823 11.10820797 -7 13 C-5.35 13 -3.7 13 -2 13 C-1.67 11.35 -1.34 9.7 -1 8 C-3.39719432 7.32041397 -3.39719432 7.32041397 -6 7 Z " fill="#B2A821" transform="translate(291,96)"/>
<path d="M0 0 C3.00197464 1.80118478 4.45166366 2.90332732 6 6 C6.26980256 9.57488395 6.2234816 12.34445397 5.0625 15.75 C1.99770646 19.09341113 -1.6070361 20.13822239 -6 21 C-7.99949221 21.04506566 -10.00075127 21.05481346 -12 21 C-14.55508113 7.10674637 -14.55508113 7.10674637 -14 2 C-9.55139766 -0.9657349 -5.21856465 -0.64087636 0 0 Z M-6 6 C-6 8.31 -6 10.62 -6 13 C-4.68 13 -3.36 13 -2 13 C-1.32041397 10.60280568 -1.32041397 10.60280568 -1 8 C-1.66 7.34 -2.32 6.68 -3 6 C-3.99 6 -4.98 6 -6 6 Z " fill="#B2A721" transform="translate(146,17)"/>
<path d="M0 0 C0.66 0.99 1.32 1.98 2 3 C2.721875 2.608125 3.44375 2.21625 4.1875 1.8125 C7 1 7 1 9.6875 2.125 C12.10132332 4.08215404 13.15171585 5.03100546 14 8 C13.74288345 12.11386478 13.1330814 15.19103047 10 18 C6.8125 18.25 6.8125 18.25 4 18 C4 17.01 4 16.02 4 15 C3.01 15.66 2.02 16.32 1 17 C-2.68256285 16.8684799 -5.09748237 16.73329557 -8 14.375 C-9.49183579 10.83189001 -9.03014411 8.66988838 -8 5 C-3.95744681 0 -3.95744681 0 0 0 Z " fill="#B2A820" transform="translate(34,121)"/>
<path d="M0 0 C0.83265381 0.00523682 1.66530762 0.01047363 2.52319336 0.01586914 C3.42231445 0.0190918 4.32143555 0.02231445 5.24780273 0.02563477 C6.66609375 0.03820312 6.66609375 0.03820312 8.11303711 0.05102539 C9.06243164 0.05553711 10.01182617 0.06004883 10.98999023 0.06469727 C13.34356776 0.07652429 15.69702188 0.09300514 18.05053711 0.11352539 C18.63256836 2.50415039 18.63256836 2.50415039 19.05053711 5.11352539 C17.53710056 7.13144079 16.30113844 7.98822473 14.05053711 9.11352539 C14.05053711 12.41352539 14.05053711 15.71352539 14.05053711 19.11352539 C11.98022461 19.95727539 11.98022461 19.95727539 9.05053711 20.11352539 C6.43186899 18.63577077 4.35547429 16.66806796 2.17553711 14.61352539 C1.56967773 14.09532227 0.96381836 13.57711914 0.33959961 13.04321289 C-1.3641756 11.47109303 -2.73004893 10.0870654 -3.94946289 8.11352539 C-3.83720581 0.22345657 -3.83720581 0.22345657 0 0 Z " fill="#B2A821" transform="translate(35.949462890625,102.886474609375)"/>
<path d="M0 0 C3.6578218 2.03993908 5.66946174 3.50419262 8 7 C9.25316456 13.49367089 9.25316456 13.49367089 8 16 C5.6875 15.875 5.6875 15.875 3 15 C1.1875 11.9375 1.1875 11.9375 0 9 C-1.65 9.33 -3.3 9.66 -5 10 C-5 10.99 -5 11.98 -5 13 C-3.2984375 13.6496875 -3.2984375 13.6496875 -1.5625 14.3125 C-0.386875 14.869375 0.78875 15.42625 2 16 C2.33 16.99 2.66 17.98 3 19 C0.9375 20.625 0.9375 20.625 -2 22 C-6.2948243 21.25951305 -9.25393827 20.43058726 -12 17 C-13.48151613 12.34253912 -13.47064683 8.92448485 -11.25 4.5625 C-7.65154714 0.46426202 -5.38433417 -0.63345108 0 0 Z " fill="#B2A821" transform="translate(261,53)"/>
<path d="M0 0 C4.26809284 0.30486377 6.23571906 2.9724542 9 6 C9.556875 6.54140625 10.11375 7.0828125 10.6875 7.640625 C13.84824184 10.88916522 15 12.11271583 15 16.8125 C14 20 14 20 12 22 C5.25716897 21.62539828 -1.59943192 20.14034997 -8 18 C-8.33 17.34 -8.66 16.68 -9 16 C-8.25 13.9375 -8.25 13.9375 -7 12 C-3.30581799 10.768606 -0.7943739 11.35567236 3 12 C2.154375 11.113125 1.30875 10.22625 0.4375 9.3125 C-2.01751739 6.3941413 -2.01751739 6.3941413 -1.875 3.1875 C-1 1 -1 1 0 0 Z " fill="#B2A821" transform="translate(47,77)"/>
<path d="M0 0 C3 2 3 2 5 4 C4.625 6.4375 4.625 6.4375 4 9 C3.01 9.495 3.01 9.495 2 10 C2.33 10.33 2.66 10.66 3 11 C3.26293056 15.03160191 3.29404844 16.55892734 1 20 C-3.8883183 21.22207957 -5.89004507 21.51533622 -10.5 19.375 C-13 17 -13 17 -13.375 14.25 C-13.25125 13.5075 -13.1275 12.765 -13 12 C-12.01 11.67 -11.02 11.34 -10 11 C-10.33 10.34 -10.66 9.68 -11 9 C-11.44036697 3.82568807 -11.44036697 3.82568807 -10 1.125 C-6.7823475 -0.68492953 -3.54129181 -0.65451891 0 0 Z " fill="#B2A820" transform="translate(204,19)"/>
<path d="M0 0 C0 1.32 0 2.64 0 4 C-2.22189824 6.22189824 -4.08482708 6.92598892 -7 8 C-6.67 9.32 -6.34 10.64 -6 12 C-4.68 12 -3.36 12 -2 12 C-1.566875 11.030625 -1.13375 10.06125 -0.6875 9.0625 C1 6 1 6 4 5 C5.6875 7.125 5.6875 7.125 7 10 C5.48138831 14.65074829 3.23122255 17.55529364 -1 20 C-3.80951341 20.60977269 -6.19962332 20.67887919 -9 20 C-11.9375 17.5625 -11.9375 17.5625 -14 15 C-14.33 14.67 -14.66 14.34 -15 14 C-15.58638743 6.96335079 -15.58638743 6.96335079 -13.25 3.125 C-8.65742332 -1.21243353 -6.25168243 -1.20224662 0 0 Z " fill="#B2A821" transform="translate(86,45)"/>
<path d="M0 0 C2.0625 1.48828125 2.0625 1.48828125 4 3.3125 C4.680625 3.93898438 5.36125 4.56546875 6.0625 5.2109375 C7.0215625 6.09652344 7.0215625 6.09652344 8 7 C9.65651812 8.34592097 11.31806068 9.6859849 13 11 C12 14 12 14 9.625 15.25 C7 16 7 16 4 15 C2.26330895 16.65399147 0.88628234 18.17304861 -0.4375 20.1875 C-0.953125 20.785625 -1.46875 21.38375 -2 22 C-3.32 22 -4.64 22 -6 22 C-6.50604924 19.60530271 -7.00499517 17.20948283 -7.5 14.8125 C-7.71462891 13.80219727 -7.71462891 13.80219727 -7.93359375 12.77148438 C-8.6769407 9.14324333 -9.34668251 5.7047445 -9 2 C-6.00877593 -1.3235823 -4.1262566 -1.23107206 0 0 Z " fill="#B2A821" transform="translate(101,33)"/>
<path d="M0 0 C4.57263314 0.42536122 7.99065362 1.80440556 12 4 C12 5.32 12 6.64 12 8 C11.01 8.66 10.02 9.32 9 10 C8.27034634 12.56282742 8.27034634 12.56282742 8 15 C5.03 14.505 5.03 14.505 2 14 C2 14.66 2 15.32 2 16 C3.65 16.33 5.3 16.66 7 17 C7 18.65 7 20.3 7 22 C4.26980214 23.06528748 3.20701188 23.07998186 0.421875 22.00390625 C-0.45984375 21.52824219 -1.3415625 21.05257812 -2.25 20.5625 C-3.14203125 20.08941406 -4.0340625 19.61632812 -4.953125 19.12890625 C-5.62859375 18.75636719 -6.3040625 18.38382813 -7 18 C-6.34422814 13.97594538 -5.08843632 10.49944851 -3.5 6.75 C-3.0565625 5.69296875 -2.613125 4.6359375 -2.15625 3.546875 C-1 1 -1 1 0 0 Z " fill="#B2A821" transform="translate(214,24)"/>
<path d="M0 0 C3.6875 0.5 3.6875 0.5 6.4375 2.9375 C10.00484191 7.89410377 11.6875 13.44491183 11.6875 19.5 C11.13835937 19.62890625 10.58921875 19.7578125 10.0234375 19.890625 C8.36676419 20.32280065 6.72630883 20.81942909 5.1015625 21.359375 C-2.45247214 23.77158774 -2.45247214 23.77158774 -6.875 22.375 C-9.3125 20.5 -9.3125 20.5 -11.3125 17.5 C-10.96608161 14.03581611 -10.27963413 12.45070119 -8.3125 9.5 C-7.6525 9.5 -6.9925 9.5 -6.3125 9.5 C-6.126875 7.829375 -6.126875 7.829375 -5.9375 6.125 C-5.13660629 1.4798165 -4.67151215 0.70513391 0 0 Z M-1.3125 4.5 C-1.99957555 6.99064888 -2.3125 8.87886292 -2.3125 11.5 C-2.951875 11.768125 -3.59125 12.03625 -4.25 12.3125 C-6.64381686 13.38667752 -6.64381686 13.38667752 -7.3125 16.5 C-6.10837699 18.13257536 -6.10837699 18.13257536 -4.3125 19.5 C-2.10237119 19.54081991 -2.10237119 19.54081991 0.1875 18.875 C1.34765625 18.60816406 1.34765625 18.60816406 2.53125 18.3359375 C4.8801416 17.42531648 6.05718177 16.39158718 7.6875 14.5 C6.55713623 11.37413371 5.38050427 8.36674844 3.6875 5.5 C1.0787295 4.2886547 1.0787295 4.2886547 -1.3125 4.5 Z " fill="#B2AB1E" transform="translate(280.3125,201.5)"/>
<path d="M0 0 C4.1491445 4.25287311 4.60788348 8.31431041 5 14 C4.01 14 3.02 14 2 14 C1.67 14.99 1.34 15.98 1 17 C-2.7373856 19.4915904 -4.57331583 19.45793285 -9 19 C-12.22618733 16.9209015 -13.8669302 15.19960471 -16 12 C-16.046875 10.0625 -16.046875 10.0625 -15.75 8 C-15.66234375 7.319375 -15.5746875 6.63875 -15.484375 5.9375 C-14.77916814 3.11667257 -13.59701702 1.38451944 -11.15625 -0.1875 C-7.35915437 -1.61828966 -3.83208122 -1.19048111 0 0 Z M-9.9375 5.125 C-11.35140315 7.62012321 -11.43413997 9.17809019 -11 12 C-7.76746204 14.15502531 -6.74849077 14.46856135 -3 14 C-1 13 -1 13 0 11 C-0.23283149 7.85078091 -0.23283149 7.85078091 -1 5 C-5.61009488 3.82991255 -5.61009488 3.82991255 -9.9375 5.125 Z " fill="#B2AA1F" transform="translate(57,214)"/>
<path d="M0 0 C3.34780672 0.20289738 4.68813672 0.67983618 7.0546875 3.109375 C7.65539062 3.98078125 8.25609375 4.8521875 8.875 5.75 C9.79925781 7.04164062 9.79925781 7.04164062 10.7421875 8.359375 C12.21406311 11.44939957 12.02557114 12.7965306 11 16 C9.845 15.71125 8.69 15.4225 7.5 15.125 C4.57057133 14.72220356 3.31178413 14.82883473 0.6875 16.26953125 C-1.28768553 17.77561021 -3.17019599 19.32105749 -5 21 C-6.953125 20.1640625 -6.953125 20.1640625 -9 19 C-9.75 16.375 -9.75 16.375 -10 14 C-8.71283353 12.99421411 -7.42011342 11.99553202 -6.125 11 C-5.40570313 10.443125 -4.68640625 9.88625 -3.9453125 9.3125 C-2 8 -2 8 0 8 C-0.2784375 6.2984375 -0.2784375 6.2984375 -0.5625 4.5625 C-0.706875 3.386875 -0.85125 2.21125 -1 1 C-0.67 0.67 -0.34 0.34 0 0 Z " fill="#B2A820" transform="translate(272,67)"/>
<path d="M0 0 C1.32 0 2.64 0 4 0 C4.69969682 2.24623699 5.38435043 4.49716414 6.0625 6.75 C6.44535156 8.00296875 6.82820313 9.2559375 7.22265625 10.546875 C7.92656828 13.6738008 8.16653785 15.09466046 7 18 C1.55674846 17.67010597 -1.15587204 14.54262773 -5 11 C-4.34 13.97 -3.68 16.94 -3 20 C-4.32 20 -5.64 20 -7 20 C-9.09448302 14.46458058 -10.02782755 8.81235021 -11 3 C-8.671875 2.359375 -8.671875 2.359375 -6 2 C-2.91382062 4.52505586 -1.26710868 6.19867395 0 10 C0.66 10 1.32 10 2 10 C1.505 8.9171875 1.505 8.9171875 1 7.8125 C-0.00603529 4.98302573 -0.16977402 2.97104534 0 0 Z " fill="#B2A920" transform="translate(197,274)"/>
<path d="M0 0 C3.6286579 3.03622396 4.80828728 4.9072375 5.625 9.5625 C4.83566113 13.90386381 3.41420997 15.28415116 0 18 C-3.1125413 19.9807081 -4.09879637 20 -8 20 C-9.98 14.39 -11.96 8.78 -14 3 C-8.81634676 -0.11019195 -5.85684237 -1.29210627 0 0 Z M-8 4 C-8 7.54065105 -7.88653911 8.74583192 -6.5 11.75 C-6.005 12.8225 -5.51 13.895 -5 15 C-3.05925139 14.72382467 -3.05925139 14.72382467 -1 14 C1.35014158 11.162422 1.35014158 11.162422 0.6875 7.875 C0.29355679 5.11913578 0.29355679 5.11913578 -1 4 C-3.33297433 3.95907063 -5.66705225 3.95758277 -8 4 Z " fill="#B2AA1F" transform="translate(217,270)"/>
<path d="M0 0 C3.22270391 0.04612099 5.51294907 0.23302047 8.1875 2.1875 C10.1875 5.1875 10.1875 5.1875 9.8125 7.375 C9.503125 8.2721875 9.503125 8.2721875 9.1875 9.1875 C6.71949953 8.03576645 5.13966435 7.13966435 3.1875 5.1875 C0.60395782 5.02062552 0.60395782 5.02062552 -1.8125 5.1875 C-3.39956842 9.2952065 -3.91441901 10.77982396 -2.8125 15.1875 C2.6325 14.6925 2.6325 14.6925 8.1875 14.1875 C7.1875 18.1875 7.1875 18.1875 5.5625 19.5 C2.01614672 20.52657595 -0.26303177 20.18384196 -3.8125 19.1875 C-6.97179874 16.29707775 -8.5810607 14.42184295 -9.375 10.1875 C-8.29640344 4.43498502 -5.8601205 0.28820265 0 0 Z " fill="#B2AA1F" transform="translate(135.8125,274.8125)"/>
<path d="M0 0 C1.9375 0 1.9375 0 4 1 C7.15469997 5.35131031 7.31389648 8.76866435 6.51171875 13.875 C5.82167968 16.74050575 4.94136412 18.77102638 3 21 C1.68 21 0.36 21 -1 21 C-4.18438032 17.22591962 -5.18067532 12.85921515 -5 8 C-3.69242902 4.63767462 -2.54050545 2.54050545 0 0 Z " fill="#B2A821" transform="translate(164,123)"/>
<path d="M0 0 C2.3125 0.0625 2.3125 0.0625 5 1 C7.46492289 5.33486439 8.73990087 9.03209419 8 14 C6.25 17.375 6.25 17.375 4 20 C2.68 20 1.36 20 0 20 C-4.41964286 13.57142857 -4.41964286 13.57142857 -3.9375 8.875 C-3.07449548 5.30791467 -2.1245559 2.95590387 0 0 Z " fill="#B2A821" transform="translate(163,167)"/>
<path d="M0 0 C3.01139619 2.27391141 4.5642806 3.75987555 5.8125 7.3125 C5.874375 7.869375 5.93625 8.42625 6 9 C1.96127401 11.69248399 -1.25513369 11.67205444 -6 11 C-9.8026029 8.9949912 -11.61790841 7.57313738 -14 4 C-13.8125 1.875 -13.8125 1.875 -13 0 C-8.56315875 -1.47894708 -4.52791685 -1.06156902 0 0 Z " fill="#B2A821" transform="translate(190,157)"/>
<path d="M0 0 C0.66 1.32 1.32 2.64 2 4 C-2.75 5 -2.75 5 -5 5 C-5 5.99 -5 6.98 -5 8 C-4.39671875 7.82082031 -3.7934375 7.64164062 -3.171875 7.45703125 C3.4373928 5.69811321 3.4373928 5.69811321 6.5625 7.375 C7.036875 7.91125 7.51125 8.4475 8 9 C7.5180353 15.38603223 7.5180353 15.38603223 5.3125 18 C2.22020156 19.33721014 0.21223855 18.80305964 -3 18 C-3.33 16.68 -3.66 15.36 -4 14 C-1.36 14 1.28 14 4 14 C4 13.01 4 12.02 4 11 C3.32453125 11.11859375 2.6490625 11.2371875 1.953125 11.359375 C-5.32101202 12.41055087 -5.32101202 12.41055087 -8.6875 10.375 C-10 8 -10 8 -10 5.4375 C-8.00086272 0.56460287 -5.05511381 -0.42125948 0 0 Z " fill="#B2AA20" transform="translate(237,258)"/>
<path d="M0 0 C0.66 0.33 1.32 0.66 2 1 C1.78743957 4.71980755 1.02398225 5.97426295 -1.5625 8.75 C-5.28977347 11.59025406 -8.35089424 11.92620467 -13 12 C-16 11.0625 -16 11.0625 -18 10 C-17.79396857 6.39444997 -16.98789733 4.98566789 -14.625 2.1875 C-10.33324663 -1.15169347 -5.16911683 -0.59123885 0 0 Z " fill="#B2A820" transform="translate(194,143)"/>
<path d="M0 0 C3.42150711 0 5.97942601 0.25453726 8.796875 2.3125 C12.08644342 5.69605609 13.36747672 8.17526198 13.375 12.9375 C13.27987996 14.29409299 13.16528674 15.65015829 13 17 C11.2578125 17.6640625 11.2578125 17.6640625 9 18 C5.06207675 16.02360833 1.76545894 13.2757649 -0.5 9.5 C-1.08253113 6.58734437 -1.20197288 3.96226889 -1 1 C-0.67 0.67 -0.34 0.34 0 0 Z " fill="#B2A721" transform="translate(146,129)"/>
<path d="M0 0 C5.2232971 0.15362639 8.50023271 3.45319282 12 7 C13.60725635 10.21451269 13.05748185 13.43612536 13 17 C10.12345559 18.21699956 9.00203291 18.00071999 6 16.9375 C2.41115296 14.61970295 0.88230578 12.83700794 -1 9 C-1.36533457 6.19052568 -1.24216194 3.85751085 -1 1 C-0.67 0.67 -0.34 0.34 0 0 Z " fill="#B3A821" transform="translate(172,164)"/>
<path d="M0 0 C0.53625 0.2475 1.0725 0.495 1.625 0.75 C1.94274533 5.3573073 2.05409733 7.8753016 0 12.0625 C-2.63321661 15.04219248 -4.63505362 16.42543566 -8.375 17.75 C-10.75 17.4375 -10.75 17.4375 -12.375 16.75 C-12.83263495 11.02956317 -12.09153644 8.15116157 -8.375 3.75 C-3.32840502 -0.35035842 -3.32840502 -0.35035842 0 0 Z " fill="#B2A821" transform="translate(157.375,164.25)"/>
<path d="M0 0 C-0.29459009 3.53508103 -0.74881413 4.76203444 -3.375 7.25 C-7.66206225 10.1080415 -10.93659467 10.1808359 -16 10 C-16.99 9.67 -17.98 9.34 -19 9 C-19.33 8.01 -19.66 7.02 -20 6 C-18.92578125 4.2109375 -18.92578125 4.2109375 -17.3125 2.375 C-16.79300781 1.76398438 -16.27351562 1.15296875 -15.73828125 0.5234375 C-11.3783107 -3.29766029 -4.61965688 -3.07977126 0 0 Z " fill="#B2A821" transform="translate(154,158)"/>
<path d="M0 0 C0.31986304 3.99828799 0.22229924 6.52761413 -1.5 10.1875 C-4.50924278 13.57289813 -7.66280346 15.63875866 -12 17 C-12.66 16.67 -13.32 16.34 -14 16 C-14.41813284 9.93707386 -14.13274522 6.80292012 -10 2 C-6.37520163 -0.88124998 -4.42879062 -1.39190562 0 0 Z " fill="#B2A721" transform="translate(185,130)"/>
<path d="M0 0 C3.14330223 0.3492558 4.79491452 0.83925733 7.3125 2.8125 C9 5 9 5 9 9 C7.68 8.67 6.36 8.34 5 8 C5 7.34 5 6.68 5 6 C3.68 6 2.36 6 1 6 C1.495 6.94875 1.99 7.8975 2.5 8.875 C4 12 4 12 4 14 C1.36 13.67 -1.28 13.34 -4 13 C-3.505 13.598125 -3.01 14.19625 -2.5 14.8125 C-1 17 -1 17 -1 20 C-4.11259604 19.654156 -5.82872813 19.12620033 -8.375 17.25 C-10 15 -10 15 -10.125 12.625 C-8.5633068 8.98104921 -6.1314829 6.41713932 -3 4 C-2.34 4 -1.68 4 -1 4 C-0.67 2.68 -0.34 1.36 0 0 Z " fill="#B2AA1F" transform="translate(74,241)"/>
<path d="M0 0 C2.86259909 1.54994342 5.13925899 3.31363218 7 6 C7 7.32 7 8.64 7 10 C3.02961076 11.98519462 -1.68329643 11.54034686 -6 11 C-8.91494376 9.66698018 -9.89210467 8.56365649 -12 6 C-12.375 3.1875 -12.375 3.1875 -12 1 C-8.23788448 -0.88105776 -4.08629926 -0.65161553 0 0 Z " fill="#B2A821" transform="translate(147,143)"/>
<path d="M0 0 C1.32 0.66 2.64 1.32 4 2 C4 7.94 4 13.88 4 20 C2.68 20 1.36 20 0 20 C0 18.68 0 17.36 0 16 C-5.55493924 14.97296252 -5.55493924 14.97296252 -11 16 C-10.58269656 11.14329827 -8.1999142 8.54863925 -4.9375 5.1875 C-4.46505859 4.68541016 -3.99261719 4.18332031 -3.50585938 3.66601562 C-2.34591548 2.43577211 -1.17411185 1.21672935 0 0 Z M-2 8 C-2.33 8.99 -2.66 9.98 -3 11 C-2.01 11 -1.02 11 0 11 C0 10.01 0 9.02 0 8 C-0.66 8 -1.32 8 -2 8 Z " fill="#B2A920" transform="translate(119,270)"/>
<path d="M0 0 C4.82075105 0.53563901 8.19943577 1.93152167 12.375 4.375 C13.43460937 4.98085937 14.49421875 5.58671875 15.5859375 6.2109375 C16.38257813 6.80132812 17.17921875 7.39171875 18 8 C18 8.99 18 9.98 18 11 C16.3603125 11.2165625 16.3603125 11.2165625 14.6875 11.4375 C11.06877013 11.88288104 11.06877013 11.88288104 8 13 C8.33 15.31 8.66 17.62 9 20 C8.01 20 7.02 20 6 20 C2.98348917 13.32137824 0.42465706 7.36072234 0 0 Z M6 6 C6.33 7.32 6.66 8.64 7 10 C7 8.68 7 7.36 7 6 C6.67 6 6.34 6 6 6 Z " fill="#B2A921" transform="translate(243,250)"/>
<path d="M0 0 C3.40312738 1.05875074 6.01353231 2.00902154 9 4 C9 4.99 9 5.98 9 7 C6.69 6.67 4.38 6.34 2 6 C2 6.99 2 7.98 2 9 C2.99 9.66 3.98 10.32 5 11 C4.67 12.32 4.34 13.64 4 15 C2.02 14.34 0.04 13.68 -2 13 C-0.86695008 16.39914975 0.12518475 17.05254451 3 19 C2.67 19.66 2.34 20.32 2 21 C-1.60296594 21.41176754 -2.78402067 21.1535853 -5.8125 19 C-6.534375 18.34 -7.25625 17.68 -8 17 C-7.400327 12.89223994 -6.0282733 9.85798616 -4 6.25 C-3.195625 4.80367188 -3.195625 4.80367188 -2.375 3.328125 C-1 1 -1 1 0 0 Z " fill="#B2AA20" transform="translate(103,262)"/>
<path d="M0 0 C4.82095225 0.75479555 6.99571759 2.02374387 10 6 C9.9263784 9.75470151 9.67158839 11.32841161 7 14 C3.04841529 14.34361606 0.39464446 14.08901197 -3 12 C-3.66 13.32 -4.32 14.64 -5 16 C-6.32 15.67 -7.64 15.34 -9 15 C-7.58399311 8.86397012 -3.9336625 4.73301638 0 0 Z M2 5 C1.67 6.32 1.34 7.64 1 9 C2.32 9.33 3.64 9.66 5 10 C4.67 8.35 4.34 6.7 4 5 C3.34 5 2.68 5 2 5 Z " fill="#B3AA20" transform="translate(90,255)"/>
<path d="M0 0 C0.99 0 1.98 0 3 0 C3.75 2.1875 3.75 2.1875 4 5 C2.125 7.625 2.125 7.625 0 10 C-0.33 10.99 -0.66 11.98 -1 13 C-0.46890625 12.77183594 0.0621875 12.54367188 0.609375 12.30859375 C1.31578125 12.02113281 2.0221875 11.73367187 2.75 11.4375 C3.44609375 11.14746094 4.1421875 10.85742188 4.859375 10.55859375 C7.30012784 9.92168197 8.6403655 10.19751169 11 11 C10.859375 12.859375 10.859375 12.859375 10 15 C7.453125 16.265625 7.453125 16.265625 4.25 17.25 C3.20328125 17.58515625 2.1565625 17.9203125 1.078125 18.265625 C-1.75947282 18.94261534 -4.10101986 19.15031749 -7 19 C-7.74609375 16.95703125 -7.74609375 16.95703125 -8 14 C-6.78491161 11.38885261 -5.57240262 9.11083131 -4.0625 6.6875 C-3.67642578 6.04232422 -3.29035156 5.39714844 -2.89257812 4.73242188 C-1.94137417 3.14708194 -0.97239609 1.57243045 0 0 Z " fill="#B2AA1F" transform="translate(63,227)"/>
<path d="M0 0 C0 1.32 0 2.64 0 4 C-1.98 4 -3.96 4 -6 4 C-6 5.32 -6 6.64 -6 8 C-4.02 8 -2.04 8 0 8 C-0.33 9.32 -0.66 10.64 -1 12 C-2.65 11.67 -4.3 11.34 -6 11 C-6 12.32 -6 13.64 -6 15 C-4.35 15.33 -2.7 15.66 -1 16 C-1 16.99 -1 17.98 -1 19 C-2.45792884 19.05399736 -3.91642712 19.09279177 -5.375 19.125 C-6.59316406 19.15980469 -6.59316406 19.15980469 -7.8359375 19.1953125 C-10 19 -10 19 -12 17 C-11.76215235 14.28853683 -11.41769255 11.68322061 -11 9 C-10.80433491 7.33427217 -10.61664035 5.66758591 -10.4375 4 C-10.35371094 3.236875 -10.26992187 2.47375 -10.18359375 1.6875 C-10.12300781 1.130625 -10.06242188 0.57375 -10 0 C-6.30581799 -1.231394 -3.7943739 -0.64432764 0 0 Z " fill="#B3A920" transform="translate(159,278)"/>
<path d="M0 0 C1 1 1 1 1.1875 4.375 C1 8 1 8 -1 11 C-4.57190516 11.92604949 -6.92336696 12.45331917 -10.375 11 C-12.76345433 8.0603639 -12.93439072 5.739729 -13 2 C-11.6080704 -0.93851805 -10.63869999 -1.74788158 -7.625 -2.9375 C-4.25308579 -3.01778367 -2.69667856 -1.94760118 0 0 Z " fill="#B2A821" transform="translate(302,167)"/>
<path d="M0 0 C0.99 0.33 1.98 0.66 3 1 C3.33 2.98 3.66 4.96 4 7 C-8.36993007 16.08811189 -8.36993007 16.08811189 -12.3125 15.875 C-14 15 -14 15 -16 13 C-15.9921875 10.57421875 -15.9921875 10.57421875 -15 8 C-12.3828125 6.26953125 -12.3828125 6.26953125 -9.125 4.8125 C-5.88502035 3.33303941 -2.96796786 1.97864524 0 0 Z " fill="#B2A821" transform="translate(285,83)"/>
<path d="M0 0 C1.32 0 2.64 0 4 0 C5.17666004 2.24525946 6.3414074 4.49544142 7.5 6.75 C7.83386719 7.38421875 8.16773438 8.0184375 8.51171875 8.671875 C10.27175533 12.12010993 11 14.04840069 11 18 C9.68 17.67 8.36 17.34 7 17 C7 16.34 7 15.68 7 15 C4.69 15 2.38 15 0 15 C-0.33 16.32 -0.66 17.64 -1 19 C-2.32 18.67 -3.64 18.34 -5 18 C-4.35852041 15.18644068 -3.71204485 12.37419761 -3.0625 9.5625 C-2.88009766 8.76005859 -2.69769531 7.95761719 -2.50976562 7.13085938 C-1.11328125 1.11328125 -1.11328125 1.11328125 0 0 Z M1 8 C1.33 9.32 1.66 10.64 2 12 C2.66 12 3.32 12 4 12 C3.67 10.68 3.34 9.36 3 8 C2.34 8 1.68 8 1 8 Z " fill="#B3A91F" transform="translate(175,278)"/>
<path d="M0 0 C3.3125 1.4375 3.3125 1.4375 5.3125 4.4375 C5.25 7.9375 5.25 7.9375 4.3125 11.4375 C2.125 13.5 2.125 13.5 -0.6875 14.4375 C-3.875 13.8125 -3.875 13.8125 -6.6875 12.4375 C-9.01793558 8.94184664 -9.27513244 7.5509271 -8.6875 3.4375 C-5.74923347 -0.12403518 -4.61442823 -0.70389583 0 0 Z " fill="#B2A821" transform="translate(35.6875,164.5625)"/>
<path d="M0 0 C3 1 3 1 4.07495117 2.58227539 C4.39439697 3.24735107 4.71384277 3.91242676 5.04296875 4.59765625 C5.39423828 5.31630859 5.74550781 6.03496094 6.10742188 6.77539062 C6.46384766 7.53013672 6.82027344 8.28488281 7.1875 9.0625 C7.55552734 9.82111328 7.92355469 10.57972656 8.30273438 11.36132812 C9.21085497 13.23653819 10.10661015 15.11772733 11 17 C10.01 17.99 9.02 18.98 8 20 C2.00067626 18.1668733 -3.44920563 15.92678249 -9 13 C-9 12.01 -9 11.02 -9 10 C-4.53160785 9.78721942 -1.17737474 10.40861915 3 12 C2.69964844 11.46890625 2.39929688 10.9378125 2.08984375 10.390625 C1.70957031 9.68421875 1.32929688 8.9778125 0.9375 8.25 C0.55464844 7.55390625 0.17179687 6.8578125 -0.22265625 6.140625 C-1.1312406 3.63859372 -0.88336837 2.4667645 0 0 Z " fill="#B2AA20" transform="translate(260,233)"/>
<path d="M0 0 C4.49108752 1.42860919 7.46169316 3.93077292 10.8125 7.125 C11.31458984 7.59292969 11.81667969 8.06085938 12.33398438 8.54296875 C13.56189455 9.68901825 14.78178215 10.84365311 16 12 C15.25 13.9375 15.25 13.9375 14 16 C12.12402344 16.77319336 12.12402344 16.77319336 10 17 C7.56429914 15.26147439 5.44937508 13.56127273 3.25 11.5625 C2.34701172 10.76875977 2.34701172 10.76875977 1.42578125 9.95898438 C-0.05945571 8.65056134 -1.53107134 7.32670579 -3 6 C-2.42655063 3.13275314 -2.1385485 2.1385485 0 0 Z " fill="#B2A821" transform="translate(59,62)"/>
<path d="M0 0 C-1.00861682 2.60924787 -1.66498092 3.79748847 -4.09375 5.265625 C-5.28484375 5.75289062 -5.28484375 5.75289062 -6.5 6.25 C-7.69109375 6.75273437 -7.69109375 6.75273437 -8.90625 7.265625 C-11 8 -11 8 -13 8 C-12.67 10.31 -12.34 12.62 -12 15 C-13.875 14.8125 -13.875 14.8125 -16 14 C-17.41421676 11.50828476 -18.07871406 9.8369393 -17.80859375 6.96484375 C-17 5 -17 5 -15.109375 3.8046875 C-13.94148438 3.34449219 -13.94148438 3.34449219 -12.75 2.875 C-11.53183594 2.38580078 -11.53183594 2.38580078 -10.2890625 1.88671875 C-9.15597656 1.44779297 -9.15597656 1.44779297 -8 1 C-6.576875 0.3503125 -6.576875 0.3503125 -5.125 -0.3125 C-3 -1 -3 -1 0 0 Z " fill="#B2AA20" transform="translate(52,202)"/>
<path d="M0 0 C3.93506246 0.61689815 6.50641357 2.55607718 9.6875 4.875 C10.66074219 5.57367188 11.63398438 6.27234375 12.63671875 6.9921875 C15 9 15 9 16 12 C15.01 12.66 14.02 13.32 13 14 C10.82100086 12.43159952 8.65782756 10.84706156 6.5 9.25 C5.87996094 8.8065625 5.25992187 8.363125 4.62109375 7.90625 C2.84375 6.578125 2.84375 6.578125 0 4 C0 2.68 0 1.36 0 0 Z " fill="#B3AA20" transform="translate(263,229)"/>
<path d="M0 0 C2.4375 1.3125 2.4375 1.3125 3.375 3.3125 C3.395625 3.9725 3.41625 4.6325 3.4375 5.3125 C2.7775 5.9725 2.1175 6.6325 1.4375 7.3125 C-1.49703261 6.94568342 -2.42687246 6.44812754 -4.5625 4.3125 C-4.5625 2.9925 -4.5625 1.6725 -4.5625 0.3125 C-2.5625 -0.6875 -2.5625 -0.6875 0 0 Z " fill="#B2AA21" transform="translate(53.5625,68.6875)"/>
</svg>
