<?xml version="1.0" standalone="no"?>
<!DOCTYPE svg PUBLIC "-//W3C//DTD SVG 20010904//EN"
 "http://www.w3.org/TR/2001/REC-SVG-20010904/DTD/svg10.dtd">
<svg version="1.0" xmlns="http://www.w3.org/2000/svg"
 width="1174.000000pt" height="537.000000pt" viewBox="0 0 1174.000000 537.000000"
 preserveAspectRatio="xMidYMid meet">

<g transform="translate(0.000000,537.000000) scale(0.100000,-0.100000)"
fill="#000000" stroke="none">
<path d="M1070 1684 c-28 -11 -49 -36 -100 -117 -35 -56 -120 -189 -188 -295
-68 -106 -122 -200 -120 -209 2 -9 18 -20 35 -25 18 -5 504 -7 1081 -6 935 3
1051 5 1072 19 19 13 40 67 112 295 112 355 107 331 74 344 -18 6 -354 10
-979 9 -811 0 -957 -2 -987 -15z"/>
<path d="M3480 1683 c-32 -17 -38 -26 -68 -123 -18 -58 -60 -189 -93 -292 -32
-102 -59 -193 -59 -202 0 -9 15 -19 39 -26 62 -16 2329 -9 2359 8 l22 13 0
303 c0 270 -2 305 -17 317 -13 12 -196 14 -1082 17 -1000 2 -1068 1 -1101 -15z"/>
<path d="M6103 1693 c-12 -2 -26 -10 -32 -17 -8 -9 -10 -109 -9 -317 l3 -304
35 -12 c47 -16 2486 -18 2543 -2 26 7 37 16 37 29 0 10 -24 92 -54 182 -29 90
-68 215 -86 278 -18 63 -36 123 -41 132 -5 9 -26 22 -47 28 -36 10 -2298 13
-2349 3z"/>
<path d="M8914 1690 c-12 -5 -25 -13 -29 -19 -3 -6 25 -107 64 -224 38 -116
81 -251 96 -299 19 -63 33 -92 48 -100 17 -10 230 -14 952 -16 512 -2 953 0
982 3 28 4 54 12 56 20 3 7 -63 120 -146 251 -84 132 -170 269 -193 304 -34
55 -47 68 -81 78 -48 14 -1714 16 -1749 2z"/>
<path d="M570 851 c-19 -4 -44 -12 -56 -19 -11 -6 -62 -78 -112 -160 -51 -83
-162 -259 -247 -392 -84 -133 -151 -248 -148 -255 2 -8 23 -17 46 -20 23 -3
582 -5 1242 -3 1118 3 1203 4 1227 20 21 14 33 38 53 105 14 49 69 219 121
380 51 160 94 300 94 311 0 11 -8 24 -17 28 -22 11 -2153 15 -2203 5z"/>
<path d="M3237 850 c-21 -4 -44 -13 -51 -21 -8 -8 -37 -93 -65 -189 -29 -96
-84 -271 -122 -389 -65 -197 -69 -215 -54 -230 14 -15 134 -16 1359 -16 1124
0 1346 2 1359 14 15 12 17 53 17 412 l0 398 -22 13 c-18 10 -262 13 -1203 14
-649 1 -1197 -1 -1218 -6z"/>
<path d="M6117 850 c-21 -4 -42 -11 -48 -17 -6 -6 -8 -163 -7 -409 l3 -399 35
-12 c26 -9 378 -12 1445 -11 776 0 1421 3 1435 7 14 4 26 14 28 23 2 9 -46
171 -107 360 -60 189 -115 363 -122 387 -24 83 96 76 -1344 77 -704 1 -1297
-1 -1318 -6z"/>
<path d="M9198 853 c-55 -8 -54 -15 30 -280 44 -136 99 -313 123 -391 34 -117
47 -147 68 -160 23 -16 121 -17 1163 -17 917 0 1140 3 1150 13 16 16 64 -64
-459 757 -33 52 -44 61 -83 72 -33 8 -303 11 -1005 11 -528 -1 -972 -3 -987
-5z"/>
</g>
</svg>
