<?xml version="1.0" encoding="UTF-8"?>
<svg version="1.1" xmlns="http://www.w3.org/2000/svg" width="123" height="133">
<path d="M0 0 C2.44647162 2.53083271 3 3.4252927 3 7 C0.69 7.33 -1.62 7.66 -4 8 C-4.66 9.65 -5.32 11.3 -6 13 C5.94256321 22.15940281 5.94256321 22.15940281 17.9375 31.25 C19.34322266 32.30960938 19.34322266 32.30960938 20.77734375 33.390625 C22.89278448 35.01403139 22.89278448 35.01403139 25 36 C25 34.35 25 32.7 25 31 C29.00200378 29.39919849 32.04556236 30.70720308 36 32 C35.625 34.4375 35.625 34.4375 35 37 C32.26094655 38.36952673 30.02912668 38.12621361 27 38 C26.34 37.67 25.68 37.34 25 37 C24.67 37.99 24.34 38.98 24 40 C17.73 38.68 11.46 37.36 5 36 C6.65 39.3 8.3 42.6 10 46 C5.80057271 47.3998091 2.86277269 45.82303648 -1.140625 44.40234375 C-2.78495468 43.84250657 -4.42949273 43.28328109 -6.07421875 42.72460938 C-8.66184298 41.8345157 -11.24705027 40.93853696 -13.82861328 40.03100586 C-16.32286739 39.15827957 -18.82448839 38.31021064 -21.328125 37.46484375 C-22.09191467 37.18889877 -22.85570435 36.9129538 -23.64263916 36.62864685 C-28.87433592 34.88396664 -31.84530631 34.98892068 -37 37 C-36.96003906 37.89203125 -36.92007813 38.7840625 -36.87890625 39.703125 C-36.88035477 45.45664508 -37.99644798 51.09066293 -38.9375 56.75 C-39.11990234 57.88566406 -39.30230469 59.02132812 -39.49023438 60.19140625 C-40.8570249 68.5710747 -40.8570249 68.5710747 -42 72 C-43.7890625 71.81640625 -43.7890625 71.81640625 -46 71 C-47.7109375 68.77734375 -47.7109375 68.77734375 -49.375 65.9375 C-51.9664289 61.62218318 -54.68973492 57.6967633 -57.93359375 53.8515625 C-59.37966697 51.340798 -59.38334788 49.86434089 -59 47 C-55.21808695 39.30617063 -49.49139401 32.53060204 -44 26 C-43.43539062 25.32324219 -42.87078125 24.64648438 -42.2890625 23.94921875 C-17.300858 -5.32100202 -17.300858 -5.32100202 0 0 Z " fill="#D7574E" transform="translate(72,21)"/>
<path d="M0 0 C0.99128906 0.12246094 1.98257813 0.24492188 3.00390625 0.37109375 C4.93943359 0.57025391 4.93943359 0.57025391 6.9140625 0.7734375 C17.61191091 1.97909841 17.61191091 1.97909841 20.00390625 4.37109375 C19.16085938 4.63664062 18.3178125 4.9021875 17.44921875 5.17578125 C16.35351562 5.52898437 15.2578125 5.8821875 14.12890625 6.24609375 C13.03835937 6.59414062 11.9478125 6.9421875 10.82421875 7.30078125 C7.91867902 8.18284606 7.91867902 8.18284606 6.00390625 10.37109375 C8.47890625 11.36109375 8.47890625 11.36109375 11.00390625 12.37109375 C11.00390625 13.03109375 11.00390625 13.69109375 11.00390625 14.37109375 C12.08671875 14.55671875 12.08671875 14.55671875 13.19140625 14.74609375 C15.96112519 15.36158685 18.40094165 16.25553749 21.00390625 17.37109375 C21.00390625 17.70109375 21.00390625 18.03109375 21.00390625 18.37109375 C20.276875 18.30148438 19.54984375 18.231875 18.80078125 18.16015625 C10.10563309 17.69195596 4.41817268 19.95408396 -2.99609375 24.37109375 C-2.7129834 24.86512695 -2.42987305 25.35916016 -2.13818359 25.86816406 C-0.86572122 28.11009653 0.38165917 30.36504389 1.62890625 32.62109375 C2.07492188 33.39839844 2.5209375 34.17570312 2.98046875 34.9765625 C3.39296875 35.73066406 3.80546875 36.48476562 4.23046875 37.26171875 C4.61799316 37.95297852 5.00551758 38.64423828 5.40478516 39.35644531 C6.00390625 41.37109375 6.00390625 41.37109375 5.30224609 43.50292969 C4.00390625 45.37109375 4.00390625 45.37109375 1.00390625 47.37109375 C1.00390625 46.36046875 1.00390625 45.34984375 1.00390625 44.30859375 C0.38172474 39.6422324 -2.55983809 37.7886115 -6.08203125 34.98828125 C-8.36975532 33.05538785 -9.46197034 30.9279661 -10.99609375 28.37109375 C-12.36193408 27.3174455 -13.73815115 26.2771923 -15.12109375 25.24609375 C-17.81217513 23.02324081 -18.86203854 21.89390908 -19.73828125 18.4765625 C-19.96912083 15.7519559 -20.07514381 13.10326146 -19.99609375 10.37109375 C-22.96609375 9.38109375 -25.93609375 8.39109375 -28.99609375 7.37109375 C-28.99609375 6.71109375 -28.99609375 6.05109375 -28.99609375 5.37109375 C-18.09148849 3.66056743 -18.09148849 3.66056743 -14.68359375 5.87109375 C-13.84828125 6.61359375 -13.84828125 6.61359375 -12.99609375 7.37109375 C-12.67898437 6.86578125 -12.361875 6.36046875 -12.03515625 5.83984375 C-8.47198193 0.87896017 -6.08011433 -0.45484825 0 0 Z " fill="#9D9D9D" transform="translate(62.99609375,68.62890625)"/>
<path d="M0 0 C0.33 0.66 0.66 1.32 1 2 C-0.4375 4.625 -0.4375 4.625 -2 7 C2.39079878 8.02299309 6.78825893 9.0140015 11.1875 10 C12.41404297 10.28617188 13.64058594 10.57234375 14.90429688 10.8671875 C23.06487939 12.67586542 30.64796027 13.37919928 39 13 C39 12.34 39 11.68 39 11 C38.34 10.67 37.68 10.34 37 10 C37 9.34 37 8.68 37 8 C36.505 7.01 36.505 7.01 36 6 C35.01 5.67 34.02 5.34 33 5 C32.505 2.525 32.505 2.525 32 0 C34.93303881 1.36548571 37.38609097 2.94383379 39.93359375 4.93359375 C40.66513672 5.50013672 41.39667969 6.06667969 42.15039062 6.65039062 C42.90513672 7.24013672 43.65988281 7.82988281 44.4375 8.4375 C50.97159531 13.57739063 50.97159531 13.57739063 58 18 C58 16.35 58 14.7 58 13 C62.00200378 11.39919849 65.04556236 12.70720308 69 14 C68.625 16.4375 68.625 16.4375 68 19 C65.26094655 20.36952673 63.02912668 20.12621361 60 20 C59.34 19.67 58.68 19.34 58 19 C57.505 20.485 57.505 20.485 57 22 C50.73 20.68 44.46 19.36 38 18 C40.475 22.95 40.475 22.95 43 28 C38.80057271 29.3998091 35.86277269 27.82303648 31.859375 26.40234375 C30.21504532 25.84250657 28.57050727 25.28328109 26.92578125 24.72460938 C24.33815702 23.8345157 21.75294973 22.93853696 19.17138672 22.03100586 C16.67713261 21.15827957 14.17551161 20.31021064 11.671875 19.46484375 C10.90808533 19.18889877 10.14429565 18.9129538 9.35736084 18.62864685 C4.12566408 16.88396664 1.15469369 16.98892068 -4 19 C-3.96003906 19.89203125 -3.92007813 20.7840625 -3.87890625 21.703125 C-3.88035477 27.45664508 -4.99644798 33.09066293 -5.9375 38.75 C-6.11990234 39.88566406 -6.30230469 41.02132812 -6.49023438 42.19140625 C-7.8570249 50.5710747 -7.8570249 50.5710747 -9 54 C-10.32 53.67 -11.64 53.34 -13 53 C-13.33 51.68 -13.66 50.36 -14 49 C-13.01 49.99 -12.02 50.98 -11 52 C-10.81824219 50.94683594 -10.63648438 49.89367187 -10.44921875 48.80859375 C-8.77442358 39.17430927 -6.96605219 29.57927555 -5 20 C-5.66 19.67 -6.32 19.34 -7 19 C-6.34 19 -5.68 19 -5 19 C-5 18.01 -5 17.02 -5 16 C-1.79192446 13.61685817 1.06380262 12.56231391 5 12 C5 11.67 5 11.34 5 11 C1.7 10.34 -1.6 9.68 -5 9 C-3.7508258 5.54074837 -2.32472205 2.85306797 0 0 Z " fill="#F89589" transform="translate(39,39)"/>
<path d="M0 0 C-1 2 -1 2 -2 3 C-1.31292969 3.04898438 -0.62585938 3.09796875 0.08203125 3.1484375 C0.98308594 3.22320312 1.88414063 3.29796875 2.8125 3.375 C3.70582031 3.44460937 4.59914063 3.51421875 5.51953125 3.5859375 C8 4 8 4 11 6 C11 7.32 11 8.64 11 10 C11.61875 10.061875 12.2375 10.12375 12.875 10.1875 C15 11 15 11 16.25 13.4375 C17 16 17 16 17 18 C7.37519472 20.40620132 -1.5252563 18.06143122 -11 16 C-12.3605195 15.7101967 -13.72119567 15.42112789 -15.08203125 15.1328125 C-18.38963045 14.42906799 -21.69545743 13.71793606 -25 13 C-24.043419 11.22821947 -23.08467012 9.45760924 -22.125 7.6875 C-21.59132812 6.70136719 -21.05765625 5.71523438 -20.5078125 4.69921875 C-17.3875269 -0.88657749 -17.3875269 -0.88657749 -14.4375 -1.75 C-9.67369345 -2.09645866 -4.35111537 -2.17555768 0 0 Z " fill="#E45045" transform="translate(61,34)"/>
<path d="M0 0 C1.62580966 0.11398665 3.25067157 0.24155659 4.875 0.375 C5.77992187 0.44460937 6.68484375 0.51421875 7.6171875 0.5859375 C10 1 10 1 12 3 C10.75108386 3.48198463 9.50081192 3.96045677 8.25 4.4375 C7.20585938 4.83775391 7.20585938 4.83775391 6.140625 5.24609375 C4.10940997 5.96146693 2.0964709 6.51365652 0 7 C0.07734375 8.5159375 0.07734375 8.5159375 0.15625 10.0625 C0.15625 16.80116506 -1.30205137 23.39279073 -2.5 30 C-2.74151103 31.36056618 -2.98240171 32.72124263 -3.22265625 34.08203125 C-3.8090256 37.38915436 -4.40164232 40.69502864 -5 44 C-7.54971001 41.52509261 -9.4137316 39.67632368 -10.625 36.3125 C-11.60822636 32.92312274 -11.60822636 32.92312274 -14 32 C-15.0703125 30.0390625 -15.0703125 30.0390625 -16.125 27.625 C-16.47820313 26.83351563 -16.83140625 26.04203125 -17.1953125 25.2265625 C-18 23 -18 23 -18 20 C-17.34 19.34 -16.68 18.68 -16 18 C-15.690625 17.319375 -15.38125 16.63875 -15.0625 15.9375 C-14 14 -14 14 -11 13 C-11 12.34 -11 11.68 -11 11 C-8 9 -8 9 -5 9 C-5 8.34 -5 7.68 -5 7 C-4.34 6.34 -3.68 5.68 -3 5 C-1.97695052 3.34738161 -0.97383946 1.68208635 0 0 Z " fill="#E44F43" transform="translate(34,48)"/>
<path d="M0 0 C0.99128906 0.12246094 1.98257813 0.24492188 3.00390625 0.37109375 C4.93943359 0.57025391 4.93943359 0.57025391 6.9140625 0.7734375 C17.61191091 1.97909841 17.61191091 1.97909841 20.00390625 4.37109375 C19.16085938 4.63664062 18.3178125 4.9021875 17.44921875 5.17578125 C16.35351562 5.52898437 15.2578125 5.8821875 14.12890625 6.24609375 C13.03835937 6.59414062 11.9478125 6.9421875 10.82421875 7.30078125 C7.91867902 8.18284606 7.91867902 8.18284606 6.00390625 10.37109375 C8.47890625 11.36109375 8.47890625 11.36109375 11.00390625 12.37109375 C11.00390625 13.03109375 11.00390625 13.69109375 11.00390625 14.37109375 C9.56597233 14.06059649 8.12857445 13.74761615 6.69140625 13.43359375 C5.49064453 13.17255859 5.49064453 13.17255859 4.265625 12.90625 C2.00390625 12.37109375 2.00390625 12.37109375 -0.99609375 11.37109375 C-3.66127114 11.90822114 -3.66127114 11.90822114 -6.49609375 12.80859375 C-9.53406653 13.71916892 -11.81416666 14.37109375 -14.99609375 14.37109375 C-14.99609375 15.03109375 -14.99609375 15.69109375 -14.99609375 16.37109375 C-15.98609375 16.37109375 -16.97609375 16.37109375 -17.99609375 16.37109375 C-17.99609375 17.36109375 -17.99609375 18.35109375 -17.99609375 19.37109375 C-15.68609375 19.70109375 -13.37609375 20.03109375 -10.99609375 20.37109375 C-10.99609375 21.03109375 -10.99609375 21.69109375 -10.99609375 22.37109375 C-10.33609375 22.70109375 -9.67609375 23.03109375 -8.99609375 23.37109375 C-10.31609375 24.36109375 -11.63609375 25.35109375 -12.99609375 26.37109375 C-15.59367025 24.76833378 -17.17990243 23.75895531 -18.99609375 21.37109375 C-19.81518884 17.70319624 -19.982955 14.12220733 -19.99609375 10.37109375 C-22.96609375 9.38109375 -25.93609375 8.39109375 -28.99609375 7.37109375 C-28.99609375 6.71109375 -28.99609375 6.05109375 -28.99609375 5.37109375 C-18.09148849 3.66056743 -18.09148849 3.66056743 -14.68359375 5.87109375 C-13.84828125 6.61359375 -13.84828125 6.61359375 -12.99609375 7.37109375 C-12.67898437 6.86578125 -12.361875 6.36046875 -12.03515625 5.83984375 C-8.47198193 0.87896017 -6.08011433 -0.45484825 0 0 Z " fill="#ABACAC" transform="translate(62.99609375,68.62890625)"/>
<path d="M0 0 C2.93303881 1.36548571 5.38609097 2.94383379 7.93359375 4.93359375 C9.0309082 5.7834082 9.0309082 5.7834082 10.15039062 6.65039062 C10.90513672 7.24013672 11.65988281 7.82988281 12.4375 8.4375 C18.97159531 13.57739063 18.97159531 13.57739063 26 18 C26 16.35 26 14.7 26 13 C30.00200378 11.39919849 33.04556236 12.70720308 37 14 C36.625 16.4375 36.625 16.4375 36 19 C33.26094655 20.36952673 31.02912668 20.12621361 28 20 C27.34 19.67 26.68 19.34 26 19 C25.67 19.99 25.34 20.98 25 22 C16.09 20.02 16.09 20.02 7 18 C7 17.34 7 16.68 7 16 C4.03 15.67 1.06 15.34 -2 15 C1.76687864 13.11656068 3.02958963 12.77942165 7 13 C7 12.34 7 11.68 7 11 C6.34 10.67 5.68 10.34 5 10 C5 9.34 5 8.68 5 8 C4.67 7.34 4.34 6.68 4 6 C3.01 5.67 2.02 5.34 1 5 C0.67 3.35 0.34 1.7 0 0 Z " fill="#DC5247" transform="translate(71,39)"/>
<path d="M0 0 C1.62580966 0.11398665 3.25067157 0.24155659 4.875 0.375 C5.77992187 0.44460937 6.68484375 0.51421875 7.6171875 0.5859375 C10 1 10 1 12 3 C10.75108386 3.48198463 9.50081192 3.96045677 8.25 4.4375 C7.20585938 4.83775391 7.20585938 4.83775391 6.140625 5.24609375 C4.10940997 5.96146693 2.0964709 6.51365652 0 7 C0.04125 8.093125 0.0825 9.18625 0.125 10.3125 C0.14420838 15.66203382 -0.92496931 20.77842235 -2 26 C-2.33 26 -2.66 26 -3 26 C-3 21.71 -3 17.42 -3 13 C-7.0437277 14.64348542 -7.0437277 14.64348542 -8.9375 17.625 C-11 20 -11 20 -13.75 20.3125 C-14.4925 20.209375 -15.235 20.10625 -16 20 C-15.75 17.625 -15.75 17.625 -15 15 C-12.9375 13.6875 -12.9375 13.6875 -11 13 C-11 12.34 -11 11.68 -11 11 C-8 9 -8 9 -5 9 C-5 8.34 -5 7.68 -5 7 C-4.34 6.34 -3.68 5.68 -3 5 C-1.97695052 3.34738161 -0.97383946 1.68208635 0 0 Z " fill="#D2675D" transform="translate(34,48)"/>
<path d="M0 0 C0.33 0.66 0.66 1.32 1 2 C0.01 2.66 -0.98 3.32 -2 4 C0.88267118 6.12019049 0.88267118 6.12019049 4.125 7 C7 8 7 8 8 10 C-0.22957198 8.21692607 -0.22957198 8.21692607 -4.09375 7.12890625 C-5.1353125 6.83886719 -6.176875 6.54882812 -7.25 6.25 C-8.22453125 5.96640625 -9.1990625 5.6828125 -10.203125 5.390625 C-13.45159844 4.93692759 -15.10657962 5.54272988 -18 7 C-17.96003906 7.89203125 -17.92007813 8.7840625 -17.87890625 9.703125 C-17.88035477 15.45664508 -18.99644798 21.09066293 -19.9375 26.75 C-20.11990234 27.88566406 -20.30230469 29.02132812 -20.49023438 30.19140625 C-21.8570249 38.5710747 -21.8570249 38.5710747 -23 42 C-24.32 41.67 -25.64 41.34 -27 41 C-27.33 39.68 -27.66 38.36 -28 37 C-27.01 37.99 -26.02 38.98 -25 40 C-24.81824219 38.94683594 -24.63648438 37.89367187 -24.44921875 36.80859375 C-22.77442358 27.17430927 -20.96605219 17.57927555 -19 8 C-19.66 7.67 -20.32 7.34 -21 7 C-20.34 7 -19.68 7 -19 7 C-19 6.01 -19 5.02 -19 4 C-13.05815364 -0.41394301 -7.08447616 -0.1389113 0 0 Z " fill="#EAA8A1" transform="translate(53,51)"/>
<path d="M0 0 C0 3.75803673 -0.92114325 4.3266874 -3.4375 7 C-5.7432742 9.45949248 -6.92009658 10.76028974 -8 14 C-7.34 14 -6.68 14 -6 14 C-6 14.66 -6 15.32 -6 16 C-6.66 16 -7.32 16 -8 16 C-8 16.66 -8 17.32 -8 18 C-8.66 18 -9.32 18 -10 18 C-10.33 18.99 -10.66 19.98 -11 21 C-11.66 21 -12.32 21 -13 21 C-13 21.66 -13 22.32 -13 23 C-14.62553283 24.70680947 -16.29115995 26.37660195 -18 28 C-17.34 28.33 -16.68 28.66 -16 29 C-17.32 29.33 -18.64 29.66 -20 30 C-19.566875 30.92232422 -19.566875 30.92232422 -19.125 31.86328125 C-18.75375 32.67152344 -18.3825 33.47976562 -18 34.3125 C-17.443125 35.51326172 -17.443125 35.51326172 -16.875 36.73828125 C-16 39 -16 39 -16 42 C-15.01 42.33 -14.02 42.66 -13 43 C-11.8125 46.5625 -11.8125 46.5625 -11 50 C-15.95865924 45.49212797 -22.3299916 39.31106412 -23.38671875 32.51171875 C-21.62945534 21.09838163 -7.98631996 7.98631996 0 0 Z " fill="#E5AFAB" transform="translate(36,38)"/>
<path d="M0 0 C2.43372863 0.44029314 2.43372863 0.44029314 5.21875 0.6328125 C8.14671067 0.9542685 10.61920049 1.30479188 13.359375 2.39453125 C15.2910655 5.09337884 15.66273545 7.07209649 16.359375 10.39453125 C13.89944472 10.11322535 11.44197252 9.82000394 8.984375 9.51953125 C7.93636719 9.40158203 7.93636719 9.40158203 6.8671875 9.28125 C1.5859375 8.62109375 1.5859375 8.62109375 -0.640625 6.39453125 C-1.61 6.08515625 -2.579375 5.77578125 -3.578125 5.45703125 C-6.49902016 4.44365946 -7.72667185 3.73380732 -9.640625 1.39453125 C-6.39432863 -0.90492868 -3.82248937 -0.65384687 0 0 Z " fill="#D5574E" transform="translate(59.640625,52.60546875)"/>
<path d="M0 0 C1.875 0.625 1.875 0.625 4 2 C4.67192289 3.99824024 5.33756314 5.99859503 6 8 C7.84143572 11.37062799 9.77766371 14.67172336 11.734375 17.9765625 C13 21 13 21 12.390625 23.2734375 C11 25 11 25 8 27 C8 25.989375 8 24.97875 8 23.9375 C7.3862489 19.26354933 4.40430804 17.43836487 0.87890625 14.64453125 C-1.36530612 12.68026221 -2.2988479 10.89225242 -3 8 C-2.34 8 -1.68 8 -1 8 C-0.67 5.36 -0.34 2.72 0 0 Z " fill="#B6B6B6" transform="translate(56,89)"/>
<path d="M0 0 C21.01974204 0.14083579 21.01974204 0.14083579 25.14453125 4.265625 C20.14453125 5.93229167 15.14453125 7.59895833 10.14453125 9.265625 C10.14453125 8.275625 10.14453125 7.285625 10.14453125 6.265625 C6.84453125 5.275625 3.54453125 4.285625 0.14453125 3.265625 C-0.18546875 4.585625 -0.51546875 5.905625 -0.85546875 7.265625 C-1.51546875 6.275625 -2.17546875 5.285625 -2.85546875 4.265625 C-3.84546875 4.925625 -4.83546875 5.585625 -5.85546875 6.265625 C-3.14137641 0.44971283 -3.14137641 0.44971283 0 0 Z " fill="#ACADAC" transform="translate(57.85546875,68.734375)"/>
<path d="M0 0 C0.66 0.33 1.32 0.66 2 1 C1.01 2.32 0.02 3.64 -1 5 C5.435 4.505 5.435 4.505 12 4 C12.495 4.99 12.495 4.99 13 6 C11.10314453 6.12955078 11.10314453 6.12955078 9.16796875 6.26171875 C7.50770806 6.40241881 5.84755672 6.54441349 4.1875 6.6875 C3.35412109 6.74099609 2.52074219 6.79449219 1.66210938 6.84960938 C-0.66358797 7.06443282 -2.76665209 7.31288131 -5 8 C-7.03586541 10.34195837 -7.03586541 10.34195837 -8 13 C-8.639375 13.598125 -9.27875 14.19625 -9.9375 14.8125 C-12.78756629 17.83529758 -14.26253463 21.26225937 -16 25 C-16.66295525 26.3351826 -17.32858418 27.66905183 -18 29 C-18.66 29 -19.32 29 -20 29 C-20 29.66 -20 30.32 -20 31 C-20.99 30.67 -21.98 30.34 -23 30 C-22.34 30 -21.68 30 -21 30 C-21 29.34 -21 28.68 -21 28 C-20.34 28 -19.68 28 -19 28 C-19 27.34 -19 26.68 -19 26 C-19.66 26 -20.32 26 -21 26 C-20.41315734 22.4392925 -19.07231059 20.66986676 -16.625 18.0625 C-14.64797294 15.9466604 -13.03848997 14.06733065 -11.59765625 11.546875 C-9.70092314 8.52323199 -7.50059436 6.5264912 -4.8125 4.1875 C-3.91144531 3.39730469 -3.01039062 2.60710938 -2.08203125 1.79296875 C-1.39496094 1.20128906 -0.70789063 0.60960938 0 0 Z " fill="#C96A64" transform="translate(49,26)"/>
<path d="M0 0 C1.52519276 0.08937803 3.04681929 0.24537146 4.5625 0.4375 C5.38878906 0.53933594 6.21507813 0.64117187 7.06640625 0.74609375 C7.70449219 0.82988281 8.34257813 0.91367187 9 1 C9.33 2.65 9.66 4.3 10 6 C6.54337669 8.30441554 5.05142119 8.25860135 1 8 C0.34 7.67 -0.32 7.34 -1 7 C-1.33 7.99 -1.66 8.98 -2 10 C-10.91 8.02 -10.91 8.02 -20 6 C-20 5.67 -20 5.34 -20 5 C-14.47322267 4.80607799 -10.24385089 5.2520497 -5 7 C-6.32 5.35 -7.64 3.7 -9 2 C-6.0280615 3.12451727 -3.66559313 4.22293791 -1 6 C-1.020625 5.195625 -1.04125 4.39125 -1.0625 3.5625 C-1 1 -1 1 0 0 Z " fill="#F3DBD6" transform="translate(98,51)"/>
<path d="M0 0 C2.44647162 2.53083271 3 3.4252927 3 7 C1.906875 7.103125 0.81375 7.20625 -0.3125 7.3125 C-3.85559629 7.97307727 -4.93243723 8.2027092 -7 11 C-7 8.69 -7 6.38 -7 4 C-14.05651252 3.85024761 -14.05651252 3.85024761 -21 5 C-18.38825364 1.70290176 -15.64228198 1.15090076 -11.625 0.25 C-10.50351562 -0.01296875 -9.38203125 -0.2759375 -8.2265625 -0.546875 C-5.06703448 -0.99058596 -3.02327396 -0.95584861 0 0 Z " fill="#E2A39A" transform="translate(72,21)"/>
<path d="M0 0 C2.3125 0.5625 2.3125 0.5625 5 2 C6.34776978 4.27962623 7.11364216 6.48087772 8 9 C4.63945043 10.12018319 3.98276729 9.90181274 0.76953125 8.78515625 C-0.03291016 8.51123047 -0.83535156 8.23730469 -1.66210938 7.95507812 C-2.49548828 7.66052734 -3.32886719 7.36597656 -4.1875 7.0625 C-5.03248047 6.77181641 -5.87746094 6.48113281 -6.74804688 6.18164062 C-8.83495229 5.46242463 -10.91859994 4.7349657 -13 4 C-13 3.67 -13 3.34 -13 3 C-8.1666528 2.91666643 -3.76307437 3.04738513 1 4 C0.67 2.68 0.34 1.36 0 0 Z " fill="#D2857F" transform="translate(74,58)"/>
<path d="M0 0 C1.62580966 0.11398665 3.25067157 0.24155659 4.875 0.375 C5.77992187 0.44460937 6.68484375 0.51421875 7.6171875 0.5859375 C10 1 10 1 12 3 C6.66666667 5 1.33333333 7 -4 9 C-2.94124926 5.59687262 -1.99097846 2.98646769 0 0 Z " fill="#DC5349" transform="translate(34,48)"/>
<path d="M0 0 C4.85767859 0.46708448 9.60066639 1.23185898 14.375 2.25 C15.39335938 2.46140625 16.41171875 2.6728125 17.4609375 2.890625 C20 4 20 4 21.3515625 6.609375 C21.56554687 7.39828125 21.77953125 8.1871875 22 9 C18.125 8.125 18.125 8.125 17 7 C15.865625 6.855625 14.73125 6.71125 13.5625 6.5625 C10 6 10 6 8 4 C6.03309626 3.32707499 6.03309626 3.32707499 3.875 2.875 C2.59625 2.58625 1.3175 2.2975 0 2 C0 1.34 0 0.68 0 0 Z " fill="#E15043" transform="translate(54,54)"/>
<path d="M0 0 C0.66 0.33 1.32 0.66 2 1 C1.01 2.32 0.02 3.64 -1 5 C5.435 4.505 5.435 4.505 12 4 C12.33 4.66 12.66 5.32 13 6 C11.10314453 6.12955078 11.10314453 6.12955078 9.16796875 6.26171875 C7.50770806 6.40241881 5.84755672 6.54441349 4.1875 6.6875 C3.35412109 6.74099609 2.52074219 6.79449219 1.66210938 6.84960938 C-0.66629594 7.06468296 -2.7655064 7.30704198 -5 8 C-7.14709713 10.40294251 -7.14709713 10.40294251 -8 13 C-9.32 12.34 -10.64 11.68 -12 11 C-10.75323147 9.72599623 -9.5024352 8.45593346 -8.25 7.1875 C-7.55390625 6.47980469 -6.8578125 5.77210937 -6.140625 5.04296875 C-4.18571355 3.17724121 -2.19661447 1.56830358 0 0 Z " fill="#EF8C83" transform="translate(49,26)"/>
<path d="M0 0 C2.74967731 1.29055736 5.07873302 2.71084296 7.453125 4.6015625 C8.38125 5.33632813 8.38125 5.33632813 9.328125 6.0859375 C9.96234375 6.59382813 10.5965625 7.10171875 11.25 7.625 C11.8996875 8.140625 12.549375 8.65625 13.21875 9.1875 C14.81503967 10.45514179 16.40786526 11.72714361 18 13 C17.67 13.99 17.34 14.98 17 16 C14.525 15.01 14.525 15.01 12 14 C12 13.01 12 12.02 12 11 C9.36182767 9.13776071 6.72502322 7.88366367 3.75 6.625 C1 5 1 5 0.125 2.3125 C0.08375 1.549375 0.0425 0.78625 0 0 Z " fill="#DFA29C" transform="translate(71,39)"/>
<path d="M0 0 C2.475 0.495 2.475 0.495 5 1 C5 1.66 5 2.32 5 3 C5.66 3 6.32 3 7 3 C7 5.97 7 8.94 7 12 C6.01 11.67 5.02 11.34 4 11 C3.67 9.35 3.34 7.7 3 6 C2.34 6 1.68 6 1 6 C0.67 4.02 0.34 2.04 0 0 Z " fill="#E94D43" transform="translate(21,73)"/>
<path d="M0 0 C5.04818636 0.08503836 9.8865306 0.3649469 14.86328125 1.23046875 C14.86328125 1.56046875 14.86328125 1.89046875 14.86328125 2.23046875 C13.94095703 2.32134766 13.94095703 2.32134766 13 2.4140625 C12.19175781 2.49785156 11.38351563 2.58164063 10.55078125 2.66796875 C9.75027344 2.74917969 8.94976562 2.83039063 8.125 2.9140625 C5.70240946 3.18312568 5.70240946 3.18312568 2.86328125 4.23046875 C1.87328125 3.90046875 0.88328125 3.57046875 -0.13671875 3.23046875 C-0.46671875 4.55046875 -0.79671875 5.87046875 -1.13671875 7.23046875 C-1.79671875 6.24046875 -2.45671875 5.25046875 -3.13671875 4.23046875 C-4.12671875 4.89046875 -5.11671875 5.55046875 -6.13671875 6.23046875 C-3.40032245 0.36676238 -3.40032245 0.36676238 0 0 Z " fill="#CFCFCF" transform="translate(58.13671875,68.76953125)"/>
<path d="M0 0 C8.00826446 -0.78512397 8.00826446 -0.78512397 12 2.375 C14 5 14 5 15 7 C10.71 6.67 6.42 6.34 2 6 C2.33 5.01 2.66 4.02 3 3 C3 2.67 3 2.34 3 2 C2.01 1.34 1.02 0.68 0 0 Z " fill="#DE534B" transform="translate(56,32)"/>
<path d="M0 0 C3.71888239 0.50712033 6.73454239 1.11608215 10 3 C9.67 4.32 9.34 5.64 9 7 C6.36 7 3.72 7 1 7 C0.67 4.69 0.34 2.38 0 0 Z " fill="#999A99" transform="translate(58,72)"/>
<path d="M0 0 C3.15295167 3.15295167 5 6.51187917 5 11 C5.99 11.33 6.98 11.66 8 12 C9.1875 15.5625 9.1875 15.5625 10 19 C5.20920913 14.64473557 1.28423917 9.58415305 -2 4 C-2 3.01 -2 2.02 -2 1 C-1.34 0.67 -0.68 0.34 0 0 Z " fill="#DFA49D" transform="translate(15,69)"/>
<path d="M0 0 C2.475 0.495 2.475 0.495 5 1 C5 4.3 5 7.6 5 11 C7.31 11.33 9.62 11.66 12 12 C12 12.66 12 13.32 12 14 C12.66 14.33 13.32 14.66 14 15 C12.68 15.99 11.36 16.98 10 18 C7.40656036 16.39979256 5.80916417 15.38850326 4 13 C3.44736325 10.09447041 3.3127786 7.38112787 3.30078125 4.42578125 C3.20152344 3.62527344 3.10226563 2.82476562 3 2 C2.01 1.34 1.02 0.68 0 0 Z " fill="#B7B8B7" transform="translate(40,77)"/>
<path d="M0 0 C2.78349856 1.0558098 4.00409146 2.00518252 5.875 4.375 C7 7 7 7 6.375 9.1875 C5 11 5 11 2 13 C1.855625 11.9275 1.71125 10.855 1.5625 9.75 C1.16153073 7.07687153 0.67443092 4.60137642 0 2 C0 1.34 0 0.68 0 0 Z " fill="#BDBDBD" transform="translate(62,103)"/>
<path d="M0 0 C0.33 0 0.66 0 1 0 C0.88556397 2.0839403 0.75804453 4.16716493 0.625 6.25 C0.55539063 7.41015625 0.48578125 8.5703125 0.4140625 9.765625 C0 13 0 13 -2 17 C-4.475 13.04 -4.475 13.04 -7 9 C-4.525 9.495 -4.525 9.495 -2 10 C-2 7.69 -2 5.38 -2 3 C-1.34 3 -0.68 3 0 3 C0 2.01 0 1.02 0 0 Z " fill="#C4625D" transform="translate(30,75)"/>
<path d="M0 0 C1.43739513 -0.02712066 2.87493863 -0.04645067 4.3125 -0.0625 C5.51326172 -0.07990234 5.51326172 -0.07990234 6.73828125 -0.09765625 C9 0 9 0 12 1 C13.45968892 0.94533 14.91838793 0.85937019 16.375 0.75 C20.31070859 0.67295513 20.80293541 0.83913094 24.0625 3.5 C24.701875 4.325 25.34125 5.15 26 6 C24.865625 5.731875 23.73125 5.46375 22.5625 5.1875 C15.09578708 3.51889374 7.53795727 2.29815567 0 1 C0 0.67 0 0.34 0 0 Z " fill="#CF6356" transform="translate(69,53)"/>
<path d="M0 0 C0.33 0.66 0.66 1.32 1 2 C2.36125 1.7215625 2.36125 1.7215625 3.75 1.4375 C8.53259095 0.79368968 11.60444397 2.16851832 16 4 C16 4.66 16 5.32 16 6 C14.56206608 5.68950274 13.1246682 5.3765224 11.6875 5.0625 C10.88699219 4.88847656 10.08648437 4.71445313 9.26171875 4.53515625 C7 4 7 4 4 3 C2.2984375 3.495 2.2984375 3.495 0.5625 4 C-2.71420187 4.91977596 -3.94443456 5.22222618 -7 4 C-6.030625 3.71125 -5.06125 3.4225 -4.0625 3.125 C-0.89335797 2.35785318 -0.89335797 2.35785318 0 0 Z " fill="#C5C6C6" transform="translate(58,77)"/>
<path d="M0 0 C0 0.33 0 0.66 0 1 C-4.95 1 -9.9 1 -15 1 C-11.77108705 -5.45782591 -5.1478012 -2.20620052 0 0 Z " fill="#C8C8C8" transform="translate(84,86)"/>
<path d="M0 0 C0.99 0 1.98 0 3 0 C2.67 1.65 2.34 3.3 2 5 C2.66 5 3.32 5 4 5 C4.66 6.98 5.32 8.96 6 11 C6.66 11 7.32 11 8 11 C8.33 12.65 8.66 14.3 9 16 C8.34 16 7.68 16 7 16 C6.67 15.01 6.34 14.02 6 13 C5.34 12.67 4.68 12.34 4 12 C2.9296875 10.0390625 2.9296875 10.0390625 1.875 7.625 C1.52179687 6.83351563 1.16859375 6.04203125 0.8046875 5.2265625 C0 3 0 3 0 0 Z " fill="#D5574C" transform="translate(16,68)"/>
<path d="M0 0 C-0.11397544 2.43847451 -0.24070974 4.87513174 -0.375 7.3125 C-0.4059375 8.00279297 -0.436875 8.69308594 -0.46875 9.40429688 C-0.68124919 13.06990789 -0.91933861 14.87900792 -3 18 C-2.67 13.38 -2.34 8.76 -2 4 C-3.32 3.67 -4.64 3.34 -6 3 C-1.125 0 -1.125 0 0 0 Z " fill="#D3564D" transform="translate(32,60)"/>
<path d="M0 0 C1.32 0 2.64 0 4 0 C4.93065133 2.60582371 5.14917407 3.64198224 4.0625 6.25 C3.5365625 7.11625 3.5365625 7.11625 3 8 C1.68 7.34 0.36 6.68 -1 6 C-0.67 4.02 -0.34 2.04 0 0 Z " fill="#A3A3A3" transform="translate(52,90)"/>
<path d="M0 0 C0.66 0.99 1.32 1.98 2 3 C1.01 4.485 1.01 4.485 0 6 C0.66 6.33 1.32 6.66 2 7 C-2.75 10 -2.75 10 -5 10 C-3.66511872 6.40608886 -2.03977277 3.24509304 0 0 Z " fill="#EBB4AF" transform="translate(18,60)"/>
<path d="M0 0 C4.85419266 0.59197472 8.64240676 1.86392488 13 4 C13.33 4.66 13.66 5.32 14 6 C12.56206608 5.68950274 11.1246682 5.3765224 9.6875 5.0625 C8.88699219 4.88847656 8.08648437 4.71445312 7.26171875 4.53515625 C5 4 5 4 2 3 C2 2.34 2 1.68 2 1 C1.34 0.67 0.68 0.34 0 0 Z " fill="#DE9E96" transform="translate(47,55)"/>
<path d="M0 0 C0.66 0.33 1.32 0.66 2 1 C0.02 3.97 -1.96 6.94 -4 10 C-5.32 9.34 -6.64 8.68 -8 8 C-5.36 5.36 -2.72 2.72 0 0 Z " fill="#F0BCB7" transform="translate(45,29)"/>
<path d="M0 0 C0.66 0.33 1.32 0.66 2 1 C0.3125 3.5 0.3125 3.5 -2 6 C-4.75 6.3125 -4.75 6.3125 -7 6 C-6.67 4.35 -6.34 2.7 -6 1 C-5.34 1.33 -4.68 1.66 -4 2 C-3.34 1.67 -2.68 1.34 -2 1 C-1.34 0.67 -0.68 0.34 0 0 Z " fill="#E27569" transform="translate(25,62)"/>
<path d="M0 0 C2.97 0 5.94 0 9 0 C8.67 0.99 8.34 1.98 8 3 C5.69 3.33 3.38 3.66 1 4 C0.67 2.68 0.34 1.36 0 0 Z " fill="#C4A6A2" transform="translate(97,53)"/>
<path d="M0 0 C-4.10542266 2.29903669 -8.69099505 4.35523153 -13.4375 3.625 C-13.953125 3.41875 -14.46875 3.2125 -15 3 C-12.22199328 1.14799552 -10.66558555 0.5142048 -7.5 -0.1875 C-6.7265625 -0.36667969 -5.953125 -0.54585937 -5.15625 -0.73046875 C-3 -1 -3 -1 0 0 Z " fill="#E7AEA6" transform="translate(66,22)"/>
<path d="M0 0 C2.72426311 2.35277269 3.8141763 4.62496331 5 8 C1.23375329 9.25541557 -0.37188934 8.37061958 -4 7 C-1.92446352 6.4465236 -0.15634036 6 2 6 C1.34 4.02 0.68 2.04 0 0 Z " fill="#F3D9D6" transform="translate(77,59)"/>
<path d="M0 0 C3 0 3 0 5.625 2.375 C8 5 8 5 9 7 C6.1875 6.875 6.1875 6.875 3 6 C1.125 2.9375 1.125 2.9375 0 0 Z " fill="#E49C94" transform="translate(62,32)"/>
<path d="M0 0 C0.763125 0.20625 1.52625 0.4125 2.3125 0.625 C2.3125 1.945 2.3125 3.265 2.3125 4.625 C-3.4375 2.75 -3.4375 2.75 -5.6875 1.625 C-2.6875 -0.375 -2.6875 -0.375 0 0 Z " fill="#DC5043" transform="translate(60.6875,26.375)"/>
<path d="M0 0 C3.09162264 1.38589981 4.49183541 2.49183541 7 5 C2.545 4.01 2.545 4.01 -2 3 C-1.34 2.67 -0.68 2.34 0 2 C0 1.34 0 0.68 0 0 Z " fill="#B56B5F" transform="translate(88,54)"/>
<path d="M0 0 C4.455 0.99 4.455 0.99 9 2 C8.34 2.66 7.68 3.32 7 4 C4.54901444 3.60467975 2.36095721 2.78698574 0 2 C0 1.34 0 0.68 0 0 Z " fill="#DAD6D8" transform="translate(74,70)"/>
<path d="M0 0 C0 0.99 0 1.98 0 3 C-0.66 3 -1.32 3 -2 3 C-2 3.66 -2 4.32 -2 5 C-3.32 5.33 -4.64 5.66 -6 6 C-4.95125002 3.37812506 -4.35068687 2.20628639 -1.875 0.75 C-1.25625 0.5025 -0.6375 0.255 0 0 Z " fill="#D89088" transform="translate(25,56)"/>
<path d="M0 0 C1.98 0.495 1.98 0.495 4 1 C4 2.32 4 3.64 4 5 C1.525 4.01 1.525 4.01 -1 3 C-0.67 2.01 -0.34 1.02 0 0 Z " fill="#DD8785" transform="translate(84,50)"/>
<path d="M0 0 C2.62187494 1.04874998 3.79371361 1.64931313 5.25 4.125 C5.4975 4.74375 5.745 5.3625 6 6 C4.35 5.67 2.7 5.34 1 5 C0.67 3.35 0.34 1.7 0 0 Z " fill="#DA877E" transform="translate(71,39)"/>
<path d="M0 0 C0.99 0.33 1.98 0.66 3 1 C3 1.66 3 2.32 3 3 C2.01 3.33 1.02 3.66 0 4 C-0.99 5.485 -0.99 5.485 -2 7 C-2.66 6.67 -3.32 6.34 -4 6 C-2.68 4.02 -1.36 2.04 0 0 Z " fill="#D15A52" transform="translate(44,33)"/>
<path d="M0 0 C0.99 0.33 1.98 0.66 3 1 C1.6875 3 1.6875 3 0 5 C-0.99 5 -1.98 5 -3 5 C-1.125 1.125 -1.125 1.125 0 0 Z " fill="#C85B58" transform="translate(51,26)"/>
<path d="M0 0 C0.99 0.33 1.98 0.66 3 1 C3 1.99 3 2.98 3 4 C1.35 4 -0.3 4 -2 4 C-2 3.01 -2 2.02 -2 1 C-1.34 0.67 -0.68 0.34 0 0 Z " fill="#C16A63" transform="translate(70,23)"/>
</svg>
